SplineFontDB: 3.2
FontName: TengwarEnglishParmaTinco
FullName: English Tengwar, Parma Tinco
FamilyName: tept
Weight: Book
Copyright: Tengwar English | Sam\nModification of Tengwar Transliteral by\nThe Zephyris foundry; Richard Wheeler \n(www.richardwheeler.net)
Version: 001.000
ItalicAngle: 0
UnderlinePosition: -306
UnderlineWidth: 102
Ascent: 1331
Descent: 717
InvalidEm: 0
sfntRevision: 0x0001199a
LayerCount: 2
Layer: 0 1 "Back" 1
Layer: 1 1 "Fore" 0
XUID: [1021 78 -1868653765 7110]
StyleMap: 0x0040
FSType: 0
OS2Version: 4
OS2_WeightWidthSlopeOnly: 0
OS2_UseTypoMetrics: 1
CreationTime: 1412630470
ModificationTime: 1621442778
PfmFamily: 17
TTFWeight: 400
TTFWidth: 5
LineGap: 184
VLineGap: 0
Panose: 2 0 5 3 0 0 0 0 0 0
OS2TypoAscent: 1331
OS2TypoAOffset: 0
OS2TypoDescent: -717
OS2TypoDOffset: 0
OS2TypoLinegap: 184
OS2WinAscent: 1253
OS2WinAOffset: 0
OS2WinDescent: 614
OS2WinDOffset: 0
HheadAscent: 1253
HheadAOffset: 0
HheadDescent: -614
HheadDOffset: 0
OS2SubXSize: 1331
OS2SubYSize: 1432
OS2SubXOff: 0
OS2SubYOff: 287
OS2SupXSize: 1331
OS2SupYSize: 1432
OS2SupXOff: 0
OS2SupYOff: 981
OS2StrikeYSize: 100
OS2StrikeYPos: 528
OS2CapHeight: 614
OS2XHeight: 614
OS2Vendor: 'PfEd'
OS2CodePages: 00000001.00000000
OS2UnicodeRanges: 00000001.00000000.00000000.00000000
Lookup: 4 0 0 "ligeratures diph" { "ea"  "_u diph"  "i diph"  } ['liga' ('DFLT' <'dflt' > 'latn' <'dflt' > ) ]
Lookup: 1 0 0 "silent e" { "silent e"  } ['cv05' ('DFLT' <'dflt' > 'latn' <'dflt' > ) ]
Lookup: 1 0 0 "S trail low" { "S trail low"  } ['cv03' ('DFLT' <'dflt' > 'latn' <'dflt' > ) ]
Lookup: 1 0 0 "S trail high" { "S trail high"  } ['cv04' ('DFLT' <'dflt' > 'latn' <'dflt' > ) ]
Lookup: 1 0 0 "nasalized " { "nasalized"  } ['cv02' ('DFLT' <'dflt' > 'latn' <'dflt' > ) ]
Lookup: 1 0 0 "nasal short" { "nasal short"  } ['cv02' ('DFLT' <'dflt' > 'latn' <'dflt' > ) ]
Lookup: 1 0 0 "vowel dicritic tengwa" { "vowel diacritic tengwa"  } ['cv00' ('DFLT' <'dflt' > 'latn' <'dflt' > ) ]

StartChar: .notdef
Encoding: 65536 -1 0
Width: 1105
VWidth: 4526
Flags: W
LayerCount: 2
Fore
SplineSet
111 0 m 1,0,-1
 111 958 l 1,1,-1
 995 958 l 1,2,-1
 995 0 l 1,3,-1
 111 0 l 1,0,-1
221 111 m 1,4,-1
 885 111 l 1,5,-1
 885 847 l 1,6,-1
 221 847 l 1,7,-1
 221 111 l 1,4,-1
EndSplineSet
EndChar

StartChar: exclam
Encoding: 33 33 4
Width: 356
VWidth: 4596
GlyphClass: 2
Flags: W
LayerCount: 2
Fore
SplineSet
172 123 m 4,0,1
 172 189 172 189 147 281.5 c 132,-1,2
 122 374 122 374 91.5 452.5 c 132,-1,3
 61 531 61 531 37 624.5 c 132,-1,4
 13 718 13 718 13 785 c 4,5,6
 13 862 13 862 42.5 925.5 c 132,-1,7
 72 989 72 989 136 1053 c 4,8,9
 177 1094 177 1094 221 1125 c 4,10,11
 266 1156 266 1156 284 1156 c 4,12,13
 292 1156 292 1156 292 1148 c 4,14,15
 292 1126 292 1126 238 1076 c 4,16,17
 188 1031 188 1031 189 923 c 4,18,19
 189 853 189 853 213.5 761 c 132,-1,20
 238 669 238 669 268 593.5 c 132,-1,21
 298 518 298 518 322.5 426 c 132,-1,22
 347 334 347 334 347 264 c 4,23,24
 347 187 347 187 317 123 c 4,25,26
 286 60 286 60 223 -4 c 4,27,28
 187 -40 187 -40 140.5 -74 c 132,-1,29
 94 -108 94 -108 76 -108 c 4,30,31
 67 -108 67 -108 67 -99 c 4,32,33
 67 -89 67 -89 84.5 -67 c 132,-1,34
 102 -45 102 -45 118 -29 c 6,35,-1
 136 -12 l 5,36,37
 172 41 172 41 172 123 c 4,0,1
EndSplineSet
EndChar

StartChar: quotedbl
Encoding: 34 34 5
Width: 791
VWidth: 5430
GlyphClass: 2
Flags: W
LayerCount: 2
Fore
SplineSet
185 637 m 1,0,-1
 319 770 l 1,1,-1
 345 743 l 1,2,-1
 345 158 l 1,3,-1
 212 27 l 1,4,-1
 185 53 l 1,5,-1
 185 637 l 1,0,-1
452 637 m 1,6,-1
 584 770 l 1,7,-1
 610 743 l 1,8,-1
 610 158 l 1,9,-1
 477 27 l 1,10,-1
 452 53 l 1,11,-1
 452 637 l 1,6,-1
EndSplineSet
EndChar

StartChar: ampersand
Encoding: 38 38 6
Width: 975
VWidth: 5430
GlyphClass: 2
Flags: W
LayerCount: 2
Fore
SplineSet
53 796 m 1,0,-1
 711 796 l 1,1,-1
 716 796 l 1,2,-1
 849 796 l 1,3,-1
 876 770 l 1,4,-1
 796 663 l 1,5,-1
 770 663 l 1,6,-1
 770 530 l 1,7,-1
 770 -266 l 1,8,-1
 770 -663 l 1,9,-1
 796 -663 l 1,10,-1
 823 -690 l 1,11,-1
 743 -796 l 1,12,-1
 637 -796 l 1,13,-1
 610 -770 l 1,14,-1
 610 -266 l 1,15,-1
 610 530 l 1,16,-1
 610 663 l 1,17,-1
 80 663 l 2,18,19
 40 662 40 662 18 650 c 2,20,-1
 0 637 l 1,21,-1
 -53 637 l 1,22,-1
 53 796 l 1,0,-1
EndSplineSet
EndChar

StartChar: quotesingle
Encoding: 39 39 7
Width: 445
VWidth: 5430
GlyphClass: 2
Flags: W
LayerCount: 2
Fore
SplineSet
106 893 m 5,0,-1
 212 1053 l 5,1,-1
 345 947 l 5,2,-1
 238 788 l 5,3,-1
 106 893 l 5,0,-1
106 893 m 5,4,-1
 212 1053 l 5,5,-1
 345 947 l 5,6,-1
 238 788 l 5,7,-1
 106 893 l 5,4,-1
EndSplineSet
EndChar

StartChar: parenleft
Encoding: 40 40 8
Width: 445
VWidth: 5430
GlyphClass: 2
Flags: W
LayerCount: 2
Fore
SplineSet
207 1592 m 1,0,-1
 399 1592 l 1,1,-1
 425 1566 l 1,2,-1
 345 1459 l 1,3,-1
 266 1459 l 1,4,-1
 266 -663 l 1,5,-1
 399 -663 l 1,6,-1
 425 -690 l 1,7,-1
 345 -796 l 1,8,-1
 133 -796 l 1,9,-1
 106 -770 l 1,10,-1
 106 1459 l 1,11,-1
 207 1592 l 1,0,-1
EndSplineSet
EndChar

StartChar: parenright
Encoding: 41 41 9
Width: 445
VWidth: 5430
GlyphClass: 2
Flags: W
LayerCount: 2
Fore
SplineSet
297 -796 m 1,0,-1
 106 -796 l 1,1,-1
 80 -770 l 1,2,-1
 158 -663 l 1,3,-1
 238 -663 l 1,4,-1
 238 1459 l 1,5,-1
 106 1459 l 1,6,-1
 80 1486 l 1,7,-1
 158 1592 l 1,8,-1
 372 1592 l 1,9,-1
 399 1566 l 1,10,-1
 399 -663 l 1,11,-1
 297 -796 l 1,0,-1
EndSplineSet
EndChar

StartChar: comma
Encoding: 44 44 10
Width: 445
VWidth: 5430
GlyphClass: 2
Flags: W
LayerCount: 2
Fore
SplineSet
106 372 m 1,0,-1
 212 530 l 1,1,-1
 345 425 l 1,2,-1
 238 266 l 1,3,-1
 106 372 l 1,0,-1
EndSplineSet
EndChar

StartChar: hyphen
Encoding: 45 45 11
Width: 975
VWidth: 5430
GlyphClass: 2
Flags: W
LayerCount: 2
Fore
SplineSet
770 493 m 1,0,-1
 823 493 l 1,1,-1
 716 335 l 1,2,-1
 185 335 l 2,3,4
 145 335 145 335 124 320 c 2,5,-1
 106 308 l 1,6,-1
 53 308 l 1,7,-1
 158 466 l 1,8,-1
 690 466 l 2,9,10
 730 466 730 466 741 475 c 2,11,-1
 770 493 l 1,0,-1
EndSplineSet
EndChar

StartChar: period
Encoding: 46 46 12
Width: 445
VWidth: 5430
GlyphClass: 2
Flags: W
LayerCount: 2
Fore
SplineSet
106 106 m 5,0,-1
 212 266 l 5,1,-1
 345 158 l 5,2,-1
 238 0 l 5,3,-1
 106 106 l 5,0,-1
106 637 m 5,4,-1
 212 796 l 5,5,-1
 345 690 l 5,6,-1
 238 530 l 5,7,-1
 106 637 l 5,4,-1
EndSplineSet
EndChar

StartChar: zero
Encoding: 48 48 13
Width: 764
VWidth: 5430
GlyphClass: 2
Flags: W
LayerCount: 2
Fore
SplineSet
324 796 m 4,0,1
 464 796 464 796 540 720 c 132,-1,2
 616 644 616 644 616 504 c 6,3,-1
 616 292 l 6,4,5
 616 152 616 152 540 76 c 132,-1,6
 464 0 464 0 324 0 c 4,7,8
 271 0 271 0 222 33 c 132,-1,9
 173 66 173 66 144 98 c 6,10,-1
 112 133 l 5,11,-1
 191 266 l 5,12,-1
 217 266 l 5,13,14
 228 226 l 260,15,16
 239 186 239 186 268 146 c 132,-1,17
 297 106 297 106 350 106 c 4,18,19
 430 106 430 106 443.5 159 c 132,-1,20
 457 212 457 212 457 292 c 6,21,-1
 457 504 l 6,22,23
 457 584 457 584 428 637 c 132,-1,24
 399 690 399 690 297 690 c 4,25,26
 217 690 217 690 178 663 c 6,27,-1
 139 637 l 5,28,-1
 112 663 l 5,29,-1
 144 698 l 6,30,31
 173 730 173 730 222 763 c 132,-1,32
 271 796 271 796 324 796 c 4,0,1
EndSplineSet
EndChar

StartChar: one
Encoding: 49 49 14
Width: 737
VWidth: 5430
GlyphClass: 2
Flags: W
LayerCount: 2
Fore
SplineSet
637 823 m 1,0,-1
 690 823 l 1,1,-1
 584 663 l 1,2,-1
 266 663 l 1,3,-1
 266 292 l 2,4,5
 266 212 266 212 296 159 c 128,-1,6
 326 106 326 106 425 106 c 0,7,8
 504 106 504 106 544 133 c 2,9,-1
 584 158 l 1,10,-1
 610 133 l 1,11,12
 581 98 l 0,13,14
 549 66 549 66 500.5 33 c 128,-1,15
 452 0 452 0 399 0 c 0,16,17
 260 0 260 0 183 75.5 c 128,-1,18
 106 151 106 151 106 292 c 2,19,-1
 106 652 l 1,20,21
 94 647 94 647 86 643 c 2,22,-1
 80 637 l 1,23,-1
 27 637 l 1,24,-1
 133 796 l 1,25,-1
 557 796 l 2,26,27
 597 796 597 796 608 804 c 2,28,-1
 637 823 l 1,0,-1
EndSplineSet
EndChar

StartChar: two
Encoding: 50 50 15
Width: 1055
VWidth: 5430
GlyphClass: 2
Flags: W
LayerCount: 2
Fore
SplineSet
956 823 m 1,0,-1
 1009 823 l 1,1,-1
 902 663 l 1,2,-1
 584 663 l 1,3,-1
 584 292 l 2,4,5
 584 212 584 212 614 159 c 128,-1,6
 644 106 644 106 743 106 c 0,7,8
 823 106 823 106 863 133 c 2,9,-1
 902 158 l 1,10,-1
 929 133 l 1,11,12
 900 98 l 0,13,14
 868 66 868 66 819 33 c 128,-1,15
 770 0 770 0 716 0 c 0,16,17
 599 0 599 0 528 53 c 1,18,19
 499 31 499 31 465.5 15.5 c 128,-1,20
 432 0 432 0 399 0 c 0,21,22
 260 0 260 0 183 75.5 c 128,-1,23
 106 151 106 151 106 292 c 2,24,-1
 106 652 l 1,25,26
 94 647 94 647 86 643 c 2,27,-1
 80 637 l 1,28,-1
 27 637 l 1,29,-1
 133 796 l 1,30,-1
 876 796 l 2,31,32
 915 796 915 796 925 804 c 2,33,-1
 956 823 l 1,0,-1
266 663 m 1,34,-1
 266 292 l 2,35,36
 266 212 266 212 296 159 c 128,-1,37
 326 106 326 106 425 106 c 0,38,39
 448 106 448 106 472 109 c 1,40,41
 425 180 425 180 425 292 c 2,42,-1
 425 663 l 1,43,-1
 266 663 l 1,34,-1
EndSplineSet
EndChar

StartChar: three
Encoding: 51 51 16
Width: 1373
VWidth: 5430
GlyphClass: 2
Flags: W
LayerCount: 2
Fore
SplineSet
1274 823 m 1,0,-1
 1327 823 l 1,1,-1
 1220 663 l 1,2,-1
 902 663 l 1,3,-1
 902 292 l 2,4,5
 902 212 902 212 932.5 159 c 128,-1,6
 963 106 963 106 1062 106 c 0,7,8
 1143 106 1143 106 1181 133 c 2,9,-1
 1220 158 l 1,10,-1
 1247 133 l 1,11,12
 1215 98 l 0,13,14
 1183 66 1183 66 1135 33 c 128,-1,15
 1087 0 1087 0 1035 0 c 0,16,17
 918 0 918 0 847 53 c 1,18,19
 818 31 818 31 784.5 15.5 c 128,-1,20
 751 0 751 0 716 0 c 0,21,22
 599 0 599 0 528 53 c 1,23,24
 499 31 499 31 465.5 15.5 c 128,-1,25
 432 0 432 0 399 0 c 0,26,27
 260 0 260 0 183 75.5 c 128,-1,28
 106 151 106 151 106 292 c 2,29,-1
 106 652 l 1,30,31
 94 647 94 647 86 643 c 2,32,-1
 80 637 l 1,33,-1
 27 637 l 1,34,-1
 133 796 l 1,35,-1
 1194 796 l 2,36,37
 1233 796 1233 796 1244 804 c 2,38,-1
 1274 823 l 1,0,-1
266 663 m 1,39,-1
 266 292 l 2,40,41
 266 212 266 212 296 159 c 128,-1,42
 326 106 326 106 425 106 c 0,43,44
 448 106 448 106 472 109 c 1,45,46
 425 180 425 180 425 292 c 2,47,-1
 425 663 l 1,48,-1
 266 663 l 1,39,-1
584 663 m 1,49,-1
 584 292 l 2,50,51
 584 212 584 212 614 159 c 128,-1,52
 644 106 644 106 743 106 c 0,53,54
 766 106 766 106 790 109 c 1,55,56
 743 180 743 180 743 292 c 2,57,-1
 743 663 l 1,58,-1
 584 663 l 1,49,-1
EndSplineSet
EndChar

StartChar: four
Encoding: 52 52 17
Width: 577
VWidth: 5430
GlyphClass: 2
Flags: W
LayerCount: 2
Fore
SplineSet
133 1327 m 1,0,-1
 238 1327 l 1,1,-1
 266 1300 l 1,2,-1
 266 796 l 1,3,-1
 266 133 l 1,4,-1
 266 -238 l 2,5,6
 266 -318 266 -318 296 -371.5 c 128,-1,7
 326 -425 326 -425 425 -425 c 0,8,9
 504 -425 504 -425 544 -399 c 2,10,-1
 584 -372 l 1,11,-1
 610 -399 l 1,12,13
 581 -430 l 0,14,15
 549 -464 549 -464 500.5 -497 c 128,-1,16
 452 -530 452 -530 399 -530 c 0,17,18
 260 -530 260 -530 183 -454.5 c 0,19,20
 106 -378 106 -378 106 -238 c 2,21,-1
 106 133 l 1,22,-1
 106 796 l 1,23,-1
 106 1194 l 1,24,25
 66 1194 66 1194 34 1167 c 2,26,-1
 0 1141 l 1,27,-1
 -27 1167 l 1,28,-1
 133 1327 l 1,0,-1
EndSplineSet
EndChar

StartChar: five
Encoding: 53 53 18
Width: 1055
VWidth: 5430
GlyphClass: 2
Flags: W
LayerCount: 2
Fore
SplineSet
133 1327 m 1,0,-1
 238 1327 l 1,1,-1
 266 1300 l 1,2,-1
 266 796 l 1,3,-1
 876 796 l 2,4,5
 915 796 915 796 936 809 c 2,6,-1
 956 823 l 1,7,-1
 1009 823 l 1,8,-1
 902 663 l 1,9,-1
 584 663 l 1,10,-1
 584 292 l 2,11,12
 584 212 584 212 614 159 c 128,-1,13
 644 106 644 106 743 106 c 0,14,15
 823 106 823 106 863 133 c 2,16,-1
 902 158 l 1,17,-1
 929 133 l 1,18,19
 900 98 l 0,20,21
 868 66 868 66 819 33 c 128,-1,22
 770 0 770 0 716 0 c 0,23,24
 577 0 577 0 501 75.5 c 128,-1,25
 425 151 425 151 425 292 c 2,26,-1
 425 663 l 1,27,-1
 266 663 l 1,28,-1
 266 133 l 1,29,-1
 266 -238 l 2,30,31
 266 -318 266 -318 296 -371.5 c 128,-1,32
 326 -425 326 -425 425 -425 c 0,33,34
 504 -425 504 -425 544 -399 c 2,35,-1
 584 -372 l 1,36,-1
 610 -399 l 1,37,-1
 581 -430 l 2,38,39
 549 -464 549 -464 500.5 -497 c 128,-1,40
 452 -530 452 -530 399 -530 c 0,41,42
 260 -530 260 -530 183 -454.5 c 0,43,44
 106 -378 106 -378 106 -238 c 2,45,-1
 106 133 l 1,46,-1
 106 796 l 1,47,-1
 106 1194 l 1,48,49
 66 1194 66 1194 34 1167 c 2,50,-1
 0 1141 l 1,51,-1
 -27 1167 l 1,52,-1
 133 1327 l 1,0,-1
EndSplineSet
EndChar

StartChar: six
Encoding: 54 54 19
Width: 1373
VWidth: 5430
GlyphClass: 2
Flags: W
LayerCount: 2
Fore
SplineSet
133 1327 m 1,0,-1
 238 1327 l 1,1,-1
 266 1300 l 1,2,-1
 266 796 l 1,3,-1
 1194 796 l 2,4,5
 1233 796 1233 796 1255 809 c 2,6,-1
 1274 823 l 1,7,-1
 1327 823 l 1,8,-1
 1220 663 l 1,9,-1
 902 663 l 1,10,-1
 902 292 l 2,11,12
 902 212 902 212 932.5 159 c 128,-1,13
 963 106 963 106 1062 106 c 0,14,15
 1143 106 1143 106 1181 133 c 2,16,-1
 1220 158 l 1,17,-1
 1247 133 l 1,18,19
 1215 98 l 0,20,21
 1183 66 1183 66 1135 33 c 128,-1,22
 1087 0 1087 0 1035 0 c 0,23,24
 918 0 918 0 847 53 c 1,25,26
 818 31 818 31 784.5 15.5 c 128,-1,27
 751 0 751 0 716 0 c 0,28,29
 577 0 577 0 501 75.5 c 128,-1,30
 425 151 425 151 425 292 c 2,31,-1
 425 663 l 1,32,-1
 266 663 l 1,33,-1
 266 133 l 1,34,-1
 266 -238 l 2,35,36
 266 -318 266 -318 296 -371.5 c 128,-1,37
 326 -425 326 -425 425 -425 c 0,38,39
 504 -425 504 -425 544 -399 c 2,40,-1
 584 -372 l 1,41,-1
 610 -399 l 1,42,-1
 581 -430 l 2,43,44
 549 -464 549 -464 500.5 -497 c 128,-1,45
 452 -530 452 -530 399 -530 c 0,46,47
 260 -530 260 -530 183 -454.5 c 0,48,49
 106 -378 106 -378 106 -238 c 2,50,-1
 106 133 l 1,51,-1
 106 796 l 1,52,-1
 106 1194 l 1,53,54
 66 1194 66 1194 34 1167 c 2,55,-1
 0 1141 l 1,56,-1
 -27 1167 l 1,57,-1
 133 1327 l 1,0,-1
584 663 m 1,58,-1
 584 292 l 2,59,60
 584 212 584 212 614 159 c 128,-1,61
 644 106 644 106 743 106 c 0,62,63
 766 106 766 106 790 109 c 1,64,65
 743 180 743 180 743 292 c 2,66,-1
 743 663 l 1,67,-1
 584 663 l 1,58,-1
EndSplineSet
EndChar

StartChar: seven
Encoding: 55 55 20
Width: 661
VWidth: 5430
GlyphClass: 2
Flags: W
LayerCount: 2
Fore
SplineSet
504 -238 m 2,0,1
 504 -378 504 -378 428.5 -454 c 128,-1,2
 353 -530 353 -530 212 -530 c 0,3,4
 159 -530 159 -530 110 -497 c 0,5,6
 62 -464 62 -464 32 -430 c 2,7,-1
 0 -399 l 1,8,-1
 27 -372 l 1,9,-1
 66 -399 l 0,10,11
 105 -427 105 -427 185 -425 c 0,12,13
 286 -425 286 -425 315.5 -372 c 0,14,15
 345 -318 345 -318 345 -238 c 2,16,-1
 345 133 l 1,17,-1
 345 796 l 1,18,-1
 345 1194 l 1,19,20
 306 1194 306 1194 274 1167 c 2,21,-1
 238 1141 l 1,22,-1
 212 1167 l 1,23,-1
 372 1327 l 1,24,-1
 477 1327 l 1,25,-1
 504 1300 l 1,26,-1
 504 796 l 1,27,-1
 504 133 l 1,28,-1
 504 -238 l 2,0,1
EndSplineSet
EndChar

StartChar: eight
Encoding: 56 56 21
Width: 975
VWidth: 5430
GlyphClass: 2
Flags: W
LayerCount: 2
Fore
SplineSet
372 1327 m 1,0,-1
 477 1327 l 1,1,-1
 504 1300 l 1,2,-1
 504 796 l 1,3,-1
 504 794 l 1,4,5
 517 796 517 796 530 796 c 0,6,7
 670 796 670 796 746.5 720 c 128,-1,8
 823 644 823 644 823 504 c 2,9,-1
 823 135 l 1,10,11
 850 140 850 140 863 151 c 2,12,-1
 876 158 l 1,13,-1
 929 158 l 1,14,-1
 823 0 l 1,15,-1
 504 0 l 1,16,-1
 504 -238 l 2,17,18
 504 -378 504 -378 428.5 -454 c 128,-1,19
 353 -530 353 -530 212 -530 c 0,20,21
 159 -530 159 -530 110 -497 c 0,22,23
 62 -464 62 -464 32 -430 c 2,24,-1
 0 -399 l 1,25,-1
 27 -372 l 1,26,-1
 66 -399 l 0,27,28
 105 -427 105 -427 185 -425 c 0,29,30
 286 -425 286 -425 315.5 -372 c 0,31,32
 345 -318 345 -318 345 -238 c 2,33,-1
 345 133 l 1,34,-1
 345 637 l 1,35,-1
 345 690 l 1,36,-1
 345 796 l 1,37,-1
 345 1194 l 1,38,39
 306 1194 306 1194 274 1167 c 2,40,-1
 238 1141 l 1,41,-1
 212 1167 l 1,42,-1
 372 1327 l 1,0,-1
504 690 m 1,43,-1
 504 133 l 1,44,-1
 663 133 l 1,45,-1
 663 504 l 2,46,47
 663 584 663 584 634 637 c 128,-1,48
 605 690 605 690 504 690 c 1,43,-1
EndSplineSet
EndChar

StartChar: nine
Encoding: 57 57 22
Width: 1294
VWidth: 5430
GlyphClass: 2
Flags: W
LayerCount: 2
Fore
SplineSet
372 1327 m 1,0,-1
 477 1327 l 1,1,-1
 504 1300 l 1,2,-1
 504 796 l 1,3,-1
 504 794 l 1,4,5
 517 796 517 796 530 796 c 0,6,7
 647 796 647 796 719 743 c 1,8,9
 748 765 748 765 781 780.5 c 128,-1,10
 814 796 814 796 849 796 c 0,11,12
 989 796 989 796 1065 720 c 128,-1,13
 1141 644 1141 644 1141 504 c 2,14,-1
 1141 135 l 1,15,16
 1168 140 1168 140 1181 151 c 2,17,-1
 1194 158 l 1,18,-1
 1247 158 l 1,19,-1
 1141 0 l 1,20,-1
 504 0 l 1,21,-1
 504 -238 l 2,22,23
 504 -378 504 -378 428.5 -454 c 128,-1,24
 353 -530 353 -530 212 -530 c 0,25,26
 159 -530 159 -530 110 -497 c 0,27,28
 62 -464 62 -464 32 -430 c 2,29,-1
 0 -399 l 1,30,-1
 27 -372 l 1,31,-1
 66 -399 l 0,32,33
 105 -427 105 -427 185 -425 c 0,34,35
 286 -425 286 -425 315.5 -372 c 0,36,37
 345 -318 345 -318 345 -238 c 2,38,-1
 345 133 l 1,39,-1
 345 637 l 1,40,-1
 345 690 l 1,41,-1
 345 796 l 1,42,-1
 345 1194 l 1,43,44
 306 1194 306 1194 274 1167 c 2,45,-1
 238 1141 l 1,46,-1
 212 1167 l 1,47,-1
 372 1327 l 1,0,-1
504 690 m 1,48,-1
 504 133 l 1,49,-1
 663 133 l 1,50,-1
 663 504 l 2,51,52
 663 584 663 584 634 637 c 128,-1,53
 605 690 605 690 504 690 c 1,48,-1
823 690 m 0,54,55
 800 690 800 690 774 687 c 1,56,57
 821 616 821 616 823 504 c 2,58,-1
 823 133 l 1,59,-1
 982 133 l 1,60,-1
 982 504 l 2,61,62
 982 584 982 584 953 637 c 128,-1,63
 924 690 924 690 823 690 c 0,54,55
EndSplineSet
EndChar

StartChar: colon
Encoding: 58 58 23
Width: 445
VWidth: 5430
GlyphClass: 2
Flags: W
LayerCount: 2
Fore
SplineSet
106 106 m 1,0,-1
 212 266 l 1,1,-1
 345 158 l 1,2,-1
 238 0 l 1,3,-1
 106 106 l 1,0,-1
106 637 m 1,4,-1
 212 796 l 1,5,-1
 345 690 l 1,6,-1
 238 530 l 1,7,-1
 106 637 l 1,4,-1
106 372 m 1,8,-1
 212 530 l 1,9,-1
 345 425 l 1,10,-1
 238 266 l 1,11,-1
 106 372 l 1,8,-1
EndSplineSet
EndChar

StartChar: semicolon
Encoding: 59 59 24
Width: 445
VWidth: 5430
GlyphClass: 2
Flags: W
LayerCount: 2
Fore
SplineSet
106 372 m 1,0,-1
 212 530 l 1,1,-1
 345 425 l 1,2,-1
 238 266 l 1,3,-1
 106 372 l 1,0,-1
106 637 m 1,4,-1
 212 796 l 1,5,-1
 345 690 l 1,6,-1
 238 530 l 1,7,-1
 106 637 l 1,4,-1
EndSplineSet
EndChar

StartChar: question
Encoding: 63 63 25
Width: 1555
VWidth: 5430
GlyphClass: 2
Flags: W
LayerCount: 2
Fore
SplineSet
472 1592 m 1,0,-1
 579 1592 l 1,1,-1
 605 1566 l 1,2,-1
 605 1422 l 1,3,4
 647 1449 647 1449 700.5 1467.5 c 128,-1,5
 754 1486 754 1486 817 1486 c 0,6,7
 923 1486 923 1486 1013 1437 c 128,-1,8
 1103 1388 1103 1388 1159 1304 c 128,-1,9
 1215 1220 1215 1220 1215 1114 c 0,10,11
 1215 957 1215 957 1154 871 c 128,-1,12
 1093 785 1093 785 1019 745 c 1,13,14
 1106 697 1106 697 1161 614 c 0,15,16
 1215 531 1215 531 1215 425 c 0,17,18
 1215 297 1215 297 1175.5 216 c 128,-1,19
 1136 135 1136 135 1076 91.5 c 128,-1,20
 1016 48 1016 48 956 27.5 c 128,-1,21
 896 7 896 7 858 2 c 2,22,-1
 817 0 l 1,23,-1
 817 27 l 1,24,-1
 852 37 l 0,25,26
 889 48 889 48 937 84 c 128,-1,27
 985 120 985 120 1021 194 c 128,-1,28
 1057 268 1057 268 1057 399 c 0,29,30
 1057 500 1057 500 990 581.5 c 128,-1,31
 923 663 923 663 765 663 c 0,32,33
 715 663 715 663 674 658 c 0,34,35
 634 652 634 652 605 644 c 1,36,-1
 605 266 l 1,37,-1
 605 133 l 1,38,-1
 632 133 l 2,39,40
 672 133 672 133 692 146 c 2,41,-1
 711 158 l 1,42,-1
 765 158 l 1,43,-1
 658 0 l 1,44,-1
 605 0 l 1,45,-1
 446 0 l 1,46,-1
 446 266 l 1,47,-1
 446 1062 l 1,48,-1
 446 1459 l 1,49,50
 406 1458 406 1458 374 1433 c 2,51,-1
 339 1406 l 1,52,-1
 313 1433 l 1,53,-1
 472 1592 l 1,0,-1
765 1354 m 0,54,55
 715 1354 715 1354 674.5 1348.5 c 128,-1,56
 634 1343 634 1343 605 1335 c 1,57,-1
 605 1062 l 1,58,-1
 605 733 l 1,59,60
 647 760 647 760 700.5 778 c 128,-1,61
 754 796 754 796 817 796 c 128,-1,62
 880 796 880 796 941 778 c 1,63,64
 983 815 983 815 1020 889 c 128,-1,65
 1057 963 1057 963 1057 1087 c 0,66,67
 1057 1188 1057 1188 990 1271 c 128,-1,68
 923 1354 923 1354 765 1354 c 0,54,55
EndSplineSet
EndChar

StartChar: A
Encoding: 65 65 26
Width: 445
VWidth: 5430
GlyphClass: 2
Flags: W
LayerCount: 2
Fore
SplineSet
212 1194 m 1,0,-1
 319 1354 l 1,1,-1
 452 1247 l 1,2,-1
 345 1087 l 1,3,-1
 212 1194 l 1,0,-1
-106 1194 m 1,4,-1
 0 1354 l 1,5,-1
 133 1247 l 1,6,-1
 27 1087 l 1,7,-1
 -106 1194 l 1,4,-1
53 1354 m 1,8,-1
 158 1512 l 1,9,-1
 292 1406 l 1,10,-1
 185 1247 l 1,11,-1
 53 1354 l 1,8,-1
106 796 m 1,12,-1
 238 796 l 1,13,-1
 266 770 l 1,14,-1
 266 610 l 1,15,-1
 266 266 l 1,16,-1
 266 0 l 1,17,-1
 80 0 l 2,18,19
 40 0 40 0 18 -13 c 2,20,-1
 0 -27 l 1,21,-1
 -53 -27 l 1,22,-1
 53 133 l 1,23,-1
 106 133 l 1,24,-1
 106 266 l 1,25,-1
 106 610 l 1,26,-1
 106 663 l 1,27,-1
 53 663 l 1,28,-1
 27 690 l 1,29,-1
 106 796 l 1,12,-1
EndSplineSet
EndChar

StartChar: B
Encoding: 66 66 27
Width: 1507
VWidth: 5430
GlyphClass: 2
Flags: W
LayerCount: 2
Fore
SplineSet
106 796 m 1,0,-1
 238 796 l 1,1,-1
 266 770 l 1,2,-1
 266 733 l 1,3,4
 308 760 308 760 361 778 c 128,-1,5
 414 796 414 796 477 796 c 0,6,7
 634 796 634 796 749 698 c 1,8,9
 794 732 794 732 859.5 764 c 128,-1,10
 925 796 925 796 1009 796 c 0,11,12
 1115 796 1115 796 1205 747 c 128,-1,13
 1295 698 1295 698 1350 614 c 0,14,15
 1405 531 1405 531 1406 425 c 0,16,17
 1406 321 1406 321 1378.5 250.5 c 128,-1,18
 1351 180 1351 180 1308 133 c 1,19,-1
 1327 133 l 2,20,21
 1367 133 1367 133 1386 146 c 2,22,-1
 1406 158 l 1,23,-1
 1459 158 l 1,24,-1
 1354 0 l 1,25,-1
 266 0 l 1,26,-1
 266 -266 l 1,27,-1
 266 -663 l 1,28,-1
 292 -663 l 1,29,-1
 319 -690 l 1,30,-1
 238 -796 l 1,31,-1
 133 -796 l 1,32,-1
 106 -770 l 1,33,-1
 106 -266 l 1,34,-1
 106 610 l 1,35,-1
 106 663 l 1,36,-1
 53 663 l 1,37,-1
 27 690 l 1,38,-1
 106 796 l 1,0,-1
425 663 m 0,39,40
 375 663 375 663 335 658 c 0,41,42
 296 652 296 652 266 644 c 1,43,-1
 266 610 l 1,44,-1
 266 133 l 1,45,-1
 644 133 l 1,46,47
 673 175 673 175 694.5 238.5 c 128,-1,48
 716 302 716 302 716 399 c 0,49,50
 716 500 716 500 649.5 581.5 c 128,-1,51
 583 663 583 663 425 663 c 0,39,40
956 663 m 0,52,53
 906 663 906 663 867 658 c 0,54,55
 828 652 828 652 799 644 c 1,56,57
 836 599 836 599 856 543.5 c 128,-1,58
 876 488 876 488 876 425 c 0,59,60
 876 321 876 321 848 250.5 c 128,-1,61
 820 180 820 180 778 133 c 1,62,-1
 1175 133 l 1,63,64
 1204 175 1204 175 1225.5 238.5 c 128,-1,65
 1247 302 1247 302 1247 399 c 0,66,67
 1247 500 1247 500 1180.5 581.5 c 128,-1,68
 1114 663 1114 663 956 663 c 0,52,53
EndSplineSet
EndChar

StartChar: C
Encoding: 67 67 28
Width: 871
VWidth: 5430
GlyphClass: 2
Flags: W
LayerCount: 2
Fore
SplineSet
158 796 m 1,0,-1
 504 796 l 1,1,-1
 817 796 l 1,2,-1
 823 796 l 1,3,-1
 956 796 l 1,4,-1
 982 770 l 1,5,-1
 902 663 l 1,6,-1
 876 663 l 1,7,-1
 876 530 l 1,8,-1
 876 -266 l 1,9,-1
 876 -663 l 1,10,-1
 902 -663 l 1,11,-1
 929 -690 l 1,12,-1
 849 -796 l 1,13,-1
 743 -796 l 1,14,-1
 716 -770 l 1,15,-1
 716 -266 l 1,16,-1
 716 64 l 1,17,18
 674 37 674 37 621 18 c 0,19,20
 567 0 567 0 504 0 c 0,21,22
 398 0 398 0 307.5 49 c 128,-1,23
 217 98 217 98 161.5 182 c 128,-1,24
 106 266 106 266 106 372 c 0,25,26
 106 476 106 476 134 546 c 128,-1,27
 162 616 162 616 204 663 c 1,28,-1
 185 663 l 2,29,30
 145 662 145 662 124 650 c 2,31,-1
 106 637 l 1,32,-1
 53 637 l 1,33,-1
 158 796 l 1,0,-1
337 663 m 1,34,35
 308 621 308 621 287 557 c 128,-1,36
 266 493 266 493 266 399 c 0,37,38
 266 301 266 301 332.5 217 c 128,-1,39
 399 133 399 133 557 133 c 0,40,41
 607 133 607 133 647 139 c 0,42,43
 687 144 687 144 716 151 c 1,44,-1
 716 530 l 1,45,-1
 716 663 l 1,46,-1
 337 663 l 1,34,35
EndSplineSet
EndChar

StartChar: D
Encoding: 68 68 29
Width: 1507
VWidth: 5430
GlyphClass: 2
Flags: W
LayerCount: 2
Fore
SplineSet
106 796 m 1,0,-1
 238 796 l 1,1,-1
 266 770 l 1,2,-1
 266 733 l 1,3,4
 308 760 308 760 361 778 c 128,-1,5
 414 796 414 796 477 796 c 0,6,7
 634 796 634 796 749 698 c 1,8,9
 794 732 794 732 859.5 764 c 128,-1,10
 925 796 925 796 1009 796 c 0,11,12
 1115 796 1115 796 1205 747 c 128,-1,13
 1295 698 1295 698 1350 614 c 0,14,15
 1405 531 1405 531 1406 425 c 0,16,17
 1406 297 1406 297 1366.5 216 c 128,-1,18
 1327 135 1327 135 1267.5 91.5 c 128,-1,19
 1208 48 1208 48 1147.5 27.5 c 0,20,21
 1086 7 1086 7 1048 2 c 2,22,-1
 1009 0 l 1,23,-1
 1009 27 l 1,24,-1
 1046 37 l 0,25,26
 1083 48 1083 48 1129 84 c 128,-1,27
 1175 120 1175 120 1211 194 c 128,-1,28
 1247 268 1247 268 1247 399 c 0,29,30
 1247 500 1247 500 1180.5 581.5 c 128,-1,31
 1114 663 1114 663 956 663 c 0,32,33
 906 663 906 663 867 658 c 0,34,35
 828 652 828 652 799 644 c 1,36,37
 836 599 836 599 856 543.5 c 128,-1,38
 876 488 876 488 876 425 c 0,39,40
 876 297 876 297 836 216 c 128,-1,41
 796 135 796 135 736.5 91.5 c 128,-1,42
 677 48 677 48 617 27.5 c 0,43,44
 558 7 558 7 518 2 c 2,45,-1
 477 0 l 1,46,-1
 477 27 l 1,47,-1
 512 37 l 2,48,49
 549 48 549 48 596.5 84 c 128,-1,50
 644 120 644 120 680 194 c 128,-1,51
 716 268 716 268 716 399 c 0,52,53
 716 500 716 500 650 581 c 0,54,55
 585 663 585 663 425 663 c 0,56,57
 375 663 375 663 335 658 c 0,58,59
 296 652 296 652 266 644 c 1,60,-1
 266 610 l 1,61,-1
 266 -266 l 1,62,-1
 266 -663 l 1,63,-1
 292 -663 l 1,64,-1
 319 -690 l 1,65,-1
 238 -796 l 1,66,-1
 133 -796 l 1,67,-1
 106 -770 l 1,68,-1
 106 -266 l 1,69,-1
 106 610 l 1,70,-1
 106 663 l 1,71,-1
 53 663 l 1,72,-1
 27 690 l 1,73,-1
 106 796 l 1,0,-1
EndSplineSet
EndChar

StartChar: E
Encoding: 69 69 30
Width: 445
VWidth: 5430
GlyphClass: 2
Flags: W
LayerCount: 2
Fore
SplineSet
106 1087 m 1,0,-1
 53 1114 l 1,1,-1
 292 1512 l 1,2,-1
 425 1459 l 1,3,-1
 399 1406 l 1,4,-1
 106 1087 l 1,0,-1
106 796 m 1,5,-1
 238 796 l 1,6,-1
 266 770 l 1,7,-1
 266 610 l 1,8,-1
 266 266 l 1,9,-1
 266 0 l 1,10,-1
 80 0 l 2,11,12
 40 0 40 0 18 -13 c 2,13,-1
 0 -27 l 1,14,-1
 -53 -27 l 1,15,-1
 53 133 l 1,16,-1
 106 133 l 1,17,-1
 106 266 l 1,18,-1
 106 610 l 1,19,-1
 106 663 l 1,20,-1
 53 663 l 1,21,-1
 27 690 l 1,22,-1
 106 796 l 1,5,-1
EndSplineSet
EndChar

StartChar: F
Encoding: 70 70 31
Width: 975
VWidth: 5430
GlyphClass: 2
Flags: W
LayerCount: 2
Fore
SplineSet
133 1592 m 1,0,-1
 238 1592 l 1,1,-1
 266 1566 l 1,2,-1
 266 1062 l 1,3,-1
 266 733 l 1,4,5
 308 760 308 760 361 778 c 128,-1,6
 414 796 414 796 477 796 c 0,7,8
 583 796 583 796 674 747 c 128,-1,9
 765 698 765 698 820 614 c 0,10,11
 875 531 875 531 876 425 c 0,12,13
 876 321 876 321 848 250.5 c 128,-1,14
 820 180 820 180 778 133 c 1,15,-1
 796 133 l 2,16,17
 836 133 836 133 854 146 c 2,18,-1
 876 158 l 1,19,-1
 929 158 l 1,20,-1
 823 0 l 1,21,-1
 477 0 l 1,22,-1
 266 0 l 1,23,-1
 80 0 l 2,24,25
 40 0 40 0 18 -13 c 2,26,-1
 0 -27 l 1,27,-1
 -53 -27 l 1,28,-1
 53 133 l 1,29,-1
 106 133 l 1,30,-1
 106 266 l 1,31,-1
 106 1062 l 1,32,-1
 106 1459 l 1,33,34
 66 1458 66 1458 34 1433 c 2,35,-1
 0 1406 l 1,36,-1
 -27 1433 l 1,37,-1
 133 1592 l 1,0,-1
425 663 m 0,38,39
 375 663 375 663 335 658 c 0,40,41
 296 652 296 652 266 644 c 1,42,-1
 266 266 l 1,43,-1
 266 133 l 1,44,-1
 644 133 l 1,45,46
 673 175 673 175 694.5 238.5 c 128,-1,47
 716 302 716 302 716 399 c 0,48,49
 716 500 716 500 649.5 581.5 c 128,-1,50
 583 663 583 663 425 663 c 0,38,39
EndSplineSet
EndChar

StartChar: G
Encoding: 71 71 32
Width: 1507
VWidth: 5430
GlyphClass: 2
Flags: W
LayerCount: 2
Fore
SplineSet
158 796 m 1,0,-1
 504 796 l 1,1,-1
 1035 796 l 1,2,-1
 1348 796 l 1,3,-1
 1354 796 l 1,4,-1
 1486 796 l 1,5,-1
 1512 770 l 1,6,-1
 1433 663 l 1,7,-1
 1406 663 l 1,8,-1
 1406 530 l 1,9,-1
 1406 -266 l 1,10,-1
 1406 -663 l 1,11,-1
 1433 -663 l 1,12,-1
 1459 -690 l 1,13,-1
 1381 -796 l 1,14,-1
 1274 -796 l 1,15,-1
 1247 -770 l 1,16,-1
 1247 -266 l 1,17,-1
 1247 64 l 1,18,19
 1205 37 1205 37 1151.5 18.5 c 128,-1,20
 1098 0 1098 0 1035 0 c 0,21,22
 878 0 878 0 765 98 c 1,23,24
 720 64 720 64 653.5 32 c 128,-1,25
 587 0 587 0 504 0 c 0,26,27
 398 0 398 0 307.5 49 c 128,-1,28
 217 98 217 98 161.5 182 c 128,-1,29
 106 266 106 266 106 372 c 0,30,31
 106 476 106 476 134 546 c 128,-1,32
 162 616 162 616 204 663 c 1,33,-1
 185 663 l 2,34,35
 145 662 145 662 124 650 c 2,36,-1
 106 637 l 1,37,-1
 53 637 l 1,38,-1
 158 796 l 1,0,-1
337 663 m 1,39,40
 308 621 308 621 287 557 c 128,-1,41
 266 493 266 493 266 399 c 0,42,43
 266 301 266 301 332.5 217 c 128,-1,44
 399 133 399 133 557 133 c 0,45,46
 607 133 607 133 646 138.5 c 128,-1,47
 685 144 685 144 714 151 c 1,48,49
 677 196 677 196 657 252 c 128,-1,50
 637 308 637 308 637 372 c 0,51,52
 637 476 637 476 664.5 546 c 128,-1,53
 692 616 692 616 735 663 c 1,54,-1
 337 663 l 1,39,40
868 663 m 1,55,56
 839 621 839 621 817.5 557 c 128,-1,57
 796 493 796 493 796 399 c 0,58,59
 796 301 796 301 862.5 217 c 128,-1,60
 929 133 929 133 1087 133 c 0,61,62
 1137 133 1137 133 1178 138.5 c 128,-1,63
 1219 144 1219 144 1247 151 c 1,64,-1
 1247 530 l 1,65,-1
 1247 663 l 1,66,-1
 868 663 l 1,55,56
EndSplineSet
EndChar

StartChar: H
Encoding: 72 72 33
Width: 975
VWidth: 5430
GlyphClass: 2
Flags: W
HStem: -27 27G<-53 18> 0 133<53 106 823 876> 1406 27G<-79 -23> 1406 27G<-79 -23> 1567 25G<54 185>
LayerCount: 2
Fore
SplineSet
80 1592 m 1,0,-1
 158 1592 l 1,1,-1
 185 1566 l 1,2,-1
 823 133 l 1,3,-1
 849 133 l 2,4,5
 889 133 889 133 911 146 c 2,6,-1
 929 158 l 1,7,-1
 982 158 l 1,8,-1
 876 0 l 1,9,-1
 823 0 l 1,10,-1
 690 0 l 1,11,-1
 414 634 l 1,12,-1
 158 0 l 1,13,-1
 80 0 l 2,14,15
 40 0 40 0 18 -13 c 2,16,-1
 0 -27 l 1,17,-1
 -53 -27 l 1,18,-1
 53 133 l 1,19,-1
 106 133 l 1,20,-1
 358 761 l 1,21,-1
 53 1459 l 1,22,23
 13 1458 13 1458 -22 1433 c 2,24,-1
 -53 1406 l 1,25,-1
 -80 1433 l 1,26,-1
 80 1592 l 1,0,-1
EndSplineSet
EndChar

StartChar: I
Encoding: 73 73 34
Width: 445
VWidth: 5430
GlyphClass: 2
Flags: W
HStem: -27 27G<-53 18> 0 133<53 106> 796 533G<87 265> 1087 27G<155 203> 1328 25G<142 191>
VStem: 106 158<133 663>
LayerCount: 2
Fore
SplineSet
53 1194 m 1,0,-1
 158 1354 l 1,1,-1
 292 1247 l 1,2,-1
 185 1087 l 1,3,-1
 53 1194 l 1,0,-1
106 796 m 1,4,-1
 238 796 l 1,5,-1
 266 770 l 1,6,-1
 266 610 l 1,7,-1
 266 266 l 1,8,-1
 266 0 l 1,9,-1
 80 0 l 2,10,11
 40 0 40 0 18 -13 c 2,12,-1
 0 -27 l 1,13,-1
 -53 -27 l 1,14,-1
 53 133 l 1,15,-1
 106 133 l 1,16,-1
 106 266 l 1,17,-1
 106 610 l 1,18,-1
 106 663 l 1,19,-1
 53 663 l 1,20,-1
 27 690 l 1,21,-1
 106 796 l 1,4,-1
EndSplineSet
EndChar

StartChar: J
Encoding: 74 74 35
Width: 1507
VWidth: 5430
GlyphClass: 2
Flags: W
LayerCount: 2
Fore
SplineSet
504 796 m 5,0,-1
 504 770 l 5,1,2
 470 760 l 4,3,4
 433 749 433 749 385 713 c 132,-1,5
 337 677 337 677 301.5 602.5 c 132,-1,6
 266 528 266 528 266 399 c 4,7,8
 266 301 266 301 332.5 217 c 132,-1,9
 399 133 399 133 557 133 c 4,10,11
 607 133 607 133 646 138.5 c 132,-1,12
 685 144 685 144 714 151 c 5,13,14
 677 196 677 196 657 252 c 132,-1,15
 637 308 637 308 637 372 c 4,16,17
 637 500 637 500 676.5 580.5 c 132,-1,18
 716 661 716 661 776 705 c 132,-1,19
 836 749 836 749 896 768.5 c 132,-1,20
 956 788 956 788 994 790 c 6,21,-1
 1035 796 l 5,22,-1
 1035 770 l 5,23,-1
 998 760 l 6,24,25
 961 749 961 749 914.5 713 c 132,-1,26
 868 677 868 677 832 602.5 c 132,-1,27
 796 528 796 528 796 399 c 4,28,29
 796 301 796 301 862.5 217 c 132,-1,30
 929 133 929 133 1087 133 c 4,31,32
 1137 133 1137 133 1178 138.5 c 132,-1,33
 1219 144 1219 144 1247 151 c 5,34,-1
 1247 530 l 5,35,-1
 1247 663 l 5,36,-1
 1348 796 l 5,37,-1
 1486 796 l 5,38,-1
 1512 770 l 5,39,-1
 1433 663 l 5,40,-1
 1406 663 l 5,41,-1
 1406 530 l 5,42,-1
 1406 -266 l 1,43,-1
 1406 -663 l 1,44,-1
 1433 -663 l 1,45,-1
 1459 -690 l 1,46,-1
 1381 -796 l 1,47,-1
 1274 -796 l 1,48,-1
 1247 -770 l 1,49,-1
 1247 -266 l 1,50,-1
 1247 64 l 5,51,52
 1205 37 1205 37 1151.5 18.5 c 132,-1,53
 1098 0 1098 0 1035 0 c 4,54,55
 878 0 878 0 765 98 c 5,56,57
 720 64 720 64 653.5 32 c 132,-1,58
 587 0 587 0 504 0 c 4,59,60
 398 0 398 0 307.5 49 c 132,-1,61
 217 98 217 98 161.5 182 c 132,-1,62
 106 266 106 266 106 372 c 4,63,64
 106 500 106 500 145.5 580.5 c 132,-1,65
 185 661 185 661 245.5 705 c 132,-1,66
 306 749 306 749 365.5 768.5 c 132,-1,67
 425 788 425 788 443 790 c 6,68,-1
 504 796 l 5,0,-1
EndSplineSet
EndChar

StartChar: K
Encoding: 75 75 36
Width: 1029
VWidth: 5430
GlyphClass: 2
Flags: W
LayerCount: 2
Fore
SplineSet
158 796 m 1,0,-1
 504 796 l 1,1,-1
 817 796 l 1,2,-1
 823 796 l 1,3,-1
 956 796 l 1,4,-1
 982 770 l 1,5,-1
 902 663 l 1,6,-1
 876 663 l 1,7,-1
 876 530 l 1,8,-1
 876 -266 l 1,9,-1
 876 -663 l 1,10,-1
 902 -663 l 1,11,-1
 929 -690 l 1,12,-1
 849 -796 l 1,13,-1
 743 -796 l 1,14,-1
 716 -770 l 1,15,-1
 716 -266 l 1,16,-1
 716 64 l 1,17,18
 674 37 674 37 621 18 c 0,19,20
 567 0 567 0 504 0 c 0,21,22
 398 0 398 0 307.5 49 c 128,-1,23
 217 98 217 98 161.5 182 c 128,-1,24
 106 266 106 266 106 372 c 0,25,26
 106 476 106 476 134 546 c 128,-1,27
 162 616 162 616 204 663 c 1,28,-1
 185 663 l 2,29,30
 145 662 145 662 124 650 c 2,31,-1
 106 637 l 1,32,-1
 53 637 l 1,33,-1
 158 796 l 1,0,-1
337 663 m 1,34,35
 308 621 308 621 287 557 c 128,-1,36
 266 493 266 493 266 399 c 0,37,38
 266 301 266 301 332.5 217 c 128,-1,39
 399 133 399 133 557 133 c 0,40,41
 607 133 607 133 647 139 c 0,42,43
 687 144 687 144 716 151 c 1,44,-1
 716 530 l 1,45,-1
 716 663 l 1,46,-1
 337 663 l 1,34,35
EndSplineSet
EndChar

StartChar: L
Encoding: 76 76 37
Width: 1234
VWidth: 6516
GlyphClass: 2
Flags: W
HStem: -222 158<536 951> 796 158<191 286 400 1114> 962 25G<1140 1242>
VStem: 128 191<161 653>
LayerCount: 2
Fore
SplineSet
1178 987 m 1,0,-1
 1242 987 l 1,1,-1
 1114 796 l 1,2,-1
 605 796 l 1,3,-1
 436 796 l 1,4,5
 392 738 392 738 355.5 644.5 c 128,-1,6
 319 551 319 551 319 414 c 0,7,8
 319 200 319 200 438 68 c 0,9,10
 556 -64 556 -64 796 -64 c 0,11,12
 924 -64 924 -64 992 -40 c 128,-1,13
 1060 -16 1060 -16 1089 6 c 2,14,-1
 1114 32 l 1,15,-1
 1146 0 l 1,16,-1
 1118 -34 l 0,17,18
 1089 -66 1089 -66 1035 -111 c 128,-1,19
 981 -156 981 -156 904.5 -189 c 128,-1,20
 828 -222 828 -222 733 -222 c 0,21,22
 575 -222 575 -222 435.5 -157.5 c 128,-1,23
 296 -93 296 -93 212 41 c 0,24,25
 128 174 128 174 128 382 c 0,26,27
 128 532 128 532 174 632.5 c 128,-1,28
 220 733 220 733 286 796 c 1,29,-1
 222 796 l 2,30,31
 174 796 174 796 150 779 c 2,32,-1
 128 765 l 1,33,-1
 64 765 l 1,34,-1
 191 956 l 1,35,-1
 245 956 l 1,36,-1
 605 956 l 1,37,-1
 688 956 l 2,38,39
 768 956 768 956 879 956 c 128,-1,40
 990 956 990 956 1082 956 c 0,41,42
 1130 956 1130 956 1140 965 c 2,43,-1
 1178 987 l 1,0,-1
EndSplineSet
EndChar

StartChar: M
Encoding: 77 77 38
Width: 1507
VWidth: 5430
GlyphClass: 2
Flags: W
LayerCount: 2
Fore
SplineSet
106 796 m 1,0,-1
 238 796 l 1,1,-1
 266 770 l 1,2,-1
 266 733 l 1,3,4
 308 760 308 760 361 778 c 128,-1,5
 414 796 414 796 477 796 c 0,6,7
 634 796 634 796 749 698 c 1,8,9
 794 732 794 732 859.5 764 c 128,-1,10
 925 796 925 796 1009 796 c 0,11,12
 1115 796 1115 796 1205 747 c 128,-1,13
 1295 698 1295 698 1350 614 c 0,14,15
 1405 531 1405 531 1406 425 c 0,16,17
 1406 321 1406 321 1378.5 250.5 c 128,-1,18
 1351 180 1351 180 1308 133 c 1,19,-1
 1327 133 l 2,20,21
 1367 133 1367 133 1386 146 c 2,22,-1
 1406 158 l 1,23,-1
 1459 158 l 1,24,-1
 1354 0 l 1,25,-1
 266 0 l 1,26,-1
 80 0 l 2,27,28
 40 0 40 0 18 -13 c 2,29,-1
 0 -27 l 1,30,-1
 -53 -27 l 1,31,-1
 53 133 l 1,32,-1
 106 133 l 1,33,-1
 106 266 l 1,34,-1
 106 610 l 1,35,-1
 106 663 l 1,36,-1
 53 663 l 1,37,-1
 27 690 l 1,38,-1
 106 796 l 1,0,-1
425 663 m 0,39,40
 375 663 375 663 335 658 c 0,41,42
 296 652 296 652 266 644 c 1,43,-1
 266 610 l 1,44,-1
 266 266 l 1,45,-1
 266 133 l 1,46,-1
 644 133 l 1,47,48
 673 175 673 175 694.5 238.5 c 128,-1,49
 716 302 716 302 716 399 c 0,50,51
 716 500 716 500 649.5 581.5 c 128,-1,52
 583 663 583 663 425 663 c 0,39,40
956 663 m 0,53,54
 906 663 906 663 867 658 c 0,55,56
 828 652 828 652 799 644 c 1,57,58
 836 599 836 599 856 543.5 c 128,-1,59
 876 488 876 488 876 425 c 0,60,61
 876 321 876 321 848 250.5 c 128,-1,62
 820 180 820 180 778 133 c 1,63,-1
 1175 133 l 1,64,65
 1204 175 1204 175 1225.5 238.5 c 128,-1,66
 1247 302 1247 302 1247 399 c 0,67,68
 1247 500 1247 500 1180.5 581.5 c 128,-1,69
 1114 663 1114 663 956 663 c 0,53,54
EndSplineSet
EndChar

StartChar: N
Encoding: 78 78 39
Width: 1507
VWidth: 5430
GlyphClass: 2
Flags: W
LayerCount: 2
Fore
SplineSet
106 796 m 1,0,-1
 238 796 l 1,1,-1
 266 770 l 1,2,-1
 266 733 l 1,3,4
 308 760 308 760 361 778 c 128,-1,5
 414 796 414 796 477 796 c 0,6,7
 634 796 634 796 749 698 c 1,8,9
 794 732 794 732 859.5 764 c 128,-1,10
 925 796 925 796 1009 796 c 0,11,12
 1115 796 1115 796 1205 747 c 128,-1,13
 1295 698 1295 698 1350 614 c 0,14,15
 1405 531 1405 531 1406 425 c 0,16,17
 1406 297 1406 297 1366.5 216 c 128,-1,18
 1327 135 1327 135 1267.5 91.5 c 128,-1,19
 1208 48 1208 48 1147.5 27.5 c 0,20,21
 1086 7 1086 7 1048 2 c 2,22,-1
 1009 0 l 1,23,-1
 1009 27 l 1,24,-1
 1046 37 l 0,25,26
 1083 48 1083 48 1129 84 c 128,-1,27
 1175 120 1175 120 1211 194 c 128,-1,28
 1247 268 1247 268 1247 399 c 0,29,30
 1247 500 1247 500 1180.5 581.5 c 128,-1,31
 1114 663 1114 663 956 663 c 0,32,33
 906 663 906 663 867 658 c 0,34,35
 828 652 828 652 799 644 c 1,36,37
 836 599 836 599 856 543.5 c 128,-1,38
 876 488 876 488 876 425 c 0,39,40
 876 297 876 297 836 216 c 128,-1,41
 796 135 796 135 736.5 91.5 c 128,-1,42
 677 48 677 48 617 27.5 c 0,43,44
 558 7 558 7 518 2 c 2,45,-1
 477 0 l 1,46,-1
 477 27 l 1,47,-1
 512 37 l 2,48,49
 549 48 549 48 596.5 84 c 128,-1,50
 644 120 644 120 680 194 c 128,-1,51
 716 268 716 268 716 399 c 0,52,53
 716 500 716 500 650 581 c 0,54,55
 585 663 585 663 425 663 c 0,56,57
 375 663 375 663 335 658 c 0,58,59
 296 652 296 652 266 644 c 1,60,-1
 266 610 l 1,61,-1
 266 266 l 1,62,-1
 266 0 l 1,63,-1
 80 0 l 2,64,65
 40 0 40 0 18 -13 c 2,66,-1
 0 -27 l 1,67,-1
 -53 -27 l 1,68,-1
 53 133 l 1,69,-1
 106 133 l 1,70,-1
 106 266 l 1,71,-1
 106 610 l 1,72,-1
 106 663 l 1,73,-1
 53 663 l 1,74,-1
 27 690 l 1,75,-1
 106 796 l 1,0,-1
EndSplineSet
EndChar

StartChar: O
Encoding: 79 79 40
Width: 445
VWidth: 5430
GlyphClass: 2
Flags: W
LayerCount: 2
Fore
SplineSet
53 1114 m 1,0,1
 71 1160 l 0,2,3
 89 1205 89 1205 123 1261.5 c 128,-1,4
 157 1318 157 1318 199.5 1362 c 128,-1,5
 242 1406 242 1406 292 1406 c 0,6,7
 358 1406 358 1406 392 1366 c 0,8,9
 428 1326 428 1326 441 1287 c 2,10,-1
 452 1247 l 1,11,-1
 399 1220 l 1,12,-1
 393 1235 l 2,13,14
 391 1248 391 1248 368 1261 c 128,-1,15
 345 1274 345 1274 292 1274 c 0,16,17
 252 1274 252 1274 218 1246.5 c 128,-1,18
 184 1219 184 1219 159.5 1181.5 c 128,-1,19
 135 1144 135 1144 120 1117 c 2,20,-1
 106 1087 l 1,21,-1
 53 1114 l 1,0,1
106 796 m 1,22,-1
 238 796 l 1,23,-1
 266 770 l 1,24,-1
 266 610 l 1,25,-1
 266 266 l 1,26,-1
 266 0 l 1,27,-1
 80 0 l 2,28,29
 40 0 40 0 18 -13 c 2,30,-1
 0 -27 l 1,31,-1
 -53 -27 l 1,32,-1
 53 133 l 1,33,-1
 106 133 l 1,34,-1
 106 266 l 1,35,-1
 106 610 l 1,36,-1
 106 663 l 1,37,-1
 53 663 l 1,38,-1
 27 690 l 1,39,-1
 106 796 l 1,22,-1
EndSplineSet
EndChar

StartChar: P
Encoding: 80 80 41
Width: 975
VWidth: 5430
GlyphClass: 2
Flags: W
LayerCount: 2
Fore
SplineSet
106 796 m 1,0,-1
 238 796 l 1,1,-1
 266 770 l 1,2,-1
 266 733 l 1,3,4
 308 760 308 760 361 778 c 128,-1,5
 414 796 414 796 477 796 c 0,6,7
 583 796 583 796 674 747 c 128,-1,8
 765 698 765 698 820 614 c 0,9,10
 875 531 875 531 876 425 c 0,11,12
 876 321 876 321 848 250.5 c 128,-1,13
 820 180 820 180 778 133 c 1,14,-1
 796 133 l 2,15,16
 836 133 836 133 854 146 c 2,17,-1
 876 158 l 1,18,-1
 929 158 l 1,19,-1
 823 0 l 1,20,-1
 477 0 l 1,21,-1
 266 0 l 1,22,-1
 266 -266 l 1,23,-1
 266 -663 l 1,24,-1
 292 -663 l 1,25,-1
 319 -690 l 1,26,-1
 238 -796 l 1,27,-1
 133 -796 l 1,28,-1
 106 -770 l 1,29,-1
 106 -266 l 1,30,-1
 106 610 l 1,31,-1
 106 663 l 1,32,-1
 53 663 l 1,33,-1
 27 690 l 1,34,-1
 106 796 l 1,0,-1
425 663 m 0,35,36
 375 663 375 663 335 658 c 0,37,38
 296 652 296 652 266 644 c 1,39,-1
 266 610 l 1,40,-1
 266 133 l 1,41,-1
 644 133 l 1,42,43
 673 175 673 175 694.5 238.5 c 128,-1,44
 716 302 716 302 716 399 c 0,45,46
 716 500 716 500 649.5 581.5 c 128,-1,47
 583 663 583 663 425 663 c 0,35,36
EndSplineSet
EndChar

StartChar: Q
Encoding: 81 81 42
Width: 1029
VWidth: 5430
GlyphClass: 2
Flags: W
LayerCount: 2
Fore
SplineSet
743 1592 m 1,0,-1
 849 1592 l 1,1,-1
 876 1566 l 1,2,-1
 876 1062 l 1,3,-1
 876 266 l 1,4,-1
 876 133 l 1,5,-1
 902 133 l 2,6,7
 942 133 942 133 960 146 c 2,8,-1
 982 158 l 1,9,-1
 1035 158 l 1,10,-1
 929 0 l 1,11,-1
 876 0 l 1,12,-1
 716 0 l 1,13,-1
 716 64 l 1,14,15
 674 37 674 37 621 18 c 0,16,17
 567 0 567 0 504 0 c 0,18,19
 398 0 398 0 307.5 49 c 128,-1,20
 217 98 217 98 161.5 182 c 128,-1,21
 106 266 106 266 106 372 c 0,22,23
 106 476 106 476 134 546 c 128,-1,24
 162 616 162 616 204 663 c 1,25,-1
 185 663 l 2,26,27
 145 662 145 662 124 650 c 2,28,-1
 106 637 l 1,29,-1
 53 637 l 1,30,-1
 158 796 l 1,31,-1
 504 796 l 1,32,-1
 716 796 l 1,33,-1
 716 1062 l 1,34,-1
 716 1459 l 1,35,36
 676 1458 676 1458 643 1433 c 2,37,-1
 610 1406 l 1,38,-1
 584 1433 l 1,39,-1
 743 1592 l 1,0,-1
337 663 m 1,40,41
 308 621 308 621 287 557 c 128,-1,42
 266 493 266 493 266 399 c 0,43,44
 266 301 266 301 332.5 217 c 128,-1,45
 399 133 399 133 557 133 c 0,46,47
 607 133 607 133 647 139 c 0,48,49
 687 144 687 144 716 151 c 1,50,-1
 716 266 l 1,51,-1
 716 663 l 1,52,-1
 337 663 l 1,40,41
EndSplineSet
EndChar

StartChar: R
Encoding: 82 82 43
Width: 975
VWidth: 5430
GlyphClass: 2
Flags: W
LayerCount: 2
Fore
SplineSet
106 796 m 1,0,-1
 238 796 l 1,1,-1
 266 770 l 1,2,-1
 266 733 l 1,3,4
 308 760 308 760 361 778 c 128,-1,5
 414 796 414 796 477 796 c 0,6,7
 583 796 583 796 674 747 c 128,-1,8
 765 698 765 698 820 614 c 0,9,10
 875 531 875 531 876 425 c 0,11,12
 876 297 876 297 836 216 c 128,-1,13
 796 135 796 135 736.5 91.5 c 128,-1,14
 677 48 677 48 617 27.5 c 0,15,16
 558 7 558 7 518 2 c 2,17,-1
 477 0 l 1,18,-1
 477 27 l 1,19,-1
 512 37 l 0,20,21
 549 48 549 48 596.5 84 c 128,-1,22
 644 120 644 120 680 194 c 128,-1,23
 716 268 716 268 716 399 c 0,24,25
 716 500 716 500 650 581 c 0,26,27
 585 663 585 663 425 663 c 0,28,29
 375 663 375 663 335 658 c 0,30,31
 296 652 296 652 266 644 c 1,32,-1
 266 610 l 1,33,-1
 266 266 l 1,34,-1
 266 0 l 1,35,-1
 80 0 l 2,36,37
 40 0 40 0 18 -13 c 2,38,-1
 0 -27 l 1,39,-1
 -53 -27 l 1,40,-1
 53 133 l 1,41,-1
 106 133 l 1,42,-1
 106 266 l 1,43,-1
 106 610 l 1,44,-1
 106 663 l 1,45,-1
 53 663 l 1,46,-1
 27 690 l 1,47,-1
 106 796 l 1,0,-1
EndSplineSet
EndChar

StartChar: S
Encoding: 83 83 44
Width: 975
VWidth: 5430
GlyphClass: 2
Flags: W
LayerCount: 2
Fore
SplineSet
743 1220 m 0,0,1
 743 1100 743 1100 695.5 1015.5 c 128,-1,2
 648 931 648 931 576 865 c 128,-1,3
 504 799 504 799 432.5 734 c 128,-1,4
 361 669 361 669 313.5 589 c 128,-1,5
 266 509 266 509 266 399 c 0,6,7
 266 279 266 279 332.5 206 c 128,-1,8
 399 133 399 133 557 133 c 0,9,10
 677 133 677 133 723.5 185.5 c 128,-1,11
 770 238 770 238 770 399 c 0,12,13
 770 465 770 465 730 512 c 0,14,15
 689 560 689 560 650 587 c 2,16,-1
 610 610 l 1,17,-1
 610 637 l 1,18,-1
 743 716 l 1,19,-1
 774 681 l 0,20,21
 808 647 808 647 842 582 c 0,22,23
 876 518 876 518 876 425 c 0,24,25
 876 345 876 345 841 269.5 c 128,-1,26
 806 194 806 194 749 132.5 c 128,-1,27
 692 71 692 71 628.5 35.5 c 128,-1,28
 565 0 565 0 504 0 c 0,29,30
 398 0 398 0 307.5 37.5 c 128,-1,31
 217 75 217 75 161.5 156.5 c 128,-1,32
 106 238 106 238 106 372 c 0,33,34
 106 476 106 476 156.5 549.5 c 128,-1,35
 207 623 207 623 282.5 687 c 128,-1,36
 358 751 358 751 433.5 820 c 128,-1,37
 509 889 509 889 559.5 978 c 128,-1,38
 610 1067 610 1067 610 1194 c 0,39,40
 610 1314 610 1314 590.5 1377.5 c 128,-1,41
 571 1441 571 1441 552 1464 c 2,42,-1
 530 1486 l 1,43,-1
 530 1512 l 1,44,-1
 663 1592 l 1,45,-1
 685 1544 l 2,46,47
 703 1494 703 1494 723 1410 c 128,-1,48
 743 1326 743 1326 743 1220 c 0,0,1
EndSplineSet
EndChar

StartChar: T
Encoding: 84 84 45
Width: 975
VWidth: 5430
GlyphClass: 2
Flags: W
HStem: -796 27G<107 258> 0 27<477 512> 663 133<277 625>
VStem: 106 158<-663 657> 716 158<185 568>
LayerCount: 2
Fore
SplineSet
106 796 m 1,0,-1
 238 796 l 1,1,-1
 266 770 l 1,2,-1
 266 733 l 1,3,4
 308 760 308 760 361 778 c 128,-1,5
 414 796 414 796 477 796 c 0,6,7
 583 796 583 796 674 747 c 128,-1,8
 765 698 765 698 820 614 c 0,9,10
 875 531 875 531 876 425 c 0,11,12
 876 297 876 297 836 216 c 128,-1,13
 796 135 796 135 736.5 91.5 c 128,-1,14
 677 48 677 48 617 27.5 c 0,15,16
 558 7 558 7 518 2 c 2,17,-1
 477 0 l 1,18,-1
 477 27 l 1,19,-1
 512 37 l 0,20,21
 549 48 549 48 596.5 84 c 128,-1,22
 644 120 644 120 680 194 c 128,-1,23
 716 268 716 268 716 399 c 0,24,25
 716 500 716 500 650 581 c 0,26,27
 585 663 585 663 425 663 c 0,28,29
 375 663 375 663 335 658 c 0,30,31
 296 652 296 652 266 644 c 1,32,-1
 266 610 l 1,33,-1
 266 -266 l 1,34,-1
 266 -663 l 1,35,-1
 292 -663 l 1,36,-1
 319 -690 l 1,37,-1
 238 -796 l 1,38,-1
 133 -796 l 1,39,-1
 106 -770 l 1,40,-1
 106 -266 l 1,41,-1
 106 610 l 1,42,-1
 106 663 l 1,43,-1
 53 663 l 1,44,-1
 27 690 l 1,45,-1
 106 796 l 1,0,-1
EndSplineSet
EndChar

StartChar: U
Encoding: 85 85 46
Width: 445
VWidth: 5430
GlyphClass: 2
Flags: W
LayerCount: 2
Fore
SplineSet
106 1087 m 1,0,-1
 53 1114 l 1,1,2
 91 1146 l 0,3,4
 128 1175 128 1175 165 1224 c 0,5,6
 202 1273 202 1273 202 1327 c 256,7,8
 202 1380 202 1380 178.5 1409 c 128,-1,9
 155 1438 155 1438 130 1449 c 2,10,-1
 106 1459 l 1,11,-1
 130 1508 l 1,12,-1
 158 1505 l 2,13,14
 187 1503 187 1503 225 1491 c 128,-1,15
 263 1479 263 1479 291 1447 c 128,-1,16
 319 1415 319 1415 319 1354 c 0,17,18
 319 1304 319 1304 287 1257 c 128,-1,19
 255 1210 255 1210 212 1171.5 c 128,-1,20
 169 1133 169 1133 155 1122 c 2,21,-1
 106 1087 l 1,0,-1
106 796 m 1,22,-1
 238 796 l 1,23,-1
 266 770 l 1,24,-1
 266 610 l 1,25,-1
 266 266 l 1,26,-1
 266 0 l 1,27,-1
 80 0 l 2,28,29
 40 0 40 0 18 -13 c 2,30,-1
 0 -27 l 1,31,-1
 -53 -27 l 1,32,-1
 53 133 l 1,33,-1
 106 133 l 1,34,-1
 106 266 l 1,35,-1
 106 610 l 1,36,-1
 106 663 l 1,37,-1
 53 663 l 1,38,-1
 27 690 l 1,39,-1
 106 796 l 1,22,-1
EndSplineSet
EndChar

StartChar: V
Encoding: 86 86 47
Width: 1507
VWidth: 5430
GlyphClass: 2
Flags: W
LayerCount: 2
Fore
SplineSet
133 1592 m 1,0,-1
 238 1592 l 1,1,-1
 266 1566 l 1,2,-1
 266 1062 l 1,3,-1
 266 733 l 1,4,5
 308 760 308 760 361 778 c 128,-1,6
 414 796 414 796 477 796 c 0,7,8
 634 796 634 796 749 698 c 1,9,10
 794 732 794 732 859.5 764 c 128,-1,11
 925 796 925 796 1009 796 c 0,12,13
 1115 796 1115 796 1205 747 c 128,-1,14
 1295 698 1295 698 1350 614 c 0,15,16
 1405 531 1405 531 1406 425 c 0,17,18
 1406 321 1406 321 1378.5 250.5 c 128,-1,19
 1351 180 1351 180 1308 133 c 1,20,-1
 1327 133 l 2,21,22
 1367 133 1367 133 1386 146 c 2,23,-1
 1406 158 l 1,24,-1
 1459 158 l 1,25,-1
 1354 0 l 1,26,-1
 266 0 l 1,27,-1
 80 0 l 2,28,29
 40 0 40 0 18 -13 c 2,30,-1
 0 -27 l 1,31,-1
 -53 -27 l 1,32,-1
 53 133 l 1,33,-1
 106 133 l 1,34,-1
 106 266 l 1,35,-1
 106 1062 l 1,36,-1
 106 1459 l 1,37,38
 66 1458 66 1458 34 1433 c 2,39,-1
 0 1406 l 1,40,-1
 -27 1433 l 1,41,-1
 133 1592 l 1,0,-1
425 663 m 0,42,43
 375 663 375 663 335 658 c 0,44,45
 296 652 296 652 266 644 c 1,46,-1
 266 266 l 1,47,-1
 266 133 l 1,48,-1
 644 133 l 1,49,50
 673 175 673 175 694.5 238.5 c 128,-1,51
 716 302 716 302 716 399 c 0,52,53
 716 500 716 500 649.5 581.5 c 128,-1,54
 583 663 583 663 425 663 c 0,42,43
956 663 m 0,55,56
 906 663 906 663 867 658 c 0,57,58
 828 652 828 652 799 644 c 1,59,60
 836 599 836 599 856 543.5 c 128,-1,61
 876 488 876 488 876 425 c 0,62,63
 876 321 876 321 848 250.5 c 128,-1,64
 820 180 820 180 778 133 c 1,65,-1
 1175 133 l 1,66,67
 1204 175 1204 175 1225.5 238.5 c 128,-1,68
 1247 302 1247 302 1247 399 c 0,69,70
 1247 500 1247 500 1180.5 581.5 c 128,-1,71
 1114 663 1114 663 956 663 c 0,55,56
EndSplineSet
EndChar

StartChar: W
Encoding: 87 87 48
Width: 975
VWidth: 5430
GlyphClass: 2
Flags: W
LayerCount: 2
Fore
SplineSet
106 796 m 1,0,-1
 238 796 l 1,1,-1
 266 770 l 1,2,-1
 266 733 l 1,3,4
 308 760 308 760 361 778 c 128,-1,5
 414 796 414 796 477 796 c 0,6,7
 583 796 583 796 674 747 c 128,-1,8
 765 698 765 698 820 614 c 0,9,10
 875 531 875 531 876 425 c 0,11,12
 876 321 876 321 848 250.5 c 128,-1,13
 820 180 820 180 778 133 c 1,14,-1
 796 133 l 2,15,16
 836 133 836 133 854 146 c 2,17,-1
 876 158 l 1,18,-1
 929 158 l 1,19,-1
 823 0 l 1,20,-1
 477 0 l 1,21,-1
 266 0 l 1,22,-1
 80 0 l 2,23,24
 40 0 40 0 18 -13 c 2,25,-1
 0 -27 l 1,26,-1
 -53 -27 l 1,27,-1
 53 133 l 1,28,-1
 106 133 l 1,29,-1
 106 266 l 1,30,-1
 106 610 l 1,31,-1
 106 663 l 1,32,-1
 53 663 l 1,33,-1
 27 690 l 1,34,-1
 106 796 l 1,0,-1
425 663 m 0,35,36
 375 663 375 663 335 658 c 0,37,38
 296 652 296 652 266 644 c 1,39,-1
 266 610 l 1,40,-1
 266 266 l 1,41,-1
 266 133 l 1,42,-1
 644 133 l 1,43,44
 673 175 673 175 694.5 238.5 c 128,-1,45
 716 302 716 302 716 399 c 0,46,47
 716 500 716 500 649.5 581.5 c 128,-1,48
 583 663 583 663 425 663 c 0,35,36
EndSplineSet
EndChar

StartChar: X
Encoding: 88 88 49
Width: 1029
VWidth: 5430
GlyphClass: 2
Flags: W
LayerCount: 2
Fore
SplineSet
158 796 m 1,0,-1
 504 796 l 1,1,-1
 817 796 l 1,2,-1
 823 796 l 1,3,-1
 956 796 l 1,4,-1
 982 770 l 1,5,-1
 902 663 l 1,6,-1
 876 663 l 1,7,-1
 876 530 l 1,8,-1
 876 -266 l 1,9,-1
 876 -663 l 1,10,-1
 902 -663 l 1,11,-1
 929 -690 l 1,12,-1
 849 -796 l 1,13,-1
 743 -796 l 1,14,-1
 716 -770 l 1,15,-1
 716 -266 l 1,16,-1
 716 64 l 1,17,18
 674 37 674 37 621 18 c 0,19,20
 567 0 567 0 504 0 c 0,21,22
 502 0 502 0 496 0 c 0,23,24
 483 -71 483 -71 450 -122 c 128,-1,25
 417 -173 417 -173 381 -215 c 128,-1,26
 345 -257 345 -257 318.5 -305 c 128,-1,27
 292 -353 292 -353 292 -425 c 0,28,29
 292 -505 292 -505 335 -558 c 0,30,31
 378 -611 378 -611 477 -610 c 0,32,33
 558 -610 558 -610 598 -584 c 2,34,-1
 637 -557 l 1,35,-1
 663 -584 l 1,36,-1
 632 -616 l 0,37,38
 603 -650 603 -650 553.5 -683 c 128,-1,39
 504 -716 504 -716 452 -716 c 0,40,41
 313 -716 313 -716 235.5 -640.5 c 128,-1,42
 158 -565 158 -565 158 -425 c 0,43,44
 158 -350 158 -350 186.5 -306.5 c 128,-1,45
 215 -263 215 -263 255 -224 c 128,-1,46
 295 -185 295 -185 328 -130 c 0,47,48
 360 -75 360 -75 369 22 c 1,49,50
 257 62 257 62 181.5 155 c 128,-1,51
 106 248 106 248 106 372 c 0,52,53
 106 476 106 476 134 546 c 128,-1,54
 162 616 162 616 204 663 c 1,55,-1
 185 663 l 2,56,57
 145 662 145 662 124 650 c 2,58,-1
 106 637 l 1,59,-1
 53 637 l 1,60,-1
 158 796 l 1,0,-1
337 663 m 1,61,62
 308 621 308 621 287 557 c 128,-1,63
 266 493 266 493 266 399 c 0,64,65
 266 301 266 301 332.5 217 c 128,-1,66
 399 133 399 133 557 133 c 0,67,68
 607 133 607 133 647 139 c 0,69,70
 687 144 687 144 716 151 c 1,71,-1
 716 530 l 1,72,-1
 716 663 l 1,73,-1
 337 663 l 1,61,62
EndSplineSet
EndChar

StartChar: Y
Encoding: 89 89 50
Width: 975
VWidth: 5430
GlyphClass: 2
Flags: W
LayerCount: 2
Fore
SplineSet
504 796 m 1,0,-1
 504 770 l 1,1,2
 470 760 l 0,3,4
 433 749 433 749 385 713 c 128,-1,5
 337 677 337 677 301.5 602.5 c 128,-1,6
 266 528 266 528 266 399 c 0,7,8
 266 301 266 301 332.5 217 c 128,-1,9
 399 133 399 133 557 133 c 0,10,11
 607 133 607 133 647 139 c 0,12,13
 687 144 687 144 716 151 c 1,14,-1
 716 266 l 1,15,-1
 716 530 l 1,16,-1
 716 663 l 1,17,-1
 817 796 l 1,18,-1
 956 796 l 1,19,-1
 982 770 l 1,20,-1
 902 663 l 1,21,-1
 876 663 l 1,22,-1
 876 530 l 1,23,-1
 876 266 l 1,24,-1
 876 133 l 1,25,-1
 902 133 l 2,26,27
 942 133 942 133 960 146 c 2,28,-1
 982 158 l 1,29,-1
 1035 158 l 1,30,-1
 929 0 l 1,31,-1
 876 0 l 1,32,-1
 716 0 l 1,33,-1
 716 64 l 1,34,35
 674 37 674 37 621 18 c 0,36,37
 567 0 567 0 504 0 c 0,38,39
 398 0 398 0 307.5 49 c 128,-1,40
 217 98 217 98 161.5 182 c 128,-1,41
 106 266 106 266 106 372 c 0,42,43
 106 500 106 500 145.5 580.5 c 128,-1,44
 185 661 185 661 245.5 705 c 128,-1,45
 306 749 306 749 365.5 768.5 c 128,-1,46
 425 788 425 788 443 790 c 2,47,-1
 504 796 l 1,0,-1
EndSplineSet
EndChar

StartChar: Z
Encoding: 90 90 51
Width: 975
VWidth: 5430
GlyphClass: 2
Flags: W
LayerCount: 2
Fore
SplineSet
663 1592 m 1,0,1
 685 1544 l 0,2,3
 703 1494 703 1494 723 1410.5 c 128,-1,4
 743 1327 743 1327 743 1220 c 0,5,6
 743 1100 743 1100 695.5 1015.5 c 128,-1,7
 648 931 648 931 576 865 c 128,-1,8
 504 799 504 799 432.5 734 c 128,-1,9
 361 669 361 669 313.5 589 c 128,-1,10
 266 509 266 509 266 399 c 0,11,12
 266 279 266 279 332.5 206 c 128,-1,13
 399 133 399 133 557 133 c 0,14,15
 677 133 677 133 723.5 185.5 c 128,-1,16
 770 238 770 238 770 399 c 0,17,18
 770 465 770 465 730 512 c 0,19,20
 689 560 689 560 650 587 c 2,21,-1
 610 610 l 1,22,-1
 610 637 l 1,23,-1
 743 716 l 1,24,-1
 774 681 l 2,25,26
 808 647 808 647 842 582 c 0,27,28
 876 518 876 518 876 425 c 0,29,30
 876 330 876 330 827 239.5 c 128,-1,31
 778 149 778 149 702 86 c 128,-1,32
 626 23 626 23 552 5 c 1,33,34
 539 -70 539 -70 505.5 -119.5 c 128,-1,35
 472 -169 472 -169 435.5 -212 c 128,-1,36
 399 -255 399 -255 372 -304 c 128,-1,37
 345 -353 345 -353 345 -425 c 0,38,39
 345 -505 345 -505 388.5 -557.5 c 128,-1,40
 432 -610 432 -610 530 -610 c 0,41,42
 610 -610 610 -610 650 -584 c 2,43,-1
 690 -557 l 1,44,-1
 716 -584 l 1,45,-1
 687 -616 l 2,46,47
 655 -650 655 -650 606 -683 c 0,48,49
 556 -716 556 -716 504 -716 c 0,50,51
 365 -716 365 -716 288.5 -640.5 c 128,-1,52
 212 -565 212 -565 212 -425 c 0,53,54
 212 -354 212 -354 240 -310 c 128,-1,55
 268 -266 268 -266 305 -227 c 128,-1,56
 342 -188 342 -188 375.5 -137 c 128,-1,57
 409 -86 409 -86 419 5 c 1,58,59
 289 23 289 23 197.5 111 c 128,-1,60
 106 199 106 199 106 372 c 0,61,62
 106 476 106 476 156.5 549.5 c 128,-1,63
 207 623 207 623 282.5 687 c 128,-1,64
 358 751 358 751 433.5 820 c 128,-1,65
 509 889 509 889 559.5 978 c 128,-1,66
 610 1067 610 1067 610 1194 c 0,67,68
 610 1314 610 1314 590.5 1377.5 c 128,-1,69
 571 1441 571 1441 552 1464 c 2,70,-1
 530 1486 l 1,71,-1
 530 1512 l 1,72,-1
 663 1592 l 1,0,1
EndSplineSet
EndChar

StartChar: underscore
Encoding: 95 95 52
Width: 445
VWidth: 5430
GlyphClass: 2
Flags: W
LayerCount: 2
Fore
SplineSet
106 796 m 1,0,-1
 238 796 l 1,1,-1
 266 770 l 1,2,-1
 266 610 l 1,3,-1
 266 266 l 1,4,-1
 266 0 l 1,5,-1
 80 0 l 2,6,7
 40 0 40 0 18 -13 c 2,8,-1
 0 -27 l 1,9,-1
 -53 -27 l 1,10,-1
 53 133 l 1,11,-1
 106 133 l 1,12,-1
 106 266 l 1,13,-1
 106 610 l 1,14,-1
 106 663 l 1,15,-1
 53 663 l 1,16,-1
 27 690 l 1,17,-1
 106 796 l 1,0,-1
EndSplineSet
EndChar

StartChar: a
Encoding: 97 97 53
Width: 445
VWidth: 5430
GlyphClass: 2
Flags: W
LayerCount: 2
Fore
SplineSet
212 1194 m 1,0,-1
 319 1354 l 1,1,-1
 452 1247 l 1,2,-1
 345 1087 l 1,3,-1
 212 1194 l 1,0,-1
-106 1194 m 1,4,-1
 0 1354 l 1,5,-1
 133 1247 l 1,6,-1
 27 1087 l 1,7,-1
 -106 1194 l 1,4,-1
53 1354 m 1,8,-1
 158 1512 l 1,9,-1
 292 1406 l 1,10,-1
 185 1247 l 1,11,-1
 53 1354 l 1,8,-1
106 796 m 1,12,-1
 238 796 l 1,13,-1
 266 770 l 1,14,-1
 266 610 l 1,15,-1
 266 266 l 1,16,-1
 266 0 l 1,17,-1
 80 0 l 2,18,19
 40 0 40 0 18 -13 c 2,20,-1
 0 -27 l 1,21,-1
 -53 -27 l 1,22,-1
 53 133 l 1,23,-1
 106 133 l 1,24,-1
 106 266 l 1,25,-1
 106 610 l 1,26,-1
 106 663 l 1,27,-1
 53 663 l 1,28,-1
 27 690 l 1,29,-1
 106 796 l 1,12,-1
EndSplineSet
Substitution2: "vowel diacritic tengwa" a.short
EndChar

StartChar: b
Encoding: 98 98 54
Width: 1507
VWidth: 5430
GlyphClass: 2
Flags: W
LayerCount: 2
Fore
SplineSet
106 796 m 1,0,-1
 238 796 l 1,1,-1
 266 770 l 1,2,-1
 266 733 l 1,3,4
 308 760 308 760 361 778 c 128,-1,5
 414 796 414 796 477 796 c 0,6,7
 634 796 634 796 749 698 c 1,8,9
 794 732 794 732 859.5 764 c 128,-1,10
 925 796 925 796 1009 796 c 0,11,12
 1115 796 1115 796 1205 747 c 128,-1,13
 1295 698 1295 698 1350 614 c 0,14,15
 1405 531 1405 531 1406 425 c 0,16,17
 1406 321 1406 321 1378.5 250.5 c 128,-1,18
 1351 180 1351 180 1308 133 c 1,19,-1
 1327 133 l 2,20,21
 1367 133 1367 133 1386 146 c 2,22,-1
 1406 158 l 1,23,-1
 1459 158 l 1,24,-1
 1354 0 l 1,25,-1
 266 0 l 1,26,-1
 266 -266 l 1,27,-1
 266 -663 l 1,28,-1
 292 -663 l 1,29,-1
 319 -690 l 1,30,-1
 238 -796 l 1,31,-1
 133 -796 l 1,32,-1
 106 -770 l 1,33,-1
 106 -266 l 1,34,-1
 106 610 l 1,35,-1
 106 663 l 1,36,-1
 53 663 l 1,37,-1
 27 690 l 1,38,-1
 106 796 l 1,0,-1
425 663 m 0,39,40
 375 663 375 663 335 658 c 0,41,42
 296 652 296 652 266 644 c 1,43,-1
 266 610 l 1,44,-1
 266 133 l 1,45,-1
 644 133 l 1,46,47
 673 175 673 175 694.5 238.5 c 128,-1,48
 716 302 716 302 716 399 c 0,49,50
 716 500 716 500 649.5 581.5 c 128,-1,51
 583 663 583 663 425 663 c 0,39,40
956 663 m 0,52,53
 906 663 906 663 867 658 c 0,54,55
 828 652 828 652 799 644 c 1,56,57
 836 599 836 599 856 543.5 c 128,-1,58
 876 488 876 488 876 425 c 0,59,60
 876 321 876 321 848 250.5 c 128,-1,61
 820 180 820 180 778 133 c 1,62,-1
 1175 133 l 1,63,64
 1204 175 1204 175 1225.5 238.5 c 128,-1,65
 1247 302 1247 302 1247 399 c 0,66,67
 1247 500 1247 500 1180.5 581.5 c 128,-1,68
 1114 663 1114 663 956 663 c 0,52,53
EndSplineSet
EndChar

StartChar: c
Encoding: 99 99 55
Width: 1029
VWidth: 5430
GlyphClass: 2
Flags: W
LayerCount: 2
Fore
SplineSet
158 796 m 1,0,-1
 504 796 l 1,1,-1
 817 796 l 1,2,-1
 823 796 l 1,3,-1
 956 796 l 1,4,-1
 982 770 l 1,5,-1
 902 663 l 1,6,-1
 876 663 l 1,7,-1
 876 530 l 1,8,-1
 876 -266 l 1,9,-1
 876 -663 l 1,10,-1
 902 -663 l 1,11,-1
 929 -690 l 1,12,-1
 849 -796 l 1,13,-1
 743 -796 l 1,14,-1
 716 -770 l 1,15,-1
 716 -266 l 1,16,-1
 716 64 l 1,17,18
 674 37 674 37 621 18 c 0,19,20
 567 0 567 0 504 0 c 0,21,22
 398 0 398 0 307.5 49 c 128,-1,23
 217 98 217 98 161.5 182 c 128,-1,24
 106 266 106 266 106 372 c 0,25,26
 106 476 106 476 134 546 c 128,-1,27
 162 616 162 616 204 663 c 1,28,-1
 185 663 l 2,29,30
 145 662 145 662 124 650 c 2,31,-1
 106 637 l 1,32,-1
 53 637 l 1,33,-1
 158 796 l 1,0,-1
337 663 m 1,34,35
 308 621 308 621 287 557 c 128,-1,36
 266 493 266 493 266 399 c 0,37,38
 266 301 266 301 332.5 217 c 128,-1,39
 399 133 399 133 557 133 c 0,40,41
 607 133 607 133 647 139 c 0,42,43
 687 144 687 144 716 151 c 1,44,-1
 716 530 l 1,45,-1
 716 663 l 1,46,-1
 337 663 l 1,34,35
EndSplineSet
Substitution2: "Cons vowel" c.vowel
EndChar

StartChar: d
Encoding: 100 100 56
Width: 1507
VWidth: 5430
GlyphClass: 2
Flags: W
LayerCount: 2
Fore
SplineSet
106 796 m 1,0,-1
 238 796 l 1,1,-1
 266 770 l 1,2,-1
 266 733 l 1,3,4
 308 760 308 760 361 778 c 128,-1,5
 414 796 414 796 477 796 c 0,6,7
 634 796 634 796 749 698 c 1,8,9
 794 732 794 732 859.5 764 c 128,-1,10
 925 796 925 796 1009 796 c 0,11,12
 1115 796 1115 796 1205 747 c 128,-1,13
 1295 698 1295 698 1350 614 c 0,14,15
 1405 531 1405 531 1406 425 c 0,16,17
 1406 297 1406 297 1366.5 216 c 128,-1,18
 1327 135 1327 135 1267.5 91.5 c 128,-1,19
 1208 48 1208 48 1147.5 27.5 c 0,20,21
 1086 7 1086 7 1048 2 c 2,22,-1
 1009 0 l 1,23,-1
 1009 27 l 1,24,-1
 1046 37 l 0,25,26
 1083 48 1083 48 1129 84 c 128,-1,27
 1175 120 1175 120 1211 194 c 128,-1,28
 1247 268 1247 268 1247 399 c 0,29,30
 1247 500 1247 500 1180.5 581.5 c 128,-1,31
 1114 663 1114 663 956 663 c 0,32,33
 906 663 906 663 867 658 c 0,34,35
 828 652 828 652 799 644 c 1,36,37
 836 599 836 599 856 543.5 c 128,-1,38
 876 488 876 488 876 425 c 0,39,40
 876 297 876 297 836 216 c 128,-1,41
 796 135 796 135 736.5 91.5 c 128,-1,42
 677 48 677 48 617 27.5 c 0,43,44
 558 7 558 7 518 2 c 2,45,-1
 477 0 l 1,46,-1
 477 27 l 1,47,-1
 512 37 l 2,48,49
 549 48 549 48 596.5 84 c 128,-1,50
 644 120 644 120 680 194 c 128,-1,51
 716 268 716 268 716 399 c 0,52,53
 716 500 716 500 650 581 c 0,54,55
 585 663 585 663 425 663 c 0,56,57
 375 663 375 663 335 658 c 0,58,59
 296 652 296 652 266 644 c 1,60,-1
 266 610 l 1,61,-1
 266 -266 l 1,62,-1
 266 -663 l 1,63,-1
 292 -663 l 1,64,-1
 319 -690 l 1,65,-1
 238 -796 l 1,66,-1
 133 -796 l 1,67,-1
 106 -770 l 1,68,-1
 106 -266 l 1,69,-1
 106 610 l 1,70,-1
 106 663 l 1,71,-1
 53 663 l 1,72,-1
 27 690 l 1,73,-1
 106 796 l 1,0,-1
EndSplineSet
EndChar

StartChar: e
Encoding: 101 101 57
Width: 445
VWidth: 5430
GlyphClass: 2
Flags: W
LayerCount: 2
Fore
SplineSet
106 1087 m 1,0,-1
 53 1114 l 1,1,-1
 292 1512 l 1,2,-1
 425 1459 l 1,3,-1
 399 1406 l 1,4,-1
 106 1087 l 1,0,-1
106 796 m 1,5,-1
 238 796 l 1,6,-1
 266 770 l 1,7,-1
 266 610 l 1,8,-1
 266 266 l 1,9,-1
 266 0 l 1,10,-1
 80 0 l 2,11,12
 40 0 40 0 18 -13 c 2,13,-1
 0 -27 l 1,14,-1
 -53 -27 l 1,15,-1
 53 133 l 1,16,-1
 106 133 l 1,17,-1
 106 266 l 1,18,-1
 106 610 l 1,19,-1
 106 663 l 1,20,-1
 53 663 l 1,21,-1
 27 690 l 1,22,-1
 106 796 l 1,5,-1
EndSplineSet
Substitution2: "vowel diacritic tengwa" e.short
Substitution2: "silent e" e.silent
EndChar

StartChar: f
Encoding: 102 102 58
Width: 975
VWidth: 5430
GlyphClass: 2
Flags: W
HStem: -27 27G<-53 18> 0 133<53 106 266 676 778 823> 663 133<277 625> 1406 27G<-25 32> 1406 27G<-25 32> 1567 25G<107 265>
VStem: 106 158<133 657 733 1459> 716 158<191 568>
LayerCount: 2
Fore
SplineSet
133 1592 m 1,0,-1
 238 1592 l 1,1,-1
 266 1566 l 1,2,-1
 266 1062 l 1,3,-1
 266 733 l 1,4,5
 308 760 308 760 361 778 c 128,-1,6
 414 796 414 796 477 796 c 0,7,8
 583 796 583 796 674 747 c 128,-1,9
 765 698 765 698 820 614 c 0,10,11
 875 531 875 531 876 425 c 0,12,13
 876 321 876 321 848 250.5 c 128,-1,14
 820 180 820 180 778 133 c 1,15,-1
 796 133 l 2,16,17
 836 133 836 133 854 146 c 2,18,-1
 876 158 l 1,19,-1
 929 158 l 1,20,-1
 823 0 l 1,21,-1
 477 0 l 1,22,-1
 266 0 l 1,23,-1
 80 0 l 2,24,25
 40 0 40 0 18 -13 c 2,26,-1
 0 -27 l 1,27,-1
 -53 -27 l 1,28,-1
 53 133 l 1,29,-1
 106 133 l 1,30,-1
 106 266 l 1,31,-1
 106 1062 l 1,32,-1
 106 1459 l 1,33,34
 66 1458 66 1458 34 1433 c 2,35,-1
 0 1406 l 1,36,-1
 -27 1433 l 1,37,-1
 133 1592 l 1,0,-1
425 663 m 0,38,39
 375 663 375 663 335 658 c 0,40,41
 296 652 296 652 266 644 c 1,42,-1
 266 266 l 1,43,-1
 266 133 l 1,44,-1
 644 133 l 1,45,46
 673 175 673 175 694.5 238.5 c 128,-1,47
 716 302 716 302 716 399 c 0,48,49
 716 500 716 500 649.5 581.5 c 128,-1,50
 583 663 583 663 425 663 c 0,38,39
EndSplineSet
Substitution2: "Cons vowel" f_f
EndChar

StartChar: g
Encoding: 103 103 59
Width: 1507
VWidth: 5430
GlyphClass: 2
Flags: W
LayerCount: 2
Fore
SplineSet
158 796 m 1,0,-1
 504 796 l 1,1,-1
 1035 796 l 1,2,-1
 1348 796 l 1,3,-1
 1354 796 l 1,4,-1
 1486 796 l 1,5,-1
 1512 770 l 1,6,-1
 1433 663 l 1,7,-1
 1406 663 l 1,8,-1
 1406 530 l 1,9,-1
 1406 -266 l 1,10,-1
 1406 -663 l 1,11,-1
 1433 -663 l 1,12,-1
 1459 -690 l 1,13,-1
 1381 -796 l 1,14,-1
 1274 -796 l 1,15,-1
 1247 -770 l 1,16,-1
 1247 -266 l 1,17,-1
 1247 64 l 1,18,19
 1205 37 1205 37 1151.5 18.5 c 128,-1,20
 1098 0 1098 0 1035 0 c 0,21,22
 878 0 878 0 765 98 c 1,23,24
 720 64 720 64 653.5 32 c 128,-1,25
 587 0 587 0 504 0 c 0,26,27
 398 0 398 0 307.5 49 c 128,-1,28
 217 98 217 98 161.5 182 c 128,-1,29
 106 266 106 266 106 372 c 0,30,31
 106 476 106 476 134 546 c 128,-1,32
 162 616 162 616 204 663 c 1,33,-1
 185 663 l 2,34,35
 145 662 145 662 124 650 c 2,36,-1
 106 637 l 1,37,-1
 53 637 l 1,38,-1
 158 796 l 1,0,-1
337 663 m 1,39,40
 308 621 308 621 287 557 c 128,-1,41
 266 493 266 493 266 399 c 0,42,43
 266 301 266 301 332.5 217 c 128,-1,44
 399 133 399 133 557 133 c 0,45,46
 607 133 607 133 646 138.5 c 128,-1,47
 685 144 685 144 714 151 c 1,48,49
 677 196 677 196 657 252 c 128,-1,50
 637 308 637 308 637 372 c 0,51,52
 637 476 637 476 664.5 546 c 128,-1,53
 692 616 692 616 735 663 c 1,54,-1
 337 663 l 1,39,40
868 663 m 1,55,56
 839 621 839 621 817.5 557 c 128,-1,57
 796 493 796 493 796 399 c 0,58,59
 796 301 796 301 862.5 217 c 128,-1,60
 929 133 929 133 1087 133 c 0,61,62
 1137 133 1137 133 1178 138.5 c 128,-1,63
 1219 144 1219 144 1247 151 c 1,64,-1
 1247 530 l 1,65,-1
 1247 663 l 1,66,-1
 868 663 l 1,55,56
EndSplineSet
EndChar

StartChar: h
Encoding: 104 104 60
Width: 975
VWidth: 5430
GlyphClass: 2
Flags: W
LayerCount: 2
Fore
SplineSet
80 1592 m 1,0,-1
 158 1592 l 1,1,-1
 185 1566 l 1,2,-1
 823 133 l 1,3,-1
 849 133 l 2,4,5
 889 133 889 133 911 146 c 2,6,-1
 929 158 l 1,7,-1
 982 158 l 1,8,-1
 876 0 l 1,9,-1
 823 0 l 1,10,-1
 690 0 l 1,11,-1
 414 634 l 1,12,-1
 158 0 l 1,13,-1
 80 0 l 2,14,15
 40 0 40 0 18 -13 c 2,16,-1
 0 -27 l 1,17,-1
 -53 -27 l 1,18,-1
 53 133 l 1,19,-1
 106 133 l 1,20,-1
 358 761 l 1,21,-1
 53 1459 l 1,22,23
 13 1458 13 1458 -22 1433 c 2,24,-1
 -53 1406 l 1,25,-1
 -80 1433 l 1,26,-1
 80 1592 l 1,0,-1
EndSplineSet
EndChar

StartChar: i
Encoding: 105 105 61
Width: 445
VWidth: 5430
GlyphClass: 2
Flags: W
LayerCount: 2
Fore
SplineSet
53 1194 m 1,0,-1
 158 1354 l 1,1,-1
 292 1247 l 1,2,-1
 185 1087 l 1,3,-1
 53 1194 l 1,0,-1
106 796 m 1,4,-1
 238 796 l 1,5,-1
 266 770 l 1,6,-1
 266 610 l 1,7,-1
 266 266 l 1,8,-1
 266 0 l 1,9,-1
 80 0 l 2,10,11
 40 0 40 0 18 -13 c 2,12,-1
 0 -27 l 1,13,-1
 -53 -27 l 1,14,-1
 53 133 l 1,15,-1
 106 133 l 1,16,-1
 106 266 l 1,17,-1
 106 610 l 1,18,-1
 106 663 l 1,19,-1
 53 663 l 1,20,-1
 27 690 l 1,21,-1
 106 796 l 1,4,-1
EndSplineSet
Substitution2: "vowel diacritic tengwa" i.short
EndChar

StartChar: j
Encoding: 106 106 62
Width: 1507
VWidth: 5430
GlyphClass: 2
Flags: W
LayerCount: 2
Fore
SplineSet
504 796 m 1,0,-1
 504 770 l 1,1,2
 470 760 l 0,3,4
 433 749 433 749 385 713 c 128,-1,5
 337 677 337 677 301.5 602.5 c 128,-1,6
 266 528 266 528 266 399 c 0,7,8
 266 301 266 301 332.5 217 c 128,-1,9
 399 133 399 133 557 133 c 0,10,11
 607 133 607 133 646 138.5 c 128,-1,12
 685 144 685 144 714 151 c 1,13,14
 677 196 677 196 657 252 c 128,-1,15
 637 308 637 308 637 372 c 0,16,17
 637 500 637 500 676.5 580.5 c 128,-1,18
 716 661 716 661 776 705 c 128,-1,19
 836 749 836 749 896 768.5 c 128,-1,20
 956 788 956 788 994 790 c 2,21,-1
 1035 796 l 1,22,-1
 1035 770 l 1,23,-1
 998 760 l 2,24,25
 961 749 961 749 914.5 713 c 128,-1,26
 868 677 868 677 832 602.5 c 128,-1,27
 796 528 796 528 796 399 c 0,28,29
 796 301 796 301 862.5 217 c 128,-1,30
 929 133 929 133 1087 133 c 0,31,32
 1137 133 1137 133 1178 138.5 c 128,-1,33
 1219 144 1219 144 1247 151 c 1,34,-1
 1247 530 l 1,35,-1
 1247 663 l 1,36,-1
 1348 796 l 1,37,-1
 1486 796 l 1,38,-1
 1512 770 l 1,39,-1
 1433 663 l 1,40,-1
 1406 663 l 1,41,-1
 1406 530 l 1,42,-1
 1406 -266 l 1,43,-1
 1406 -663 l 1,44,-1
 1433 -663 l 1,45,-1
 1459 -690 l 1,46,-1
 1381 -796 l 1,47,-1
 1274 -796 l 1,48,-1
 1247 -770 l 1,49,-1
 1247 -266 l 1,50,-1
 1247 64 l 1,51,52
 1205 37 1205 37 1151.5 18.5 c 128,-1,53
 1098 0 1098 0 1035 0 c 0,54,55
 878 0 878 0 765 98 c 1,56,57
 720 64 720 64 653.5 32 c 128,-1,58
 587 0 587 0 504 0 c 0,59,60
 398 0 398 0 307.5 49 c 128,-1,61
 217 98 217 98 161.5 182 c 128,-1,62
 106 266 106 266 106 372 c 0,63,64
 106 500 106 500 145.5 580.5 c 128,-1,65
 185 661 185 661 245.5 705 c 128,-1,66
 306 749 306 749 365.5 768.5 c 128,-1,67
 425 788 425 788 443 790 c 2,68,-1
 504 796 l 1,0,-1
EndSplineSet
EndChar

StartChar: k
Encoding: 107 107 63
Width: 1029
VWidth: 5430
GlyphClass: 2
Flags: W
LayerCount: 2
Fore
SplineSet
158 796 m 1,0,-1
 504 796 l 1,1,-1
 817 796 l 1,2,-1
 823 796 l 1,3,-1
 956 796 l 1,4,-1
 982 770 l 1,5,-1
 902 663 l 1,6,-1
 876 663 l 1,7,-1
 876 530 l 1,8,-1
 876 -266 l 1,9,-1
 876 -663 l 1,10,-1
 902 -663 l 1,11,-1
 929 -690 l 1,12,-1
 849 -796 l 1,13,-1
 743 -796 l 1,14,-1
 716 -770 l 1,15,-1
 716 -266 l 1,16,-1
 716 64 l 1,17,18
 674 37 674 37 621 18 c 0,19,20
 567 0 567 0 504 0 c 0,21,22
 398 0 398 0 307.5 49 c 128,-1,23
 217 98 217 98 161.5 182 c 128,-1,24
 106 266 106 266 106 372 c 0,25,26
 106 476 106 476 134 546 c 128,-1,27
 162 616 162 616 204 663 c 1,28,-1
 185 663 l 2,29,30
 145 662 145 662 124 650 c 2,31,-1
 106 637 l 1,32,-1
 53 637 l 1,33,-1
 158 796 l 1,0,-1
337 663 m 1,34,35
 308 621 308 621 287 557 c 128,-1,36
 266 493 266 493 266 399 c 0,37,38
 266 301 266 301 332.5 217 c 128,-1,39
 399 133 399 133 557 133 c 0,40,41
 607 133 607 133 647 139 c 0,42,43
 687 144 687 144 716 151 c 1,44,-1
 716 530 l 1,45,-1
 716 663 l 1,46,-1
 337 663 l 1,34,35
EndSplineSet
EndChar

StartChar: l
Encoding: 108 108 64
Width: 941
VWidth: 4965
GlyphClass: 2
Flags: W
HStem: -169 121<384 750> 607 121<146 218 297 849> 727 25G<869 946>
VStem: 97 146<98 523>
LayerCount: 2
Fore
SplineSet
897 752 m 1,0,-1
 946 752 l 1,1,-1
 849 607 l 1,2,-1
 461 607 l 1,3,-1
 333 607 l 1,4,5
 300 564 300 564 271 492 c 0,6,7
 243 420 243 420 243 315 c 0,8,9
 243 152 243 152 334 51.5 c 128,-1,10
 425 -49 425 -49 607 -49 c 0,11,12
 704 -49 704 -49 756 -30.5 c 128,-1,13
 808 -12 808 -12 830 4 c 2,14,-1
 849 23 l 1,15,-1
 874 0 l 1,16,-1
 851 -27 l 0,17,18
 829 -50 829 -50 788 -84.5 c 128,-1,19
 747 -119 747 -119 689 -144 c 0,20,21
 630 -169 630 -169 558 -169 c 0,22,23
 437 -169 437 -169 331.5 -119.5 c 128,-1,24
 226 -70 226 -70 161.5 32 c 128,-1,25
 97 134 97 134 97 292 c 0,26,27
 97 406 97 406 132 482 c 128,-1,28
 167 558 167 558 218 607 c 1,29,-1
 169 607 l 2,30,31
 132 607 132 607 114 594 c 2,32,-1
 97 582 l 1,33,-1
 49 582 l 1,34,-1
 146 728 l 1,35,-1
 187 728 l 1,36,-1
 461 728 l 1,37,-1
 524 728 l 2,38,39
 584 728 584 728 669.5 728 c 128,-1,40
 755 728 755 728 825 728 c 0,41,42
 862 728 862 728 868 735 c 2,43,-1
 897 752 l 1,0,-1
EndSplineSet
EndChar

StartChar: m
Encoding: 109 109 65
Width: 1507
VWidth: 5430
GlyphClass: 2
Flags: W
HStem: -27 27G<-53 18> 0 133<53 106 266 676 778 1206 1308 1354> 663 133<277 625 812 1156>
VStem: 106 158<133 657> 716 158<191 568> 1247 158<191 568>
LayerCount: 2
Fore
SplineSet
106 796 m 1,0,-1
 238 796 l 1,1,-1
 266 770 l 1,2,-1
 266 733 l 1,3,4
 308 760 308 760 361 778 c 128,-1,5
 414 796 414 796 477 796 c 0,6,7
 634 796 634 796 749 698 c 1,8,9
 794 732 794 732 859.5 764 c 128,-1,10
 925 796 925 796 1009 796 c 0,11,12
 1115 796 1115 796 1205 747 c 128,-1,13
 1295 698 1295 698 1350 614 c 0,14,15
 1405 531 1405 531 1406 425 c 0,16,17
 1406 321 1406 321 1378.5 250.5 c 128,-1,18
 1351 180 1351 180 1308 133 c 1,19,-1
 1327 133 l 2,20,21
 1367 133 1367 133 1386 146 c 2,22,-1
 1406 158 l 1,23,-1
 1459 158 l 1,24,-1
 1354 0 l 1,25,-1
 266 0 l 1,26,-1
 80 0 l 2,27,28
 40 0 40 0 18 -13 c 2,29,-1
 0 -27 l 1,30,-1
 -53 -27 l 1,31,-1
 53 133 l 1,32,-1
 106 133 l 1,33,-1
 106 266 l 1,34,-1
 106 610 l 1,35,-1
 106 663 l 1,36,-1
 53 663 l 1,37,-1
 27 690 l 1,38,-1
 106 796 l 1,0,-1
425 663 m 0,39,40
 375 663 375 663 335 658 c 0,41,42
 296 652 296 652 266 644 c 1,43,-1
 266 610 l 1,44,-1
 266 266 l 1,45,-1
 266 133 l 1,46,-1
 644 133 l 1,47,48
 673 175 673 175 694.5 238.5 c 128,-1,49
 716 302 716 302 716 399 c 0,50,51
 716 500 716 500 649.5 581.5 c 128,-1,52
 583 663 583 663 425 663 c 0,39,40
956 663 m 0,53,54
 906 663 906 663 867 658 c 0,55,56
 828 652 828 652 799 644 c 1,57,58
 836 599 836 599 856 543.5 c 128,-1,59
 876 488 876 488 876 425 c 0,60,61
 876 321 876 321 848 250.5 c 128,-1,62
 820 180 820 180 778 133 c 1,63,-1
 1175 133 l 1,64,65
 1204 175 1204 175 1225.5 238.5 c 128,-1,66
 1247 302 1247 302 1247 399 c 0,67,68
 1247 500 1247 500 1180.5 581.5 c 128,-1,69
 1114 663 1114 663 956 663 c 0,53,54
EndSplineSet
Substitution2: "nasal short" pren.short
Substitution2: "nasalized" pren.long
EndChar

StartChar: n
Encoding: 110 110 66
Width: 1507
VWidth: 5430
GlyphClass: 2
Flags: W
LayerCount: 2
Fore
SplineSet
4488 -331 m 1048,0,-1
106 796 m 1,1,-1
 238 796 l 1,2,-1
 266 770 l 1,3,-1
 266 733 l 1,4,5
 308 760 308 760 361 778 c 128,-1,6
 414 796 414 796 477 796 c 0,7,8
 634 796 634 796 749 698 c 1,9,10
 794 732 794 732 859.5 764 c 128,-1,11
 925 796 925 796 1009 796 c 0,12,13
 1115 796 1115 796 1205 747 c 128,-1,14
 1295 698 1295 698 1350 614 c 0,15,16
 1405 531 1405 531 1406 425 c 0,17,18
 1406 297 1406 297 1366.5 216 c 128,-1,19
 1327 135 1327 135 1267.5 91.5 c 128,-1,20
 1208 48 1208 48 1147.5 27.5 c 0,21,22
 1086 7 1086 7 1048 2 c 2,23,-1
 1009 0 l 1,24,-1
 1009 27 l 1,25,-1
 1046 37 l 0,26,27
 1083 48 1083 48 1129 84 c 128,-1,28
 1175 120 1175 120 1211 194 c 128,-1,29
 1247 268 1247 268 1247 399 c 0,30,31
 1247 500 1247 500 1180.5 581.5 c 128,-1,32
 1114 663 1114 663 956 663 c 0,33,34
 906 663 906 663 867 658 c 0,35,36
 828 652 828 652 799 644 c 1,37,38
 836 599 836 599 856 543.5 c 128,-1,39
 876 488 876 488 876 425 c 0,40,41
 876 297 876 297 836 216 c 128,-1,42
 796 135 796 135 736.5 91.5 c 128,-1,43
 677 48 677 48 617 27.5 c 0,44,45
 558 7 558 7 518 2 c 2,46,-1
 477 0 l 1,47,-1
 477 27 l 1,48,-1
 512 37 l 2,49,50
 549 48 549 48 596.5 84 c 128,-1,51
 644 120 644 120 680 194 c 128,-1,52
 716 268 716 268 716 399 c 0,53,54
 716 500 716 500 650 581 c 0,55,56
 585 663 585 663 425 663 c 0,57,58
 375 663 375 663 335 658 c 0,59,60
 296 652 296 652 266 644 c 1,61,-1
 266 610 l 1,62,-1
 266 266 l 1,63,-1
 266 0 l 1,64,-1
 80 0 l 2,65,66
 40 0 40 0 18 -13 c 2,67,-1
 0 -27 l 1,68,-1
 -53 -27 l 1,69,-1
 53 133 l 1,70,-1
 106 133 l 1,71,-1
 106 266 l 1,72,-1
 106 610 l 1,73,-1
 106 663 l 1,74,-1
 53 663 l 1,75,-1
 27 690 l 1,76,-1
 106 796 l 1,1,-1
EndSplineSet
Substitution2: "nasal short" pren.short
Substitution2: "nasalized" pren.long
EndChar

StartChar: o
Encoding: 111 111 67
Width: 445
VWidth: 5430
GlyphClass: 2
Flags: W
LayerCount: 2
Fore
SplineSet
53 1114 m 1,0,1
 71 1160 l 0,2,3
 89 1205 89 1205 123 1261.5 c 128,-1,4
 157 1318 157 1318 199.5 1362 c 128,-1,5
 242 1406 242 1406 292 1406 c 0,6,7
 358 1406 358 1406 392 1366 c 0,8,9
 428 1326 428 1326 441 1287 c 2,10,-1
 452 1247 l 1,11,-1
 399 1220 l 1,12,-1
 393 1235 l 2,13,14
 391 1248 391 1248 368 1261 c 128,-1,15
 345 1274 345 1274 292 1274 c 0,16,17
 252 1274 252 1274 218 1246.5 c 128,-1,18
 184 1219 184 1219 159.5 1181.5 c 128,-1,19
 135 1144 135 1144 120 1117 c 2,20,-1
 106 1087 l 1,21,-1
 53 1114 l 1,0,1
106 796 m 1,22,-1
 238 796 l 1,23,-1
 266 770 l 1,24,-1
 266 610 l 1,25,-1
 266 266 l 1,26,-1
 266 0 l 1,27,-1
 80 0 l 2,28,29
 40 0 40 0 18 -13 c 2,30,-1
 0 -27 l 1,31,-1
 -53 -27 l 1,32,-1
 53 133 l 1,33,-1
 106 133 l 1,34,-1
 106 266 l 1,35,-1
 106 610 l 1,36,-1
 106 663 l 1,37,-1
 53 663 l 1,38,-1
 27 690 l 1,39,-1
 106 796 l 1,22,-1
EndSplineSet
Substitution2: "vowel diacritic tengwa" o.short
EndChar

StartChar: p
Encoding: 112 112 68
Width: 975
VWidth: 5430
GlyphClass: 2
Flags: W
LayerCount: 2
Fore
SplineSet
106 796 m 1,0,-1
 238 796 l 1,1,-1
 266 770 l 1,2,-1
 266 733 l 1,3,4
 308 760 308 760 361 778 c 128,-1,5
 414 796 414 796 477 796 c 0,6,7
 583 796 583 796 674 747 c 128,-1,8
 765 698 765 698 820 614 c 0,9,10
 875 531 875 531 876 425 c 0,11,12
 876 321 876 321 848 250.5 c 128,-1,13
 820 180 820 180 778 133 c 1,14,-1
 796 133 l 2,15,16
 836 133 836 133 854 146 c 2,17,-1
 876 158 l 1,18,-1
 929 158 l 1,19,-1
 823 0 l 1,20,-1
 477 0 l 1,21,-1
 266 0 l 1,22,-1
 266 -266 l 1,23,-1
 266 -663 l 1,24,-1
 292 -663 l 1,25,-1
 319 -690 l 1,26,-1
 238 -796 l 1,27,-1
 133 -796 l 1,28,-1
 106 -770 l 1,29,-1
 106 -266 l 1,30,-1
 106 610 l 1,31,-1
 106 663 l 1,32,-1
 53 663 l 1,33,-1
 27 690 l 1,34,-1
 106 796 l 1,0,-1
425 663 m 0,35,36
 375 663 375 663 335 658 c 0,37,38
 296 652 296 652 266 644 c 1,39,-1
 266 610 l 1,40,-1
 266 133 l 1,41,-1
 644 133 l 1,42,43
 673 175 673 175 694.5 238.5 c 128,-1,44
 716 302 716 302 716 399 c 0,45,46
 716 500 716 500 649.5 581.5 c 128,-1,47
 583 663 583 663 425 663 c 0,35,36
EndSplineSet
EndChar

StartChar: q
Encoding: 113 113 69
Width: 1029
VWidth: 5430
GlyphClass: 2
Flags: W
LayerCount: 2
Fore
SplineSet
743 1592 m 1,0,-1
 849 1592 l 1,1,-1
 876 1566 l 1,2,-1
 876 1062 l 1,3,-1
 876 266 l 1,4,-1
 876 133 l 1,5,-1
 902 133 l 2,6,7
 942 133 942 133 960 146 c 2,8,-1
 982 158 l 1,9,-1
 1035 158 l 1,10,-1
 929 0 l 1,11,-1
 876 0 l 1,12,-1
 716 0 l 1,13,-1
 716 64 l 1,14,15
 674 37 674 37 621 18 c 0,16,17
 567 0 567 0 504 0 c 0,18,19
 398 0 398 0 307.5 49 c 128,-1,20
 217 98 217 98 161.5 182 c 128,-1,21
 106 266 106 266 106 372 c 0,22,23
 106 476 106 476 134 546 c 128,-1,24
 162 616 162 616 204 663 c 1,25,-1
 185 663 l 2,26,27
 145 662 145 662 124 650 c 2,28,-1
 106 637 l 1,29,-1
 53 637 l 1,30,-1
 158 796 l 1,31,-1
 504 796 l 1,32,-1
 716 796 l 1,33,-1
 716 1062 l 1,34,-1
 716 1459 l 1,35,36
 676 1458 676 1458 643 1433 c 2,37,-1
 610 1406 l 1,38,-1
 584 1433 l 1,39,-1
 743 1592 l 1,0,-1
337 663 m 1,40,41
 308 621 308 621 287 557 c 128,-1,42
 266 493 266 493 266 399 c 0,43,44
 266 301 266 301 332.5 217 c 128,-1,45
 399 133 399 133 557 133 c 0,46,47
 607 133 607 133 647 139 c 0,48,49
 687 144 687 144 716 151 c 1,50,-1
 716 266 l 1,51,-1
 716 663 l 1,52,-1
 337 663 l 1,40,41
EndSplineSet
Ligature2: "geminated" c k
EndChar

StartChar: r
Encoding: 114 114 70
Width: 975
VWidth: 5430
GlyphClass: 2
Flags: W
LayerCount: 2
Fore
SplineSet
106 796 m 5,0,-1
 238 796 l 5,1,-1
 266 770 l 5,2,-1
 266 733 l 5,3,4
 308 760 308 760 361 778 c 132,-1,5
 414 796 414 796 477 796 c 4,6,7
 583 796 583 796 674 747 c 132,-1,8
 765 698 765 698 820 614 c 4,9,10
 875 531 875 531 876 425 c 4,11,12
 876 297 876 297 836 216 c 132,-1,13
 796 135 796 135 736.5 91.5 c 132,-1,14
 677 48 677 48 617 27.5 c 4,15,16
 558 7 558 7 518 2 c 6,17,-1
 477 0 l 5,18,-1
 477 27 l 5,19,-1
 512 37 l 4,20,21
 549 48 549 48 596.5 84 c 132,-1,22
 644 120 644 120 680 194 c 132,-1,23
 716 268 716 268 716 399 c 4,24,25
 716 500 716 500 650 581 c 4,26,27
 585 663 585 663 425 663 c 4,28,29
 375 663 375 663 335 658 c 4,30,31
 296 652 296 652 266 644 c 5,32,-1
 266 610 l 5,33,-1
 266 266 l 5,34,-1
 266 0 l 5,35,-1
 80 0 l 6,36,37
 40 0 40 0 18 -13 c 6,38,-1
 0 -27 l 5,39,-1
 -53 -27 l 5,40,-1
 53 133 l 5,41,-1
 106 133 l 5,42,-1
 106 266 l 5,43,-1
 106 610 l 5,44,-1
 106 663 l 5,45,-1
 53 663 l 5,46,-1
 27 690 l 5,47,-1
 106 796 l 5,0,-1
EndSplineSet
Substitution2: "Cons vowel" r.vowel
EndChar

StartChar: s
Encoding: 115 115 71
Width: 975
VWidth: 5430
GlyphClass: 2
Flags: W
LayerCount: 2
Fore
SplineSet
743 1220 m 0,0,1
 743 1100 743 1100 695.5 1015.5 c 128,-1,2
 648 931 648 931 576 865 c 128,-1,3
 504 799 504 799 432.5 734 c 128,-1,4
 361 669 361 669 313.5 589 c 128,-1,5
 266 509 266 509 266 399 c 0,6,7
 266 279 266 279 332.5 206 c 128,-1,8
 399 133 399 133 557 133 c 0,9,10
 677 133 677 133 723.5 185.5 c 128,-1,11
 770 238 770 238 770 399 c 0,12,13
 770 465 770 465 730 512 c 0,14,15
 689 560 689 560 650 587 c 2,16,-1
 610 610 l 1,17,-1
 610 637 l 1,18,-1
 743 716 l 1,19,-1
 774 681 l 0,20,21
 808 647 808 647 842 582 c 0,22,23
 876 518 876 518 876 425 c 0,24,25
 876 345 876 345 841 269.5 c 128,-1,26
 806 194 806 194 749 132.5 c 128,-1,27
 692 71 692 71 628.5 35.5 c 128,-1,28
 565 0 565 0 504 0 c 0,29,30
 398 0 398 0 307.5 37.5 c 128,-1,31
 217 75 217 75 161.5 156.5 c 128,-1,32
 106 238 106 238 106 372 c 0,33,34
 106 476 106 476 156.5 549.5 c 128,-1,35
 207 623 207 623 282.5 687 c 128,-1,36
 358 751 358 751 433.5 820 c 128,-1,37
 509 889 509 889 559.5 978 c 128,-1,38
 610 1067 610 1067 610 1194 c 0,39,40
 610 1314 610 1314 590.5 1377.5 c 128,-1,41
 571 1441 571 1441 552 1464 c 2,42,-1
 530 1486 l 1,43,-1
 530 1512 l 1,44,-1
 663 1592 l 1,45,-1
 685 1544 l 2,46,47
 703 1494 703 1494 723 1410 c 128,-1,48
 743 1326 743 1326 743 1220 c 0,0,1
EndSplineSet
Substitution2: "Cons vowel" s.vowel
Substitution2: "S trail high" s_trail.high
Substitution2: "S trail low" s_trail.low
EndChar

StartChar: t
Encoding: 116 116 72
Width: 975
VWidth: 5430
GlyphClass: 2
Flags: W
HStem: -796 27G<107 258> 0 27<477 512> 663 133<277 625>
VStem: 106 158<-663 657> 716 158<185 568>
LayerCount: 2
Fore
SplineSet
106 796 m 1,0,-1
 238 796 l 1,1,-1
 266 770 l 1,2,-1
 266 733 l 1,3,4
 308 760 308 760 361 778 c 128,-1,5
 414 796 414 796 477 796 c 0,6,7
 583 796 583 796 674 747 c 128,-1,8
 765 698 765 698 820 614 c 0,9,10
 875 531 875 531 876 425 c 0,11,12
 876 297 876 297 836 216 c 128,-1,13
 796 135 796 135 736.5 91.5 c 128,-1,14
 677 48 677 48 617 27.5 c 0,15,16
 558 7 558 7 518 2 c 2,17,-1
 477 0 l 1,18,-1
 477 27 l 1,19,-1
 512 37 l 0,20,21
 549 48 549 48 596.5 84 c 128,-1,22
 644 120 644 120 680 194 c 128,-1,23
 716 268 716 268 716 399 c 0,24,25
 716 500 716 500 650 581 c 0,26,27
 585 663 585 663 425 663 c 0,28,29
 375 663 375 663 335 658 c 0,30,31
 296 652 296 652 266 644 c 1,32,-1
 266 610 l 1,33,-1
 266 -266 l 1,34,-1
 266 -663 l 1,35,-1
 292 -663 l 1,36,-1
 319 -690 l 1,37,-1
 238 -796 l 1,38,-1
 133 -796 l 1,39,-1
 106 -770 l 1,40,-1
 106 -266 l 1,41,-1
 106 610 l 1,42,-1
 106 663 l 1,43,-1
 53 663 l 1,44,-1
 27 690 l 1,45,-1
 106 796 l 1,0,-1
EndSplineSet
EndChar

StartChar: u
Encoding: 117 117 73
Width: 445
VWidth: 5430
GlyphClass: 2
Flags: W
LayerCount: 2
Fore
SplineSet
106 1087 m 1,0,-1
 53 1114 l 1,1,2
 91 1146 l 0,3,4
 128 1175 128 1175 165 1224 c 0,5,6
 202 1273 202 1273 202 1327 c 256,7,8
 202 1380 202 1380 178.5 1409 c 128,-1,9
 155 1438 155 1438 130 1449 c 2,10,-1
 106 1459 l 1,11,-1
 130 1508 l 1,12,-1
 158 1505 l 2,13,14
 187 1503 187 1503 225 1491 c 128,-1,15
 263 1479 263 1479 291 1447 c 128,-1,16
 319 1415 319 1415 319 1354 c 0,17,18
 319 1304 319 1304 287 1257 c 128,-1,19
 255 1210 255 1210 212 1171.5 c 128,-1,20
 169 1133 169 1133 155 1122 c 2,21,-1
 106 1087 l 1,0,-1
106 796 m 1,22,-1
 238 796 l 1,23,-1
 266 770 l 1,24,-1
 266 610 l 1,25,-1
 266 266 l 1,26,-1
 266 0 l 1,27,-1
 80 0 l 2,28,29
 40 0 40 0 18 -13 c 2,30,-1
 0 -27 l 1,31,-1
 -53 -27 l 1,32,-1
 53 133 l 1,33,-1
 106 133 l 1,34,-1
 106 266 l 1,35,-1
 106 610 l 1,36,-1
 106 663 l 1,37,-1
 53 663 l 1,38,-1
 27 690 l 1,39,-1
 106 796 l 1,22,-1
EndSplineSet
Substitution2: "vowel diacritic tengwa" u.short
EndChar

StartChar: v
Encoding: 118 118 74
Width: 1507
VWidth: 5430
GlyphClass: 2
Flags: W
LayerCount: 2
Fore
SplineSet
133 1592 m 1,0,-1
 238 1592 l 1,1,-1
 266 1566 l 1,2,-1
 266 1062 l 1,3,-1
 266 733 l 1,4,5
 308 760 308 760 361 778 c 128,-1,6
 414 796 414 796 477 796 c 0,7,8
 634 796 634 796 749 698 c 1,9,10
 794 732 794 732 859.5 764 c 128,-1,11
 925 796 925 796 1009 796 c 0,12,13
 1115 796 1115 796 1205 747 c 128,-1,14
 1295 698 1295 698 1350 614 c 0,15,16
 1405 531 1405 531 1406 425 c 0,17,18
 1406 321 1406 321 1378.5 250.5 c 128,-1,19
 1351 180 1351 180 1308 133 c 1,20,-1
 1327 133 l 2,21,22
 1367 133 1367 133 1386 146 c 2,23,-1
 1406 158 l 1,24,-1
 1459 158 l 1,25,-1
 1354 0 l 1,26,-1
 266 0 l 1,27,-1
 80 0 l 2,28,29
 40 0 40 0 18 -13 c 2,30,-1
 0 -27 l 1,31,-1
 -53 -27 l 1,32,-1
 53 133 l 1,33,-1
 106 133 l 1,34,-1
 106 266 l 1,35,-1
 106 1062 l 1,36,-1
 106 1459 l 1,37,38
 66 1458 66 1458 34 1433 c 2,39,-1
 0 1406 l 1,40,-1
 -27 1433 l 1,41,-1
 133 1592 l 1,0,-1
425 663 m 0,42,43
 375 663 375 663 335 658 c 0,44,45
 296 652 296 652 266 644 c 1,46,-1
 266 266 l 1,47,-1
 266 133 l 1,48,-1
 644 133 l 1,49,50
 673 175 673 175 694.5 238.5 c 128,-1,51
 716 302 716 302 716 399 c 0,52,53
 716 500 716 500 649.5 581.5 c 128,-1,54
 583 663 583 663 425 663 c 0,42,43
956 663 m 0,55,56
 906 663 906 663 867 658 c 0,57,58
 828 652 828 652 799 644 c 1,59,60
 836 599 836 599 856 543.5 c 128,-1,61
 876 488 876 488 876 425 c 0,62,63
 876 321 876 321 848 250.5 c 128,-1,64
 820 180 820 180 778 133 c 1,65,-1
 1175 133 l 1,66,67
 1204 175 1204 175 1225.5 238.5 c 128,-1,68
 1247 302 1247 302 1247 399 c 0,69,70
 1247 500 1247 500 1180.5 581.5 c 128,-1,71
 1114 663 1114 663 956 663 c 0,55,56
EndSplineSet
EndChar

StartChar: w
Encoding: 119 119 75
Width: 975
VWidth: 5430
GlyphClass: 2
Flags: W
LayerCount: 2
Fore
SplineSet
106 796 m 1,0,-1
 238 796 l 1,1,-1
 266 770 l 1,2,-1
 266 733 l 1,3,4
 308 760 308 760 361 778 c 128,-1,5
 414 796 414 796 477 796 c 0,6,7
 583 796 583 796 674 747 c 128,-1,8
 765 698 765 698 820 614 c 0,9,10
 875 531 875 531 876 425 c 0,11,12
 876 321 876 321 848 250.5 c 128,-1,13
 820 180 820 180 778 133 c 1,14,-1
 796 133 l 2,15,16
 836 133 836 133 854 146 c 2,17,-1
 876 158 l 1,18,-1
 929 158 l 1,19,-1
 823 0 l 1,20,-1
 477 0 l 1,21,-1
 266 0 l 1,22,-1
 80 0 l 2,23,24
 40 0 40 0 18 -13 c 2,25,-1
 0 -27 l 1,26,-1
 -53 -27 l 1,27,-1
 53 133 l 1,28,-1
 106 133 l 1,29,-1
 106 266 l 1,30,-1
 106 610 l 1,31,-1
 106 663 l 1,32,-1
 53 663 l 1,33,-1
 27 690 l 1,34,-1
 106 796 l 1,0,-1
425 663 m 0,35,36
 375 663 375 663 335 658 c 0,37,38
 296 652 296 652 266 644 c 1,39,-1
 266 610 l 1,40,-1
 266 266 l 1,41,-1
 266 133 l 1,42,-1
 644 133 l 1,43,44
 673 175 673 175 694.5 238.5 c 128,-1,45
 716 302 716 302 716 399 c 0,46,47
 716 500 716 500 649.5 581.5 c 128,-1,48
 583 663 583 663 425 663 c 0,35,36
EndSplineSet
Substitution2: "Cons vowel" w_w
EndChar

StartChar: x
Encoding: 120 120 76
Width: 1029
VWidth: 5430
GlyphClass: 2
Flags: W
LayerCount: 2
Fore
SplineSet
158 796 m 1,0,-1
 504 796 l 1,1,-1
 817 796 l 1,2,-1
 823 796 l 1,3,-1
 956 796 l 1,4,-1
 982 770 l 1,5,-1
 902 663 l 1,6,-1
 876 663 l 1,7,-1
 876 530 l 1,8,-1
 876 -266 l 1,9,-1
 876 -663 l 1,10,-1
 902 -663 l 1,11,-1
 929 -690 l 1,12,-1
 849 -796 l 1,13,-1
 743 -796 l 1,14,-1
 716 -770 l 1,15,-1
 716 -266 l 1,16,-1
 716 64 l 1,17,18
 674 37 674 37 621 18 c 0,19,20
 567 0 567 0 504 0 c 0,21,22
 502 0 502 0 496 0 c 0,23,24
 483 -71 483 -71 450 -122 c 128,-1,25
 417 -173 417 -173 381 -215 c 128,-1,26
 345 -257 345 -257 318.5 -305 c 128,-1,27
 292 -353 292 -353 292 -425 c 0,28,29
 292 -505 292 -505 335 -558 c 0,30,31
 378 -611 378 -611 477 -610 c 0,32,33
 558 -610 558 -610 598 -584 c 2,34,-1
 637 -557 l 1,35,-1
 663 -584 l 1,36,-1
 632 -616 l 0,37,38
 603 -650 603 -650 553.5 -683 c 128,-1,39
 504 -716 504 -716 452 -716 c 0,40,41
 313 -716 313 -716 235.5 -640.5 c 128,-1,42
 158 -565 158 -565 158 -425 c 0,43,44
 158 -350 158 -350 186.5 -306.5 c 128,-1,45
 215 -263 215 -263 255 -224 c 128,-1,46
 295 -185 295 -185 328 -130 c 0,47,48
 360 -75 360 -75 369 22 c 1,49,50
 257 62 257 62 181.5 155 c 128,-1,51
 106 248 106 248 106 372 c 0,52,53
 106 476 106 476 134 546 c 128,-1,54
 162 616 162 616 204 663 c 1,55,-1
 185 663 l 2,56,57
 145 662 145 662 124 650 c 2,58,-1
 106 637 l 1,59,-1
 53 637 l 1,60,-1
 158 796 l 1,0,-1
337 663 m 1,61,62
 308 621 308 621 287 557 c 128,-1,63
 266 493 266 493 266 399 c 0,64,65
 266 301 266 301 332.5 217 c 128,-1,66
 399 133 399 133 557 133 c 0,67,68
 607 133 607 133 647 139 c 0,69,70
 687 144 687 144 716 151 c 1,71,-1
 716 530 l 1,72,-1
 716 663 l 1,73,-1
 337 663 l 1,61,62
EndSplineSet
EndChar

StartChar: y
Encoding: 121 121 77
Width: 975
VWidth: 5430
GlyphClass: 2
Flags: W
LayerCount: 2
Fore
SplineSet
504 796 m 1,0,-1
 504 770 l 1,1,2
 470 760 l 0,3,4
 433 749 433 749 385 713 c 128,-1,5
 337 677 337 677 301.5 602.5 c 128,-1,6
 266 528 266 528 266 399 c 0,7,8
 266 301 266 301 332.5 217 c 128,-1,9
 399 133 399 133 557 133 c 0,10,11
 607 133 607 133 647 139 c 0,12,13
 687 144 687 144 716 151 c 1,14,-1
 716 266 l 1,15,-1
 716 530 l 1,16,-1
 716 663 l 1,17,-1
 817 796 l 1,18,-1
 956 796 l 1,19,-1
 982 770 l 1,20,-1
 902 663 l 1,21,-1
 876 663 l 1,22,-1
 876 530 l 1,23,-1
 876 266 l 1,24,-1
 876 133 l 1,25,-1
 902 133 l 2,26,27
 942 133 942 133 960 146 c 2,28,-1
 982 158 l 1,29,-1
 1035 158 l 1,30,-1
 929 0 l 1,31,-1
 876 0 l 1,32,-1
 716 0 l 1,33,-1
 716 64 l 1,34,35
 674 37 674 37 621 18 c 0,36,37
 567 0 567 0 504 0 c 0,38,39
 398 0 398 0 307.5 49 c 128,-1,40
 217 98 217 98 161.5 182 c 128,-1,41
 106 266 106 266 106 372 c 0,42,43
 106 500 106 500 145.5 580.5 c 128,-1,44
 185 661 185 661 245.5 705 c 128,-1,45
 306 749 306 749 365.5 768.5 c 128,-1,46
 425 788 425 788 443 790 c 2,47,-1
 504 796 l 1,0,-1
EndSplineSet
Substitution2: "Cons vowel" y.vowel
Substitution2: "vowel diacritic tengwa" y.short
EndChar

StartChar: z
Encoding: 122 122 78
Width: 975
VWidth: 5430
GlyphClass: 2
Flags: W
LayerCount: 2
Fore
SplineSet
663 1592 m 1,0,1
 685 1544 l 0,2,3
 703 1494 703 1494 723 1410.5 c 128,-1,4
 743 1327 743 1327 743 1220 c 0,5,6
 743 1100 743 1100 695.5 1015.5 c 128,-1,7
 648 931 648 931 576 865 c 128,-1,8
 504 799 504 799 432.5 734 c 128,-1,9
 361 669 361 669 313.5 589 c 128,-1,10
 266 509 266 509 266 399 c 0,11,12
 266 279 266 279 332.5 206 c 128,-1,13
 399 133 399 133 557 133 c 0,14,15
 677 133 677 133 723.5 185.5 c 128,-1,16
 770 238 770 238 770 399 c 0,17,18
 770 465 770 465 730 512 c 0,19,20
 689 560 689 560 650 587 c 2,21,-1
 610 610 l 1,22,-1
 610 637 l 1,23,-1
 743 716 l 1,24,-1
 774 681 l 2,25,26
 808 647 808 647 842 582 c 0,27,28
 876 518 876 518 876 425 c 0,29,30
 876 330 876 330 827 239.5 c 128,-1,31
 778 149 778 149 702 86 c 128,-1,32
 626 23 626 23 552 5 c 1,33,34
 539 -70 539 -70 505.5 -119.5 c 128,-1,35
 472 -169 472 -169 435.5 -212 c 128,-1,36
 399 -255 399 -255 372 -304 c 128,-1,37
 345 -353 345 -353 345 -425 c 0,38,39
 345 -505 345 -505 388.5 -557.5 c 128,-1,40
 432 -610 432 -610 530 -610 c 0,41,42
 610 -610 610 -610 650 -584 c 2,43,-1
 690 -557 l 1,44,-1
 716 -584 l 1,45,-1
 687 -616 l 2,46,47
 655 -650 655 -650 606 -683 c 0,48,49
 556 -716 556 -716 504 -716 c 0,50,51
 365 -716 365 -716 288.5 -640.5 c 128,-1,52
 212 -565 212 -565 212 -425 c 0,53,54
 212 -354 212 -354 240 -310 c 128,-1,55
 268 -266 268 -266 305 -227 c 128,-1,56
 342 -188 342 -188 375.5 -137 c 128,-1,57
 409 -86 409 -86 419 5 c 1,58,59
 289 23 289 23 197.5 111 c 128,-1,60
 106 199 106 199 106 372 c 0,61,62
 106 476 106 476 156.5 549.5 c 128,-1,63
 207 623 207 623 282.5 687 c 128,-1,64
 358 751 358 751 433.5 820 c 128,-1,65
 509 889 509 889 559.5 978 c 128,-1,66
 610 1067 610 1067 610 1194 c 0,67,68
 610 1314 610 1314 590.5 1377.5 c 128,-1,69
 571 1441 571 1441 552 1464 c 2,70,-1
 530 1486 l 1,71,-1
 530 1512 l 1,72,-1
 663 1592 l 1,0,1
EndSplineSet
Substitution2: "Cons vowel" z.vowel
EndChar

StartChar: bar
Encoding: 124 124 79
Width: 445
VWidth: 5430
GlyphClass: 2
Flags: W
LayerCount: 2
Fore
SplineSet
106 796 m 1,0,-1
 238 796 l 1,1,-1
 266 770 l 1,2,-1
 266 610 l 1,3,-1
 266 -266 l 1,4,-1
 266 -663 l 1,5,-1
 292 -663 l 1,6,-1
 319 -690 l 1,7,-1
 238 -796 l 1,8,-1
 133 -796 l 1,9,-1
 106 -770 l 1,10,-1
 106 -266 l 1,11,-1
 106 610 l 1,12,-1
 106 663 l 1,13,-1
 53 663 l 1,14,-1
 27 690 l 1,15,-1
 106 796 l 1,0,-1
EndSplineSet
EndChar

StartChar: carrier.short
Encoding: 65539 -1 80
Width: 445
VWidth: 5430
GlyphClass: 2
Flags: W
LayerCount: 2
Fore
SplineSet
106 796 m 1,0,-1
 238 796 l 1,1,-1
 266 770 l 1,2,-1
 266 610 l 1,3,-1
 266 266 l 1,4,-1
 266 0 l 1,5,-1
 80 0 l 2,6,7
 40 0 40 0 18 -13 c 2,8,-1
 0 -27 l 1,9,-1
 -53 -27 l 1,10,-1
 53 133 l 1,11,-1
 106 133 l 1,12,-1
 106 266 l 1,13,-1
 106 610 l 1,14,-1
 106 663 l 1,15,-1
 53 663 l 1,16,-1
 27 690 l 1,17,-1
 106 796 l 1,0,-1
EndSplineSet
EndChar

StartChar: carrier.long
Encoding: 65540 -1 81
Width: 445
VWidth: 5430
GlyphClass: 2
Flags: W
LayerCount: 2
Fore
SplineSet
106 796 m 1,0,-1
 238 796 l 1,1,-1
 266 770 l 1,2,-1
 266 610 l 1,3,-1
 266 -266 l 1,4,-1
 266 -663 l 1,5,-1
 292 -663 l 1,6,-1
 319 -690 l 1,7,-1
 238 -796 l 1,8,-1
 133 -796 l 1,9,-1
 106 -770 l 1,10,-1
 106 -266 l 1,11,-1
 106 610 l 1,12,-1
 106 663 l 1,13,-1
 53 663 l 1,14,-1
 27 690 l 1,15,-1
 106 796 l 1,0,-1
EndSplineSet
EndChar

StartChar: a.short
Encoding: 65541 -1 82
Width: 0
VWidth: 5430
GlyphClass: 2
Flags: W
LayerCount: 2
Fore
SplineSet
557 1194 m 5,0,-1
 663 1354 l 5,1,-1
 796 1247 l 5,2,-1
 690 1087 l 5,3,-1
 557 1194 l 5,0,-1
238 1194 m 5,4,-1
 345 1354 l 5,5,-1
 477 1247 l 5,6,-1
 372 1087 l 5,7,-1
 238 1194 l 5,4,-1
399 1354 m 5,8,-1
 504 1512 l 5,9,-1
 637 1406 l 5,10,-1
 530 1247 l 5,11,-1
 399 1354 l 5,8,-1
EndSplineSet
Position2: "Single Positioning in Latin lookup 6 subtable" dx=-214 dy=0 dh=0 dv=0
Position2: "Single Positioning in Latin lookup 5 subtable" dx=74 dy=0 dh=0 dv=0
Position2: "Single Positioning in Latin lookup 4 subtable" dx=0 dy=0 dh=0 dv=0
Position2: "Single Positioning in Latin lookup 3 subtable" dx=248 dy=0 dh=0 dv=0
EndChar

StartChar: e.short
Encoding: 65543 -1 84
Width: 28
VWidth: 5430
GlyphClass: 2
Flags: W
LayerCount: 2
Fore
SplineSet
482 1087 m 5,0,-1
 428 1114 l 5,1,-1
 668 1512 l 5,2,-1
 800 1459 l 5,3,-1
 774 1406 l 5,4,-1
 482 1087 l 5,0,-1
EndSplineSet
Substitution2: "silent e" e.silent
Position2: "Single Positioning in Latin lookup 6 subtable" dx=-148 dy=0 dh=0 dv=0
Position2: "Single Positioning in Latin lookup 5 subtable" dx=0 dy=0 dh=0 dv=0
Position2: "Single Positioning in Latin lookup 4 subtable" dx=0 dy=0 dh=0 dv=0
Position2: "Single Positioning in Latin lookup 3 subtable" dx=248 dy=0 dh=0 dv=0
EndChar

StartChar: e.long
Encoding: 65544 -1 85
Width: 0
VWidth: 5430
GlyphClass: 3
Flags: W
LayerCount: 2
Fore
SplineSet
377 1167 m 1,0,-1
 320 1178 l 1,1,-1
 448 1624 l 1,2,-1
 589 1608 l 1,3,-1
 579 1550 l 1,4,-1
 377 1167 l 1,0,-1
557 1087 m 1,5,-1
 504 1114 l 1,6,-1
 743 1512 l 1,7,-1
 876 1459 l 1,8,-1
 849 1406 l 1,9,-1
 557 1087 l 1,5,-1
EndSplineSet
Ligature2: "double signs" e e.short
Position2: "Single Positioning in Latin lookup 6 subtable" dx=-214 dy=0 dh=0 dv=0
Position2: "Single Positioning in Latin lookup 5 subtable" dx=74 dy=0 dh=0 dv=0
Position2: "Single Positioning in Latin lookup 4 subtable" dx=0 dy=0 dh=0 dv=0
Position2: "Single Positioning in Latin lookup 3 subtable" dx=248 dy=0 dh=0 dv=0
EndChar

StartChar: i.short
Encoding: 65545 -1 86
Width: 0
VWidth: 5430
GlyphClass: 2
Flags: W
LayerCount: 2
Fore
SplineSet
399 1194 m 1,0,-1
 504 1354 l 1,1,-1
 637 1247 l 1,2,-1
 530 1087 l 1,3,-1
 399 1194 l 1,0,-1
EndSplineSet
Position2: "Single Positioning in Latin lookup 6 subtable" dx=-74 dy=0 dh=0 dv=0
Position2: "Single Positioning in Latin lookup 5 subtable" dx=0 dy=0 dh=0 dv=0
Position2: "Single Positioning in Latin lookup 4 subtable" dx=0 dy=0 dh=0 dv=0
Position2: "Single Positioning in Latin lookup 3 subtable" dx=248 dy=0 dh=0 dv=0
EndChar

StartChar: i.long
Encoding: 65546 -1 87
Width: 0
VWidth: 5430
GlyphClass: 3
Flags: W
LayerCount: 2
Fore
SplineSet
530 1194 m 1,0,-1
 637 1354 l 1,1,-1
 770 1247 l 1,2,-1
 663 1087 l 1,3,-1
 530 1194 l 1,0,-1
266 1194 m 1,4,-1
 372 1354 l 1,5,-1
 504 1247 l 1,6,-1
 399 1087 l 1,7,-1
 266 1194 l 1,4,-1
EndSplineSet
Ligature2: "double signs" i i.short
Position2: "Single Positioning in Latin lookup 6 subtable" dx=-148 dy=0 dh=0 dv=0
Position2: "Single Positioning in Latin lookup 5 subtable" dx=74 dy=0 dh=0 dv=0
Position2: "Single Positioning in Latin lookup 4 subtable" dx=0 dy=0 dh=0 dv=0
Position2: "Single Positioning in Latin lookup 3 subtable" dx=248 dy=0 dh=0 dv=0
EndChar

StartChar: o.short
Encoding: 65547 -1 88
Width: -16
VWidth: 5430
GlyphClass: 2
Flags: W
LayerCount: 2
Fore
SplineSet
379 1114 m 5,0,1
 398 1160 l 4,2,3
 416 1205 416 1205 449 1261.5 c 132,-1,4
 482 1318 482 1318 525 1362 c 4,5,6
 567 1406 567 1406 617 1406 c 4,7,8
 683 1406 683 1406 718.5 1366.5 c 132,-1,9
 754 1327 754 1327 765 1287 c 6,10,-1
 778 1247 l 5,11,-1
 724 1220 l 5,12,-1
 719 1235 l 6,13,14
 717 1248 717 1248 694 1261 c 132,-1,15
 671 1274 671 1274 617 1274 c 4,16,17
 577 1274 577 1274 543 1246.5 c 132,-1,18
 509 1219 509 1219 485 1181.5 c 132,-1,19
 461 1144 461 1144 448 1117 c 6,20,-1
 432 1087 l 5,21,-1
 379 1114 l 5,0,1
EndSplineSet
Position2: "Single Positioning in Latin lookup 6 subtable" dx=-148 dy=0 dh=0 dv=0
Position2: "Single Positioning in Latin lookup 5 subtable" dx=0 dy=0 dh=0 dv=0
Position2: "Single Positioning in Latin lookup 4 subtable" dx=0 dy=0 dh=0 dv=0
Position2: "Single Positioning in Latin lookup 3 subtable" dx=248 dy=0 dh=0 dv=0
EndChar

StartChar: o.long
Encoding: 65548 -1 89
Width: 0
VWidth: 5430
GlyphClass: 3
Flags: W
LayerCount: 2
Fore
SplineSet
331 1173 m 1,0,-1
 331 1173 l 1,1,2
 337 1220 l 256,3,4
 342 1268 342 1268 360.5 1331.5 c 128,-1,5
 379 1395 379 1395 410 1450 c 128,-1,6
 441 1505 441 1505 488 1517 c 0,7,8
 552 1533 552 1533 595 1504 c 0,9,10
 639 1474 639 1474 661 1438 c 2,11,-1
 681 1404 l 1,12,-1
 639 1366 l 1,13,-1
 632 1377 l 2,14,15
 625 1388 625 1388 599 1396 c 128,-1,16
 573 1404 573 1404 523 1390 c 0,17,18
 483 1379 483 1379 457.5 1343.5 c 128,-1,19
 432 1308 432 1308 417.5 1266 c 128,-1,20
 403 1224 403 1224 395 1192 c 2,21,-1
 390 1162 l 1,22,-1
 331 1173 l 1,0,-1
504 1114 m 1,23,-1
 523 1160 l 2,24,25
 541 1205 541 1205 574.5 1261.5 c 128,-1,26
 608 1318 608 1318 650 1362 c 0,27,28
 693 1406 693 1406 743 1406 c 0,29,30
 809 1406 809 1406 843.5 1366.5 c 128,-1,31
 878 1327 878 1327 889 1287 c 2,32,-1
 902 1247 l 1,33,-1
 849 1220 l 1,34,-1
 843 1235 l 2,35,36
 841 1248 841 1248 818.5 1261 c 128,-1,37
 796 1274 796 1274 743 1274 c 0,38,39
 703 1274 703 1274 668.5 1246.5 c 128,-1,40
 634 1219 634 1219 610.5 1181.5 c 128,-1,41
 587 1144 587 1144 573 1117 c 2,42,-1
 557 1087 l 1,43,-1
 504 1114 l 1,23,-1
EndSplineSet
Ligature2: "double signs" o o.short
Position2: "Single Positioning in Latin lookup 6 subtable" dx=-214 dy=0 dh=0 dv=0
Position2: "Single Positioning in Latin lookup 5 subtable" dx=74 dy=0 dh=0 dv=0
Position2: "Single Positioning in Latin lookup 4 subtable" dx=0 dy=0 dh=0 dv=0
Position2: "Single Positioning in Latin lookup 3 subtable" dx=248 dy=0 dh=0 dv=0
EndChar

StartChar: u.short
Encoding: 65549 -1 90
Width: 0
VWidth: 5430
GlyphClass: 2
Flags: W
LayerCount: 2
Fore
SplineSet
452 1087 m 5,0,-1
 399 1114 l 5,1,2
 436 1146 l 4,3,4
 473 1175 473 1175 509 1224 c 4,5,6
 547 1273 547 1273 546 1327 c 260,7,8
 546 1380 546 1380 522.5 1409 c 132,-1,9
 499 1438 499 1438 475 1449 c 6,10,-1
 452 1459 l 5,11,-1
 475 1508 l 5,12,-1
 504 1505 l 6,13,14
 533 1503 533 1503 570.5 1491 c 132,-1,15
 608 1479 608 1479 635.5 1447 c 132,-1,16
 663 1415 663 1415 663 1354 c 4,17,18
 663 1304 663 1304 631 1257 c 132,-1,19
 599 1210 599 1210 557 1171.5 c 132,-1,20
 515 1133 515 1133 499 1122 c 6,21,-1
 452 1087 l 5,0,-1
EndSplineSet
Position2: "Single Positioning in Latin lookup 6 subtable" dx=-148 dy=0 dh=0 dv=0
Position2: "Single Positioning in Latin lookup 5 subtable" dx=0 dy=0 dh=0 dv=0
Position2: "Single Positioning in Latin lookup 4 subtable" dx=0 dy=0 dh=0 dv=0
Position2: "Single Positioning in Latin lookup 3 subtable" dx=248 dy=0 dh=0 dv=0
EndChar

StartChar: u.long
Encoding: 65550 -1 91
Width: 0
VWidth: 5430
GlyphClass: 3
Flags: W
LayerCount: 2
Fore
SplineSet
557 1087 m 1,0,-1
 504 1114 l 1,1,2
 541 1146 l 0,3,4
 578 1175 578 1175 616 1224 c 128,-1,5
 654 1273 654 1273 652 1327 c 256,6,7
 652 1380 652 1380 628.5 1409 c 128,-1,8
 605 1438 605 1438 581 1449 c 2,9,-1
 557 1459 l 1,10,-1
 581 1508 l 1,11,-1
 610 1505 l 2,12,13
 639 1503 639 1503 676.5 1491 c 128,-1,14
 714 1479 714 1479 742 1447 c 128,-1,15
 770 1415 770 1415 770 1354 c 0,16,17
 770 1304 770 1304 738 1257 c 128,-1,18
 706 1210 706 1210 663.5 1171.5 c 128,-1,19
 621 1133 621 1133 605 1122 c 2,20,-1
 557 1087 l 1,0,-1
390 1160 m 1,21,-1
 335 1171 l 1,22,-1
 364 1210 l 2,23,24
 391 1250 391 1250 413.5 1307 c 128,-1,25
 436 1364 436 1364 422 1415 c 256,26,27
 409 1465 409 1465 378 1487.5 c 128,-1,28
 347 1510 347 1510 320 1512 c 2,29,-1
 295 1517 l 1,30,-1
 308 1571 l 1,31,-1
 337 1576 l 2,32,33
 364 1581 364 1581 402.5 1578.5 c 128,-1,34
 441 1576 441 1576 476.5 1552 c 128,-1,35
 512 1528 512 1528 528 1470 c 0,36,37
 541 1422 541 1422 522.5 1367.5 c 128,-1,38
 504 1313 504 1313 472.5 1266.5 c 0,39,40
 442 1220 442 1220 428 1204 c 2,41,-1
 390 1160 l 1,21,-1
EndSplineSet
Ligature2: "double signs" u u.short
Position2: "Single Positioning in Latin lookup 6 subtable" dx=-214 dy=0 dh=0 dv=0
Position2: "Single Positioning in Latin lookup 5 subtable" dx=74 dy=0 dh=0 dv=0
Position2: "Single Positioning in Latin lookup 4 subtable" dx=0 dy=0 dh=0 dv=0
Position2: "Single Positioning in Latin lookup 3 subtable" dx=248 dy=0 dh=0 dv=0
EndChar

StartChar: y.short
Encoding: 65551 -1 92
Width: 0
VWidth: 5430
GlyphClass: 2
Flags: W
LayerCount: 2
Fore
SplineSet
345 1433 m 1,0,-1
 552 1258 l 1,1,-1
 690 1459 l 1,2,-1
 743 1406 l 1,3,-1
 530 1087 l 1,4,-1
 266 1300 l 1,5,-1
 345 1433 l 1,0,-1
EndSplineSet
Position2: "Single Positioning in Latin lookup 6 subtable" dx=-148 dy=0 dh=0 dv=0
Position2: "Single Positioning in Latin lookup 5 subtable" dx=74 dy=0 dh=0 dv=0
Position2: "Single Positioning in Latin lookup 4 subtable" dx=0 dy=0 dh=0 dv=0
Position2: "Single Positioning in Latin lookup 3 subtable" dx=248 dy=0 dh=0 dv=0
EndChar

StartChar: e.silent
Encoding: 65553 -1 94
Width: 0
VWidth: 5430
GlyphClass: 2
Flags: W
LayerCount: 2
Fore
SplineSet
-584 -452 m 5,0,-1
 -477 -292 l 5,1,-1
 -345 -399 l 5,2,-1
 -452 -557 l 5,3,-1
 -584 -452 l 5,0,-1
EndSplineSet
Position2: "Single Positioning in Latin lookup 2 subtable" dx=174 dy=0 dh=0 dv=0
Position2: "Single Positioning in Latin lookup 1 subtable" dx=0 dy=0 dh=0 dv=0
Position2: "Single Positioning in Latin lookup 0 subtable" dx=-248 dy=0 dh=0 dv=0
EndChar

StartChar: c_h.soft
Encoding: 65554 -1 95
Width: 975
VWidth: 5430
GlyphClass: 3
Flags: W
LayerCount: 2
Fore
SplineSet
504 796 m 1,0,-1
 504 770 l 1,1,2
 470 760 l 0,3,4
 433 749 433 749 385 713 c 128,-1,5
 337 677 337 677 301.5 602.5 c 128,-1,6
 266 528 266 528 266 399 c 0,7,8
 266 301 266 301 332.5 217 c 128,-1,9
 399 133 399 133 557 133 c 0,10,11
 607 133 607 133 647 139 c 0,12,13
 687 144 687 144 716 151 c 1,14,-1
 716 530 l 1,15,-1
 716 663 l 1,16,-1
 817 796 l 1,17,-1
 956 796 l 1,18,-1
 982 770 l 1,19,-1
 902 663 l 1,20,-1
 876 663 l 1,21,-1
 876 530 l 1,22,-1
 876 -266 l 1,23,-1
 876 -663 l 1,24,-1
 902 -663 l 1,25,-1
 929 -690 l 1,26,-1
 849 -796 l 1,27,-1
 743 -796 l 1,28,-1
 716 -770 l 1,29,-1
 716 -266 l 1,30,-1
 716 64 l 1,31,32
 674 37 674 37 621 18 c 0,33,34
 567 0 567 0 504 0 c 0,35,36
 398 0 398 0 307.5 49 c 128,-1,37
 217 98 217 98 161.5 182 c 128,-1,38
 106 266 106 266 106 372 c 0,39,40
 106 500 106 500 145.5 580.5 c 128,-1,41
 185 661 185 661 245.5 705 c 128,-1,42
 306 749 306 749 365.5 768.5 c 128,-1,43
 425 788 425 788 443 790 c 2,44,-1
 504 796 l 1,0,-1
EndSplineSet
Ligature2: "common ligs" C h
Ligature2: "common ligs" c h
EndChar

StartChar: g_h
Encoding: 65555 -1 96
Width: 1507
VWidth: 5430
GlyphClass: 3
Flags: W
LayerCount: 2
Fore
SplineSet
1274 1592 m 1,0,-1
 1381 1592 l 1,1,-1
 1406 1566 l 1,2,-1
 1406 1062 l 1,3,-1
 1406 266 l 1,4,-1
 1406 133 l 1,5,-1
 1433 133 l 2,6,7
 1470 133 1470 133 1491 146 c 2,8,-1
 1512 158 l 1,9,-1
 1566 158 l 1,10,-1
 1459 0 l 1,11,-1
 1406 0 l 1,12,-1
 1247 0 l 1,13,-1
 1247 64 l 1,14,15
 1205 37 1205 37 1151.5 18.5 c 128,-1,16
 1098 0 1098 0 1035 0 c 0,17,18
 878 0 878 0 765 98 c 1,19,20
 720 64 720 64 653.5 32 c 128,-1,21
 587 0 587 0 504 0 c 0,22,23
 398 0 398 0 307.5 49 c 128,-1,24
 217 98 217 98 161.5 182 c 128,-1,25
 106 266 106 266 106 372 c 0,26,27
 106 476 106 476 134 546 c 128,-1,28
 162 616 162 616 204 663 c 1,29,-1
 185 663 l 2,30,31
 145 662 145 662 124 650 c 2,32,-1
 106 637 l 1,33,-1
 53 637 l 1,34,-1
 158 796 l 1,35,-1
 504 796 l 1,36,-1
 1035 796 l 1,37,-1
 1247 796 l 1,38,-1
 1247 1062 l 1,39,-1
 1247 1459 l 1,40,41
 1207 1458 1207 1458 1173 1433 c 2,42,-1
 1141 1406 l 1,43,-1
 1114 1433 l 1,44,-1
 1274 1592 l 1,0,-1
337 663 m 1,45,46
 308 621 308 621 287 557 c 128,-1,47
 266 493 266 493 266 399 c 0,48,49
 266 301 266 301 332.5 217 c 128,-1,50
 399 133 399 133 557 133 c 0,51,52
 607 133 607 133 646 138.5 c 128,-1,53
 685 144 685 144 714 151 c 1,54,55
 677 196 677 196 657 252 c 128,-1,56
 637 308 637 308 637 372 c 0,57,58
 637 476 637 476 664.5 546 c 128,-1,59
 692 616 692 616 735 663 c 1,60,-1
 337 663 l 1,45,46
868 663 m 1,61,62
 839 621 839 621 817.5 557 c 128,-1,63
 796 493 796 493 796 399 c 0,64,65
 796 301 796 301 862.5 217 c 128,-1,66
 929 133 929 133 1087 133 c 0,67,68
 1137 133 1137 133 1178 138.5 c 128,-1,69
 1219 144 1219 144 1247 151 c 1,70,-1
 1247 266 l 1,71,-1
 1247 663 l 1,72,-1
 868 663 l 1,61,62
EndSplineSet
Ligature2: "common ligs" G h
LCarets2: 1 0
Ligature2: "common ligs" g h
EndChar

StartChar: l_d
Encoding: 65556 -1 97
Width: 1234
VWidth: 6516
GlyphClass: 3
Flags: W
LayerCount: 2
Fore
SplineSet
1178 987 m 1,0,-1
 1242 987 l 1,1,-1
 1114 796 l 1,2,-1
 605 796 l 1,3,-1
 404 796 l 1,4,5
 370 746 370 746 344.5 669 c 128,-1,6
 319 592 319 592 319 477 c 0,7,8
 319 359 319 359 398 258.5 c 128,-1,9
 477 158 477 158 669 158 c 256,10,11
 860 158 860 158 987 71 c 128,-1,12
 1114 -16 1114 -16 1114 -158 c 0,13,14
 1114 -253 1114 -253 1039.5 -349.5 c 128,-1,15
 965 -446 965 -446 849 -509.5 c 128,-1,16
 733 -573 733 -573 605 -573 c 0,17,18
 493 -573 493 -573 415.5 -533 c 128,-1,19
 338 -493 338 -493 296 -455 c 2,20,-1
 255 -414 l 1,21,-1
 350 -255 l 1,22,-1
 382 -255 l 1,23,24
 414 -302 l 0,25,26
 443 -350 443 -350 500 -398 c 128,-1,27
 557 -446 557 -446 637 -446 c 0,28,29
 828 -446 828 -446 892 -390.5 c 128,-1,30
 956 -335 956 -335 956 -191 c 0,31,32
 956 -127 956 -127 901.5 -84 c 128,-1,33
 847 -41 847 -41 766 -20.5 c 128,-1,34
 685 0 685 0 605 0 c 0,35,36
 477 0 477 0 369 59 c 128,-1,37
 261 118 261 118 194.5 218.5 c 128,-1,38
 128 319 128 319 128 446 c 0,39,40
 128 570 128 570 161 655 c 0,41,42
 194 738 194 738 245 796 c 1,43,-1
 222 796 l 2,44,45
 174 796 174 796 150 779 c 2,46,-1
 128 765 l 1,47,-1
 64 765 l 1,48,-1
 191 956 l 1,49,-1
 245 956 l 1,50,-1
 605 956 l 1,51,-1
 688 956 l 2,52,53
 768 956 768 956 879 956 c 128,-1,54
 990 956 990 956 1082 956 c 0,55,56
 1130 956 1130 956 1140 965 c 2,57,-1
 1178 987 l 1,0,-1
EndSplineSet
Ligature2: "common ligs" l d
EndChar

StartChar: n_g
Encoding: 65557 -1 98
Width: 1507
VWidth: 5430
GlyphClass: 3
Flags: W
LayerCount: 2
Fore
SplineSet
158 796 m 1,0,-1
 1348 796 l 1,1,-1
 1354 796 l 1,2,-1
 1486 796 l 1,3,-1
 1512 770 l 1,4,-1
 1433 663 l 1,5,-1
 1406 663 l 1,6,-1
 1406 530 l 1,7,-1
 1406 266 l 1,8,-1
 1406 133 l 1,9,-1
 1433 133 l 2,10,11
 1470 133 1470 133 1491 146 c 2,12,-1
 1512 158 l 1,13,-1
 1566 158 l 1,14,-1
 1459 0 l 1,15,-1
 1406 0 l 1,16,-1
 1247 0 l 1,17,-1
 1247 64 l 1,18,19
 1205 37 1205 37 1151.5 18.5 c 128,-1,20
 1098 0 1098 0 1035 0 c 0,21,22
 878 0 878 0 765 98 c 1,23,24
 720 64 720 64 653.5 32 c 128,-1,25
 587 0 587 0 504 0 c 0,26,27
 398 0 398 0 307.5 49 c 128,-1,28
 217 98 217 98 161.5 182 c 128,-1,29
 106 266 106 266 106 372 c 0,30,31
 106 476 106 476 134 546 c 128,-1,32
 162 616 162 616 204 663 c 1,33,-1
 185 663 l 2,34,35
 145 662 145 662 124 650 c 2,36,-1
 106 637 l 1,37,-1
 53 637 l 1,38,-1
 158 796 l 1,0,-1
337 663 m 1,39,40
 308 621 308 621 287 557 c 128,-1,41
 266 493 266 493 266 399 c 0,42,43
 266 301 266 301 332.5 217 c 128,-1,44
 399 133 399 133 557 133 c 0,45,46
 607 133 607 133 646 138.5 c 128,-1,47
 685 144 685 144 714 151 c 1,48,49
 677 196 677 196 657 252 c 128,-1,50
 637 308 637 308 637 372 c 0,51,52
 637 476 637 476 664.5 546 c 128,-1,53
 692 616 692 616 735 663 c 1,54,-1
 337 663 l 1,39,40
868 663 m 1,55,56
 839 621 839 621 817.5 557 c 128,-1,57
 796 493 796 493 796 399 c 0,58,59
 796 301 796 301 862.5 217 c 128,-1,60
 929 133 929 133 1087 133 c 0,61,62
 1137 133 1137 133 1178 138.5 c 128,-1,63
 1219 144 1219 144 1247 151 c 1,64,-1
 1247 266 l 1,65,-1
 1247 530 l 1,66,-1
 1247 663 l 1,67,-1
 868 663 l 1,55,56
EndSplineSet
LCarets2: 1 0
Ligature2: "common ligs" n g
Ligature2: "common ligs" pren.short g
Ligature2: "common ligs" pren.long g
EndChar

StartChar: p_h
Encoding: 65558 -1 99
Width: 975
VWidth: 5430
GlyphClass: 3
Flags: W
LayerCount: 2
Fore
SplineSet
133 1592 m 1,0,-1
 238 1592 l 1,1,-1
 266 1566 l 1,2,-1
 266 1062 l 1,3,-1
 266 733 l 1,4,5
 308 760 308 760 361 778 c 128,-1,6
 414 796 414 796 477 796 c 0,7,8
 583 796 583 796 674 747 c 128,-1,9
 765 698 765 698 820 614 c 0,10,11
 875 531 875 531 876 425 c 0,12,13
 876 321 876 321 848 250.5 c 128,-1,14
 820 180 820 180 778 133 c 1,15,-1
 796 133 l 2,16,17
 836 133 836 133 854 146 c 2,18,-1
 876 158 l 1,19,-1
 929 158 l 1,20,-1
 823 0 l 1,21,-1
 477 0 l 1,22,-1
 266 0 l 1,23,-1
 266 -266 l 1,24,-1
 266 -663 l 1,25,-1
 292 -663 l 1,26,-1
 319 -690 l 1,27,-1
 238 -796 l 1,28,-1
 133 -796 l 1,29,-1
 106 -770 l 1,30,-1
 106 -266 l 1,31,-1
 106 1062 l 1,32,-1
 106 1459 l 1,33,34
 66 1458 66 1458 34 1433 c 2,35,-1
 0 1406 l 1,36,-1
 -27 1433 l 1,37,-1
 133 1592 l 1,0,-1
425 663 m 0,38,39
 375 663 375 663 335 658 c 0,40,41
 296 652 296 652 266 644 c 1,42,-1
 266 133 l 1,43,-1
 644 133 l 1,44,45
 673 175 673 175 694.5 238.5 c 128,-1,46
 716 302 716 302 716 399 c 0,47,48
 716 500 716 500 649.5 581.5 c 128,-1,49
 583 663 583 663 425 663 c 0,38,39
EndSplineSet
Ligature2: "common ligs" P h
Ligature2: "common ligs" p h
EndChar

StartChar: r_d
Encoding: 65559 -1 100
Width: 975
VWidth: 5430
GlyphClass: 3
Flags: W
LayerCount: 2
Fore
SplineSet
106 796 m 1,0,-1
 212 796 l 1,1,-1
 238 770 l 1,2,-1
 550 98 l 1,3,-1
 663 212 l 2,4,5
 724 270 724 270 733.5 361 c 128,-1,6
 743 452 743 452 743 530 c 0,7,8
 743 588 743 588 707 639 c 128,-1,9
 671 690 671 690 610 690 c 0,10,11
 490 690 490 690 443 663 c 2,12,-1
 399 637 l 1,13,-1
 372 663 l 1,14,15
 403 698 l 0,16,17
 437 730 437 730 497 763 c 128,-1,18
 557 796 557 796 637 796 c 0,19,20
 757 796 757 796 829.5 723 c 128,-1,21
 902 650 902 650 902 530 c 0,22,23
 902 390 902 390 840 303 c 0,24,25
 778 216 778 216 716 158 c 2,26,-1
 345 -212 l 2,27,28
 287 -273 287 -273 276.5 -362.5 c 128,-1,29
 266 -452 266 -452 266 -530 c 0,30,31
 266 -591 266 -591 302.5 -640.5 c 128,-1,32
 339 -690 339 -690 399 -690 c 0,33,34
 518 -690 518 -690 562 -663 c 2,35,-1
 610 -637 l 1,36,-1
 637 -663 l 1,37,-1
 605 -698 l 2,38,39
 571 -730 571 -730 511.5 -763 c 128,-1,40
 452 -796 452 -796 372 -796 c 0,41,42
 252 -796 252 -796 179 -723 c 128,-1,43
 106 -650 106 -650 106 -530 c 0,44,45
 106 -391 106 -391 170 -306 c 0,46,47
 233 -220 233 -220 292 -158 c 2,48,-1
 417 -34 l 1,49,-1
 366 75 l 1,50,-1
 133 -158 l 2,51,52
 93 -198 93 -198 77 -241 c 128,-1,53
 61 -284 61 -284 56 -313 c 2,54,-1
 53 -345 l 1,55,-1
 -27 -452 l 1,56,-1
 -80 -452 l 1,57,-1
 -71 -399 l 2,58,59
 -66 -346 -66 -346 -33 -265.5 c 128,-1,60
 0 -185 0 -185 80 -106 c 2,61,-1
 335 149 l 1,62,-1
 106 663 l 1,63,-1
 53 663 l 1,64,-1
 27 690 l 1,65,-1
 106 796 l 1,0,-1
EndSplineSet
Ligature2: "common ligs" r d
EndChar

StartChar: s_h
Encoding: 65560 -1 101
Width: 975
VWidth: 5430
GlyphClass: 3
Flags: W
LayerCount: 2
Fore
SplineSet
796 1592 m 1,0,-1
 902 1592 l 1,1,-1
 929 1566 l 1,2,-1
 929 1062 l 1,3,-1
 929 266 l 1,4,-1
 929 133 l 1,5,-1
 956 133 l 2,6,7
 996 133 996 133 1016 146 c 2,8,-1
 1035 158 l 1,9,-1
 1087 158 l 1,10,-1
 982 0 l 1,11,-1
 929 0 l 1,12,-1
 770 0 l 1,13,-1
 770 104 l 1,14,15
 725 67 725 67 657 33.5 c 128,-1,16
 589 0 589 0 504 0 c 0,17,18
 398 0 398 0 307.5 49 c 128,-1,19
 217 98 217 98 161.5 182 c 128,-1,20
 106 266 106 266 106 372 c 0,21,22
 106 500 106 500 145.5 580.5 c 128,-1,23
 185 661 185 661 245.5 705 c 128,-1,24
 306 749 306 749 365.5 768.5 c 128,-1,25
 425 788 425 788 464 790 c 2,26,-1
 504 796 l 1,27,-1
 504 770 l 1,28,29
 470 760 l 0,30,31
 433 749 433 749 385 713 c 128,-1,32
 337 677 337 677 301.5 602.5 c 128,-1,33
 266 528 266 528 266 399 c 0,34,35
 266 301 266 301 332.5 217 c 128,-1,36
 399 133 399 133 557 133 c 0,37,38
 637 133 637 133 689 145 c 0,39,40
 742 157 742 157 770 173 c 1,41,-1
 770 266 l 1,42,-1
 770 1062 l 1,43,-1
 770 1459 l 1,44,45
 730 1458 730 1458 698 1433 c 2,46,-1
 663 1406 l 1,47,-1
 637 1433 l 1,48,-1
 796 1592 l 1,0,-1
EndSplineSet
Ligature2: "common ligs" S h
Ligature2: "common ligs" s h
Ligature2: "common ligs" s.vowel h
EndChar

StartChar: t_h
Encoding: 65561 -1 102
Width: 975
VWidth: 5430
GlyphClass: 3
Flags: W
LayerCount: 2
Fore
SplineSet
133 1592 m 1,0,-1
 238 1592 l 1,1,-1
 266 1566 l 1,2,-1
 266 1062 l 1,3,-1
 266 733 l 1,4,5
 308 760 308 760 361 778 c 128,-1,6
 414 796 414 796 477 796 c 0,7,8
 583 796 583 796 674 747 c 128,-1,9
 765 698 765 698 820 614 c 0,10,11
 875 531 875 531 876 425 c 0,12,13
 876 297 876 297 836 216 c 128,-1,14
 796 135 796 135 736.5 91.5 c 128,-1,15
 677 48 677 48 617 27.5 c 0,16,17
 558 7 558 7 518 2 c 2,18,-1
 477 0 l 1,19,-1
 477 27 l 1,20,-1
 512 37 l 0,21,22
 549 48 549 48 596.5 84 c 128,-1,23
 644 120 644 120 680 194 c 128,-1,24
 716 268 716 268 716 399 c 0,25,26
 716 500 716 500 650 581 c 0,27,28
 585 663 585 663 425 663 c 0,29,30
 375 663 375 663 335 658 c 0,31,32
 296 652 296 652 266 644 c 1,33,-1
 266 266 l 1,34,-1
 266 0 l 1,35,-1
 80 0 l 2,36,37
 40 0 40 0 18 -13 c 2,38,-1
 0 -27 l 1,39,-1
 -53 -27 l 1,40,-1
 53 133 l 1,41,-1
 106 133 l 1,42,-1
 106 266 l 1,43,-1
 106 1062 l 1,44,-1
 106 1459 l 1,45,46
 66 1458 66 1458 34 1433 c 2,47,-1
 0 1406 l 1,48,-1
 -27 1433 l 1,49,-1
 133 1592 l 1,0,-1
EndSplineSet
Ligature2: "common ligs" t h
Ligature2: "common ligs" T h
EndChar

StartChar: r.vowel
Encoding: 65562 -1 103
Width: 975
VWidth: 5430
GlyphClass: 2
Flags: W
LayerCount: 2
Fore
SplineSet
106 796 m 5,0,-1
 212 796 l 5,1,-1
 238 770 l 5,2,-1
 550 98 l 5,3,-1
 663 212 l 6,4,5
 724 273 724 273 733.5 362.5 c 132,-1,6
 743 452 743 452 743 530 c 4,7,8
 743 591 743 591 707 640.5 c 132,-1,9
 671 690 671 690 610 690 c 4,10,11
 490 690 490 690 443 663 c 6,12,-1
 399 637 l 5,13,-1
 372 663 l 5,14,15
 403 698 l 4,16,17
 437 730 437 730 497 763 c 132,-1,18
 557 796 557 796 637 796 c 4,19,20
 757 796 757 796 829.5 723 c 132,-1,21
 902 650 902 650 902 530 c 4,22,23
 902 391 902 391 840 306 c 4,24,25
 778 220 778 220 716 158 c 6,26,-1
 345 -212 l 6,27,28
 287 -270 287 -270 276.5 -361 c 132,-1,29
 266 -452 266 -452 266 -530 c 4,30,31
 266 -588 266 -588 302.5 -639 c 132,-1,32
 339 -690 339 -690 399 -690 c 4,33,34
 518 -690 518 -690 562 -663 c 6,35,-1
 610 -637 l 5,36,-1
 637 -663 l 5,37,-1
 605 -698 l 6,38,39
 571 -730 571 -730 511.5 -763 c 132,-1,40
 452 -796 452 -796 372 -796 c 4,41,42
 252 -796 252 -796 179 -723 c 132,-1,43
 106 -650 106 -650 106 -530 c 4,44,45
 106 -390 106 -390 170 -303 c 4,46,47
 233 -216 233 -216 292 -158 c 6,48,-1
 417 -34 l 5,49,-1
 106 663 l 5,50,-1
 53 663 l 5,51,-1
 27 690 l 5,52,-1
 106 796 l 5,0,-1
EndSplineSet
Substitution2: "end r" r
Substitution2: "silent e" r
EndChar

StartChar: s.vowel
Encoding: 65563 -1 104
Width: 975
VWidth: 5430
GlyphClass: 2
Flags: W
LayerCount: 2
Fore
SplineSet
238 -425 m 0,0,1
 238 -305 238 -305 286.5 -220 c 128,-1,2
 335 -135 335 -135 406 -68.5 c 128,-1,3
 477 -2 477 -2 549 63 c 128,-1,4
 621 128 621 128 668.5 207 c 128,-1,5
 716 286 716 286 716 399 c 0,6,7
 716 519 716 519 650 591 c 0,8,9
 585 663 585 663 425 663 c 0,10,11
 305 663 305 663 258.5 610 c 128,-1,12
 212 557 212 557 212 399 c 0,13,14
 212 333 212 333 252 285 c 128,-1,15
 292 237 292 237 331 210 c 2,16,-1
 372 185 l 1,17,-1
 372 158 l 1,18,-1
 238 80 l 1,19,-1
 204 114 l 0,20,21
 172 148 172 148 139 213.5 c 128,-1,22
 106 279 106 279 106 372 c 0,23,24
 106 452 106 452 140.5 527.5 c 128,-1,25
 175 603 175 603 232.5 663.5 c 128,-1,26
 290 724 290 724 354.5 760 c 128,-1,27
 419 796 419 796 477 796 c 0,28,29
 583 796 583 796 674 759 c 128,-1,30
 765 722 765 722 820 639 c 0,31,32
 875 558 875 558 876 425 c 0,33,34
 876 321 876 321 825 247 c 128,-1,35
 774 173 774 173 698.5 109 c 128,-1,36
 623 45 623 45 547.5 -24 c 128,-1,37
 472 -93 472 -93 422 -182 c 128,-1,38
 372 -271 372 -271 372 -399 c 0,39,40
 372 -518 372 -518 392 -580 c 0,41,42
 413 -642 413 -642 430 -666 c 2,43,-1
 452 -690 l 1,44,-1
 452 -716 l 1,45,-1
 319 -796 l 1,46,-1
 297 -745 l 2,47,48
 279 -697 279 -697 258.5 -614 c 128,-1,49
 238 -531 238 -531 238 -425 c 0,0,1
EndSplineSet
EndChar

StartChar: z.vowel
Encoding: 65564 -1 105
Width: 975
VWidth: 5430
GlyphClass: 2
Flags: W
LayerCount: 2
Fore
SplineSet
266 -796 m 1,0,-1
 238 -770 l 1,1,2
 286 -751 l 0,3,4
 334 -735 334 -735 405.5 -695 c 128,-1,5
 477 -655 477 -655 549 -591.5 c 128,-1,6
 621 -528 621 -528 669 -434 c 0,7,8
 717 -339 717 -339 716 -212 c 0,9,10
 716 -175 716 -175 700.5 -110 c 128,-1,11
 685 -45 685 -45 661 18 c 0,12,13
 637 81 637 81 610 106 c 1,14,15
 650 146 650 146 682 194 c 0,16,17
 715 243 715 243 716 290 c 0,18,19
 716 303 716 303 716 319 c 0,20,21
 716 477 716 477 650 570 c 0,22,23
 585 663 585 663 425 663 c 0,24,25
 305 663 305 663 258.5 610 c 128,-1,26
 212 557 212 557 212 399 c 0,27,28
 212 333 212 333 252 285 c 128,-1,29
 292 237 292 237 331 210 c 2,30,-1
 372 185 l 1,31,-1
 372 158 l 1,32,-1
 238 80 l 1,33,-1
 204 114 l 2,34,35
 172 148 172 148 139 213.5 c 128,-1,36
 106 279 106 279 106 372 c 0,37,38
 106 452 106 452 140.5 527.5 c 128,-1,39
 175 603 175 603 232.5 663.5 c 128,-1,40
 290 724 290 724 354.5 760 c 128,-1,41
 419 796 419 796 477 796 c 0,42,43
 583 796 583 796 674 743 c 128,-1,44
 765 690 765 690 820.5 583.5 c 128,-1,45
 876 477 876 477 876 319 c 0,46,47
 876 266 876 266 856 206 c 0,48,49
 835 146 835 146 796 106 c 1,50,51
 823 79 823 79 840.5 21 c 128,-1,52
 858 -37 858 -37 867 -102 c 128,-1,53
 876 -167 876 -167 876 -212 c 0,54,55
 876 -347 876 -347 815 -446.5 c 128,-1,56
 754 -546 754 -546 662.5 -613 c 128,-1,57
 571 -680 571 -680 479 -720 c 0,58,59
 387 -761 387 -761 358 -770 c 2,60,-1
 266 -796 l 1,0,-1
EndSplineSet
EndChar

StartChar: y.vowel
Encoding: 65565 -1 106
Width: 445
VWidth: 5430
GlyphClass: 2
Flags: W
LayerCount: 2
Fore
SplineSet
0 1433 m 1,0,-1
 207 1258 l 1,1,-1
 345 1459 l 1,2,-1
 399 1406 l 1,3,-1
 185 1087 l 1,4,-1
 -80 1300 l 1,5,-1
 0 1433 l 1,0,-1
106 796 m 1,6,-1
 238 796 l 1,7,-1
 266 770 l 1,8,-1
 266 610 l 1,9,-1
 266 266 l 1,10,-1
 266 0 l 1,11,-1
 80 0 l 2,12,13
 40 0 40 0 18 -13 c 2,14,-1
 0 -27 l 1,15,-1
 -53 -27 l 1,16,-1
 53 133 l 1,17,-1
 106 133 l 1,18,-1
 106 266 l 1,19,-1
 106 610 l 1,20,-1
 106 663 l 1,21,-1
 53 663 l 1,22,-1
 27 690 l 1,23,-1
 106 796 l 1,6,-1
EndSplineSet
Substitution2: "Cons vowel" y
Substitution2: "vowel diacritic tengwa" y.short
EndChar

StartChar: a_a
Encoding: 65566 -1 107
Width: 445
VWidth: 5430
GlyphClass: 3
Flags: W
LayerCount: 2
Fore
SplineSet
212 1194 m 1,0,-1
 319 1354 l 1,1,-1
 452 1247 l 1,2,-1
 345 1087 l 1,3,-1
 212 1194 l 1,0,-1
-106 1194 m 1,4,-1
 0 1354 l 1,5,-1
 133 1247 l 1,6,-1
 27 1087 l 1,7,-1
 -106 1194 l 1,4,-1
53 1354 m 1,8,-1
 158 1512 l 1,9,-1
 292 1406 l 1,10,-1
 185 1247 l 1,11,-1
 53 1354 l 1,8,-1
106 796 m 1,12,-1
 238 796 l 1,13,-1
 266 770 l 1,14,-1
 266 610 l 1,15,-1
 266 -266 l 1,16,-1
 266 -663 l 1,17,-1
 292 -663 l 1,18,-1
 319 -690 l 1,19,-1
 238 -796 l 1,20,-1
 133 -796 l 1,21,-1
 106 -770 l 1,22,-1
 106 -266 l 1,23,-1
 106 610 l 1,24,-1
 106 663 l 1,25,-1
 53 663 l 1,26,-1
 27 690 l 1,27,-1
 106 796 l 1,12,-1
EndSplineSet
Ligature2: "long stem" a a
EndChar

StartChar: e_e
Encoding: 65567 -1 108
Width: 445
VWidth: 5430
GlyphClass: 3
Flags: W
LayerCount: 2
Fore
SplineSet
106 1087 m 1,0,-1
 53 1114 l 1,1,-1
 292 1512 l 1,2,-1
 425 1459 l 1,3,-1
 399 1406 l 1,4,-1
 106 1087 l 1,0,-1
106 796 m 1,5,-1
 238 796 l 1,6,-1
 266 770 l 1,7,-1
 266 610 l 1,8,-1
 266 -266 l 1,9,-1
 266 -663 l 1,10,-1
 292 -663 l 1,11,-1
 319 -690 l 1,12,-1
 238 -796 l 1,13,-1
 133 -796 l 1,14,-1
 106 -770 l 1,15,-1
 106 -266 l 1,16,-1
 106 610 l 1,17,-1
 106 663 l 1,18,-1
 53 663 l 1,19,-1
 27 690 l 1,20,-1
 106 796 l 1,5,-1
EndSplineSet
Ligature2: "long stem" e e
EndChar

StartChar: i_i
Encoding: 65568 -1 109
Width: 445
VWidth: 5430
GlyphClass: 3
Flags: W
LayerCount: 2
Fore
SplineSet
53 1194 m 1,0,-1
 158 1354 l 1,1,-1
 292 1247 l 1,2,-1
 185 1087 l 1,3,-1
 53 1194 l 1,0,-1
106 796 m 1,4,-1
 238 796 l 1,5,-1
 266 770 l 1,6,-1
 266 610 l 1,7,-1
 266 -266 l 1,8,-1
 266 -663 l 1,9,-1
 292 -663 l 1,10,-1
 319 -690 l 1,11,-1
 238 -796 l 1,12,-1
 133 -796 l 1,13,-1
 106 -770 l 1,14,-1
 106 -266 l 1,15,-1
 106 610 l 1,16,-1
 106 663 l 1,17,-1
 53 663 l 1,18,-1
 27 690 l 1,19,-1
 106 796 l 1,4,-1
EndSplineSet
Ligature2: "long stem" i i
EndChar

StartChar: o_o
Encoding: 65569 -1 110
Width: 445
VWidth: 5430
GlyphClass: 3
Flags: W
LayerCount: 2
Fore
SplineSet
53 1114 m 1,0,1
 71 1160 l 0,2,3
 89 1205 89 1205 123 1261.5 c 128,-1,4
 157 1318 157 1318 199.5 1362 c 128,-1,5
 242 1406 242 1406 292 1406 c 0,6,7
 358 1406 358 1406 392 1366 c 0,8,9
 428 1326 428 1326 441 1287 c 2,10,-1
 452 1247 l 1,11,-1
 399 1220 l 1,12,-1
 393 1235 l 2,13,14
 391 1248 391 1248 368 1261 c 128,-1,15
 345 1274 345 1274 292 1274 c 0,16,17
 252 1274 252 1274 218 1246.5 c 128,-1,18
 184 1219 184 1219 159.5 1181.5 c 128,-1,19
 135 1144 135 1144 120 1117 c 2,20,-1
 106 1087 l 1,21,-1
 53 1114 l 1,0,1
106 796 m 1,22,-1
 238 796 l 1,23,-1
 266 770 l 1,24,-1
 266 610 l 1,25,-1
 266 -266 l 1,26,-1
 266 -663 l 1,27,-1
 292 -663 l 1,28,-1
 319 -690 l 1,29,-1
 238 -796 l 1,30,-1
 133 -796 l 1,31,-1
 106 -770 l 1,32,-1
 106 -266 l 1,33,-1
 106 610 l 1,34,-1
 106 663 l 1,35,-1
 53 663 l 1,36,-1
 27 690 l 1,37,-1
 106 796 l 1,22,-1
EndSplineSet
Ligature2: "long stem" o o
EndChar

StartChar: u_u
Encoding: 65570 -1 111
Width: 445
VWidth: 5430
GlyphClass: 3
Flags: W
LayerCount: 2
Fore
SplineSet
106 1087 m 1,0,-1
 53 1114 l 1,1,2
 91 1146 l 0,3,4
 128 1175 128 1175 165 1224 c 0,5,6
 202 1273 202 1273 202 1327 c 256,7,8
 202 1380 202 1380 178.5 1409 c 128,-1,9
 155 1438 155 1438 130 1449 c 2,10,-1
 106 1459 l 1,11,-1
 130 1508 l 1,12,-1
 158 1505 l 2,13,14
 187 1503 187 1503 225 1491 c 128,-1,15
 263 1479 263 1479 291 1447 c 128,-1,16
 319 1415 319 1415 319 1354 c 0,17,18
 319 1304 319 1304 287 1257 c 128,-1,19
 255 1210 255 1210 212 1171.5 c 128,-1,20
 169 1133 169 1133 155 1122 c 2,21,-1
 106 1087 l 1,0,-1
106 796 m 1,22,-1
 238 796 l 1,23,-1
 266 770 l 1,24,-1
 266 610 l 1,25,-1
 266 -266 l 1,26,-1
 266 -663 l 1,27,-1
 292 -663 l 1,28,-1
 319 -690 l 1,29,-1
 238 -796 l 1,30,-1
 133 -796 l 1,31,-1
 106 -770 l 1,32,-1
 106 -266 l 1,33,-1
 106 610 l 1,34,-1
 106 663 l 1,35,-1
 53 663 l 1,36,-1
 27 690 l 1,37,-1
 106 796 l 1,22,-1
EndSplineSet
Ligature2: "long stem" u u
EndChar

StartChar: y_y
Encoding: 65571 -1 112
Width: 445
VWidth: 5430
GlyphClass: 3
Flags: W
LayerCount: 2
Fore
SplineSet
0 1433 m 1,0,-1
 207 1258 l 1,1,-1
 345 1459 l 1,2,-1
 399 1406 l 1,3,-1
 185 1087 l 1,4,-1
 -80 1300 l 1,5,-1
 0 1433 l 1,0,-1
106 796 m 1,6,-1
 238 796 l 1,7,-1
 266 770 l 1,8,-1
 266 610 l 1,9,-1
 266 -266 l 1,10,-1
 266 -663 l 1,11,-1
 292 -663 l 1,12,-1
 319 -690 l 1,13,-1
 238 -796 l 1,14,-1
 133 -796 l 1,15,-1
 106 -770 l 1,16,-1
 106 -266 l 1,17,-1
 106 610 l 1,18,-1
 106 663 l 1,19,-1
 53 663 l 1,20,-1
 27 690 l 1,21,-1
 106 796 l 1,6,-1
EndSplineSet
Ligature2: "long stem" y.vowel y
Ligature2: "long stem" y.vowel y.vowel
EndChar

StartChar: double_consonant.short
Encoding: 65572 -1 113
Width: 0
VWidth: 5430
GlyphClass: 2
Flags: W
LayerCount: 2
Fore
SplineSet
716 -266 m 1,0,-1
 185 -266 l 2,1,2
 145 -267 145 -267 124 -279 c 2,3,-1
 106 -292 l 1,4,-1
 53 -292 l 1,5,-1
 158 -133 l 1,6,-1
 690 -133 l 2,7,8
 730 -133 730 -133 749 -120 c 2,9,-1
 770 -106 l 1,10,-1
 823 -106 l 1,11,-1
 716 -266 l 1,0,-1
EndSplineSet
EndChar

StartChar: double_consonant.long
Encoding: 65573 -1 114
Width: 0
VWidth: 5430
GlyphClass: 2
Flags: W
LayerCount: 2
Fore
SplineSet
106 -292 m 1,0,-1
 53 -292 l 1,1,-1
 158 -133 l 1,2,-1
 1220 -133 l 2,3,4
 1260 -133 1260 -133 1279 -120 c 2,5,-1
 1300 -106 l 1,6,-1
 1354 -106 l 1,7,-1
 1247 -266 l 1,8,-1
 185 -266 l 2,9,10
 145 -267 145 -267 135 -274 c 2,11,-1
 106 -292 l 1,0,-1
EndSplineSet
EndChar

StartChar: pren.short
Encoding: 65574 -1 115
Width: 0
VWidth: 5430
GlyphClass: 2
Flags: W
LayerCount: 2
Fore
SplineSet
716 902 m 5,0,-1
 185 902 l 6,1,2
 145 902 145 902 124 889 c 6,3,-1
 106 876 l 5,4,-1
 53 876 l 5,5,-1
 158 1035 l 5,6,-1
 690 1035 l 6,7,8
 730 1034 730 1034 749 1048 c 6,9,-1
 770 1062 l 5,10,-1
 823 1062 l 5,11,-1
 716 902 l 5,0,-1
EndSplineSet
EndChar

StartChar: pren.long
Encoding: 65575 -1 116
Width: 0
VWidth: 5430
GlyphClass: 2
Flags: W
LayerCount: 2
Fore
SplineSet
1247 902 m 5,0,-1
 185 902 l 6,1,2
 145 902 145 902 124 889 c 6,3,-1
 106 876 l 5,4,-1
 53 876 l 5,5,-1
 158 1035 l 5,6,-1
 1220 1035 l 6,7,8
 1260 1034 1260 1034 1279 1048 c 6,9,-1
 1300 1062 l 5,10,-1
 1354 1062 l 5,11,-1
 1247 902 l 5,0,-1
EndSplineSet
EndChar

StartChar: s_trail.low
Encoding: 65576 -1 117
Width: 975
VWidth: 5430
GlyphClass: 2
Flags: W
LayerCount: 2
Fore
SplineSet
716 -238 m 0,0,1
 716 -118 716 -118 663 -59 c 128,-1,2
 610 0 610 0 530 0 c 2,3,-1
 -477 0 l 1,4,-1
 -504 27 l 1,5,-1
 -425 133 l 1,6,-1
 372 133 l 2,7,8
 557 133 557 133 667.5 77.5 c 128,-1,9
 778 22 778 22 827 -68 c 128,-1,10
 876 -158 876 -158 876 -266 c 0,11,12
 876 -412 876 -412 820.5 -505.5 c 128,-1,13
 765 -599 765 -599 675 -645 c 0,14,15
 584 -690 584 -690 477 -690 c 0,16,17
 397 -690 397 -690 334 -662 c 128,-1,18
 271 -634 271 -634 225.5 -597 c 128,-1,19
 180 -560 180 -560 157 -530 c 2,20,-1
 133 -504 l 1,21,-1
 158 -477 l 1,22,-1
 180 -499 l 0,23,24
 203 -517 203 -517 261 -537 c 128,-1,25
 319 -557 319 -557 425 -557 c 0,26,27
 583 -557 583 -557 649.5 -467 c 128,-1,28
 716 -377 716 -377 716 -238 c 0,0,1
EndSplineSet
EndChar

StartChar: s_trail.high
Encoding: 65577 -1 118
Width: 975
VWidth: 5430
GlyphClass: 2
Flags: W
LayerCount: 2
Fore
SplineSet
530 663 m 6,0,-1
 -584 663 l 5,1,-1
 -610 690 l 5,2,-1
 -530 796 l 5,3,-1
 372 796 l 6,4,5
 557 796 557 796 667.5 740.5 c 132,-1,6
 778 685 778 685 827 594.5 c 132,-1,7
 876 504 876 504 876 399 c 4,8,9
 876 253 876 253 820.5 158.5 c 132,-1,10
 765 64 765 64 675 18 c 4,11,12
 584 -27 584 -27 477 -27 c 4,13,14
 397 -27 397 -27 334 1 c 132,-1,15
 271 29 271 29 225 66 c 4,16,17
 180 104 180 104 157 133 c 6,18,-1
 133 158 l 5,19,-1
 158 185 l 5,20,-1
 180 164 l 4,21,22
 203 146 203 146 261 126 c 132,-1,23
 319 106 319 106 425 106 c 4,24,25
 583 106 583 106 649.5 196 c 132,-1,26
 716 286 716 286 716 425 c 4,27,28
 716 545 716 545 663 604 c 132,-1,29
 610 663 610 663 530 663 c 6,0,-1
EndSplineSet
EndChar

StartChar: b_b
Encoding: 65578 -1 119
Width: 1507
VWidth: 5430
GlyphClass: 3
Flags: W
LayerCount: 2
Fore
SplineSet
106 796 m 1,0,-1
 238 796 l 1,1,-1
 266 770 l 1,2,-1
 266 733 l 5,3,4
 308 760 308 760 361 778 c 132,-1,5
 414 796 414 796 477 796 c 4,6,7
 634 796 634 796 749 698 c 5,8,9
 794 732 794 732 859.5 764 c 132,-1,10
 925 796 925 796 1009 796 c 4,11,12
 1115 796 1115 796 1205 747 c 132,-1,13
 1295 698 1295 698 1350 614 c 4,14,15
 1405 531 1405 531 1406 425 c 4,16,17
 1406 321 1406 321 1378.5 250.5 c 132,-1,18
 1351 180 1351 180 1308 133 c 5,19,-1
 1327 133 l 6,20,21
 1367 133 1367 133 1386 146 c 6,22,-1
 1406 158 l 5,23,-1
 1459 158 l 5,24,-1
 1354 0 l 5,25,-1
 266 0 l 5,26,-1
 266 -133 l 1,27,-1
 1220 -133 l 2,28,29
 1260 -133 1260 -133 1279 -120 c 2,30,-1
 1300 -106 l 1,31,-1
 1354 -106 l 1,32,-1
 1247 -266 l 1,33,-1
 266 -266 l 1,34,-1
 266 -663 l 1,35,-1
 292 -663 l 1,36,-1
 319 -690 l 1,37,-1
 238 -796 l 1,38,-1
 133 -796 l 1,39,-1
 106 -770 l 1,40,-1
 106 -266 l 1,41,-1
 106 610 l 1,42,-1
 106 663 l 1,43,-1
 53 663 l 1,44,-1
 27 690 l 1,45,-1
 106 796 l 1,0,-1
425 663 m 4,46,47
 375 663 375 663 335 658 c 4,48,49
 296 652 296 652 266 644 c 5,50,-1
 266 610 l 5,51,-1
 266 133 l 5,52,-1
 644 133 l 5,53,54
 673 175 673 175 694.5 238.5 c 132,-1,55
 716 302 716 302 716 399 c 4,56,57
 716 500 716 500 649.5 581.5 c 132,-1,58
 583 663 583 663 425 663 c 4,46,47
956 663 m 4,59,60
 906 663 906 663 867 658 c 4,61,62
 828 652 828 652 799 644 c 5,63,64
 836 599 836 599 856 543.5 c 132,-1,65
 876 488 876 488 876 425 c 4,66,67
 876 321 876 321 848 250.5 c 132,-1,68
 820 180 820 180 778 133 c 5,69,-1
 1175 133 l 5,70,71
 1204 175 1204 175 1225.5 238.5 c 132,-1,72
 1247 302 1247 302 1247 399 c 4,73,74
 1247 500 1247 500 1180.5 581.5 c 132,-1,75
 1114 663 1114 663 956 663 c 4,59,60
EndSplineSet
LCarets2: 1 0
Ligature2: "geminated" b b
EndChar

StartChar: c_c
Encoding: 65579 -1 120
Width: 1029
VWidth: 5430
GlyphClass: 3
LigCaretCntFixed: 1
Flags: W
LayerCount: 2
Fore
SplineSet
158 796 m 1,0,-1
 504 796 l 1,1,-1
 817 796 l 1,2,-1
 823 796 l 1,3,-1
 956 796 l 1,4,-1
 982 770 l 1,5,-1
 902 663 l 1,6,-1
 876 663 l 1,7,-1
 876 530 l 1,8,-1
 876 -266 l 1,9,-1
 876 -663 l 1,10,-1
 902 -663 l 1,11,-1
 929 -690 l 1,12,-1
 849 -796 l 1,13,-1
 743 -796 l 1,14,-1
 716 -770 l 1,15,-1
 716 -266 l 1,16,-1
 292 -266 l 2,17,18
 252 -267 252 -267 231 -279 c 2,19,-1
 212 -292 l 1,20,-1
 158 -292 l 1,21,-1
 266 -133 l 1,22,-1
 716 -133 l 1,23,-1
 716 64 l 1,24,25
 674 37 674 37 621 18 c 0,26,27
 567 0 567 0 504 0 c 0,28,29
 398 0 398 0 307.5 49 c 128,-1,30
 217 98 217 98 161.5 182 c 128,-1,31
 106 266 106 266 106 372 c 0,32,33
 106 476 106 476 134 546 c 128,-1,34
 162 616 162 616 204 663 c 1,35,-1
 185 663 l 2,36,37
 145 662 145 662 124 650 c 2,38,-1
 106 637 l 1,39,-1
 53 637 l 1,40,-1
 158 796 l 1,0,-1
337 663 m 1,41,42
 308 621 308 621 287 557 c 128,-1,43
 266 493 266 493 266 399 c 0,44,45
 266 301 266 301 332.5 217 c 128,-1,46
 399 133 399 133 557 133 c 0,47,48
 607 133 607 133 647 139 c 0,49,50
 687 144 687 144 716 151 c 1,51,-1
 716 530 l 1,52,-1
 716 663 l 1,53,-1
 337 663 l 1,41,42
EndSplineSet
Ligature2: "geminated" c c
Ligature2: "geminated" k c
LCarets2: 1 -584
EndChar

StartChar: d_d
Encoding: 65580 -1 121
Width: 1507
VWidth: 5430
GlyphClass: 3
Flags: W
LayerCount: 2
Fore
SplineSet
106 796 m 1,0,-1
 238 796 l 1,1,-1
 266 770 l 1,2,-1
 266 733 l 1,3,4
 308 760 308 760 361 778 c 128,-1,5
 414 796 414 796 477 796 c 0,6,7
 634 796 634 796 749 698 c 1,8,9
 794 732 794 732 859.5 764 c 128,-1,10
 925 796 925 796 1009 796 c 0,11,12
 1115 796 1115 796 1205 747 c 128,-1,13
 1295 698 1295 698 1350 614 c 0,14,15
 1405 531 1405 531 1406 425 c 0,16,17
 1406 297 1406 297 1366.5 216 c 128,-1,18
 1327 135 1327 135 1267.5 91.5 c 128,-1,19
 1208 48 1208 48 1147.5 27.5 c 0,20,21
 1086 7 1086 7 1048 2 c 2,22,-1
 1009 0 l 1,23,-1
 1009 27 l 1,24,-1
 1046 37 l 0,25,26
 1083 48 1083 48 1129 84 c 128,-1,27
 1175 120 1175 120 1211 194 c 128,-1,28
 1247 268 1247 268 1247 399 c 0,29,30
 1247 500 1247 500 1180.5 581.5 c 128,-1,31
 1114 663 1114 663 956 663 c 0,32,33
 906 663 906 663 867 658 c 0,34,35
 828 652 828 652 799 644 c 1,36,37
 836 599 836 599 856 543.5 c 128,-1,38
 876 488 876 488 876 425 c 0,39,40
 876 297 876 297 836 216 c 128,-1,41
 796 135 796 135 736.5 91.5 c 128,-1,42
 677 48 677 48 617 27.5 c 0,43,44
 558 7 558 7 518 2 c 2,45,-1
 477 0 l 1,46,-1
 477 27 l 1,47,-1
 512 37 l 2,48,49
 549 48 549 48 596.5 84 c 128,-1,50
 644 120 644 120 680 194 c 128,-1,51
 716 268 716 268 716 399 c 0,52,53
 716 500 716 500 650 581 c 0,54,55
 585 663 585 663 425 663 c 0,56,57
 375 663 375 663 335 658 c 0,58,59
 296 652 296 652 266 644 c 1,60,-1
 266 610 l 1,61,-1
 266 -133 l 5,62,-1
 1220 -133 l 2,63,64
 1260 -133 1260 -133 1279 -120 c 6,65,-1
 1300 -106 l 5,66,-1
 1354 -106 l 5,67,-1
 1247 -266 l 5,68,-1
 266 -266 l 5,69,-1
 266 -663 l 1,70,-1
 292 -663 l 1,71,-1
 319 -690 l 1,72,-1
 238 -796 l 1,73,-1
 133 -796 l 1,74,-1
 106 -770 l 1,75,-1
 106 -266 l 1,76,-1
 106 610 l 1,77,-1
 106 663 l 1,78,-1
 53 663 l 1,79,-1
 27 690 l 1,80,-1
 106 796 l 1,0,-1
EndSplineSet
LCarets2: 1 0
Ligature2: "geminated" d d
EndChar

StartChar: f_f
Encoding: 65581 -1 122
Width: 975
VWidth: 5430
GlyphClass: 3
Flags: W
LayerCount: 2
Fore
SplineSet
133 1592 m 1,0,-1
 238 1592 l 1,1,-1
 266 1566 l 1,2,-1
 266 1062 l 1,3,-1
 266 733 l 1,4,5
 308 760 308 760 361 778 c 128,-1,6
 414 796 414 796 477 796 c 0,7,8
 583 796 583 796 674 747 c 128,-1,9
 765 698 765 698 820 614 c 0,10,11
 875 531 875 531 876 425 c 0,12,13
 876 321 876 321 848 250.5 c 128,-1,14
 820 180 820 180 778 133 c 1,15,-1
 796 133 l 2,16,17
 836 133 836 133 854 146 c 2,18,-1
 876 158 l 1,19,-1
 929 158 l 1,20,-1
 823 0 l 1,21,-1
 477 0 l 1,22,-1
 266 0 l 1,23,-1
 80 0 l 2,24,25
 40 0 40 0 18 -13 c 2,26,-1
 0 -27 l 1,27,-1
 -53 -27 l 1,28,-1
 53 133 l 1,29,-1
 106 133 l 1,30,-1
 106 266 l 1,31,-1
 106 1062 l 1,32,-1
 106 1459 l 1,33,34
 66 1458 66 1458 34 1433 c 2,35,-1
 0 1406 l 1,36,-1
 -27 1433 l 1,37,-1
 133 1592 l 1,0,-1
425 663 m 0,38,39
 375 663 375 663 335 658 c 0,40,41
 296 652 296 652 266 644 c 1,42,-1
 266 266 l 1,43,-1
 266 133 l 1,44,-1
 644 133 l 1,45,46
 673 175 673 175 694.5 238.5 c 128,-1,47
 716 302 716 302 716 399 c 0,48,49
 716 500 716 500 649.5 581.5 c 128,-1,50
 583 663 583 663 425 663 c 0,38,39
770 -106 m 1,51,-1
 823 -106 l 1,52,-1
 716 -266 l 1,53,-1
 185 -266 l 2,54,55
 145 -267 145 -267 124 -279 c 2,56,-1
 106 -292 l 1,57,-1
 53 -292 l 1,58,-1
 158 -133 l 1,59,-1
 690 -133 l 2,60,61
 730 -133 730 -133 741 -124 c 2,62,-1
 770 -106 l 1,51,-1
EndSplineSet
Ligature2: "geminated" f f
EndChar

StartChar: g_g
Encoding: 65582 -1 123
Width: 1507
VWidth: 5430
GlyphClass: 3
LigCaretCntFixed: 1
Flags: W
LayerCount: 2
Fore
SplineSet
158 796 m 1,0,-1
 504 796 l 1,1,-1
 1035 796 l 1,2,-1
 1348 796 l 1,3,-1
 1354 796 l 1,4,-1
 1486 796 l 1,5,-1
 1512 770 l 1,6,-1
 1433 663 l 1,7,-1
 1406 663 l 1,8,-1
 1406 530 l 1,9,-1
 1406 -266 l 1,10,-1
 1406 -663 l 1,11,-1
 1433 -663 l 1,12,-1
 1459 -690 l 1,13,-1
 1381 -796 l 1,14,-1
 1274 -796 l 1,15,-1
 1247 -770 l 1,16,-1
 1247 -266 l 1,17,-1
 292 -266 l 2,18,19
 252 -267 252 -267 231 -279 c 2,20,-1
 212 -292 l 1,21,-1
 158 -292 l 1,22,-1
 266 -133 l 1,23,-1
 1247 -133 l 1,24,-1
 1247 64 l 1,25,26
 1205 37 1205 37 1151.5 18.5 c 128,-1,27
 1098 0 1098 0 1035 0 c 0,28,29
 878 0 878 0 765 98 c 1,30,31
 720 64 720 64 653.5 32 c 128,-1,32
 587 0 587 0 504 0 c 0,33,34
 398 0 398 0 307.5 49 c 128,-1,35
 217 98 217 98 161.5 182 c 128,-1,36
 106 266 106 266 106 372 c 0,37,38
 106 476 106 476 134 546 c 128,-1,39
 162 616 162 616 204 663 c 1,40,-1
 185 663 l 2,41,42
 145 662 145 662 124 650 c 2,43,-1
 106 637 l 1,44,-1
 53 637 l 1,45,-1
 158 796 l 1,0,-1
337 663 m 1,46,47
 308 621 308 621 287 557 c 128,-1,48
 266 493 266 493 266 399 c 0,49,50
 266 301 266 301 332.5 217 c 128,-1,51
 399 133 399 133 557 133 c 0,52,53
 607 133 607 133 646 138.5 c 128,-1,54
 685 144 685 144 714 151 c 1,55,56
 677 196 677 196 657 252 c 128,-1,57
 637 308 637 308 637 372 c 0,58,59
 637 476 637 476 664.5 546 c 128,-1,60
 692 616 692 616 735 663 c 1,61,-1
 337 663 l 1,46,47
868 663 m 1,62,63
 839 621 839 621 817.5 557 c 128,-1,64
 796 493 796 493 796 399 c 0,65,66
 796 301 796 301 862.5 217 c 128,-1,67
 929 133 929 133 1087 133 c 0,68,69
 1137 133 1137 133 1178 138.5 c 128,-1,70
 1219 144 1219 144 1247 151 c 1,71,-1
 1247 530 l 1,72,-1
 1247 663 l 1,73,-1
 868 663 l 1,62,63
EndSplineSet
Ligature2: "geminated" g g
LCarets2: 1 -932
EndChar

StartChar: h_h
Encoding: 65583 -1 124
Width: 975
VWidth: 5430
GlyphClass: 3
Flags: W
LayerCount: 2
Fore
SplineSet
80 1592 m 1,0,-1
 158 1592 l 1,1,-1
 185 1566 l 1,2,-1
 823 133 l 1,3,-1
 849 133 l 2,4,5
 889 133 889 133 911 146 c 2,6,-1
 929 158 l 1,7,-1
 982 158 l 1,8,-1
 876 0 l 1,9,-1
 823 0 l 1,10,-1
 690 0 l 1,11,-1
 414 634 l 1,12,-1
 158 0 l 1,13,-1
 80 0 l 2,14,15
 40 0 40 0 18 -13 c 2,16,-1
 0 -27 l 1,17,-1
 -53 -27 l 1,18,-1
 53 133 l 1,19,-1
 106 133 l 1,20,-1
 358 761 l 1,21,-1
 53 1459 l 1,22,23
 13 1458 13 1458 -22 1433 c 2,24,-1
 -53 1406 l 1,25,-1
 -80 1433 l 1,26,-1
 80 1592 l 1,0,-1
770 -106 m 1,27,-1
 823 -106 l 1,28,-1
 716 -266 l 1,29,-1
 185 -266 l 2,30,31
 145 -267 145 -267 124 -279 c 2,32,-1
 106 -292 l 1,33,-1
 53 -292 l 1,34,-1
 158 -133 l 1,35,-1
 690 -133 l 2,36,37
 730 -133 730 -133 741 -124 c 2,38,-1
 770 -106 l 1,27,-1
EndSplineSet
Ligature2: "geminated" h h
EndChar

StartChar: j_j
Encoding: 65584 -1 125
Width: 1507
VWidth: 5430
GlyphClass: 3
LigCaretCntFixed: 1
Flags: W
LayerCount: 2
Fore
SplineSet
504 796 m 5,0,-1
 504 770 l 5,1,2
 470 760 l 4,3,4
 433 749 433 749 385 713 c 132,-1,5
 337 677 337 677 301.5 602.5 c 132,-1,6
 266 528 266 528 266 399 c 4,7,8
 266 301 266 301 332.5 217 c 132,-1,9
 399 133 399 133 557 133 c 4,10,11
 607 133 607 133 646 138.5 c 132,-1,12
 685 144 685 144 714 151 c 5,13,14
 677 196 677 196 657 252 c 132,-1,15
 637 308 637 308 637 372 c 4,16,17
 637 500 637 500 676.5 580.5 c 132,-1,18
 716 661 716 661 776 705 c 132,-1,19
 836 749 836 749 896 768.5 c 132,-1,20
 956 788 956 788 994 790 c 6,21,-1
 1035 796 l 5,22,-1
 1035 770 l 5,23,-1
 998 760 l 6,24,25
 961 749 961 749 914.5 713 c 132,-1,26
 868 677 868 677 832 602.5 c 132,-1,27
 796 528 796 528 796 399 c 4,28,29
 796 301 796 301 862.5 217 c 132,-1,30
 929 133 929 133 1087 133 c 4,31,32
 1137 133 1137 133 1178 138.5 c 132,-1,33
 1219 144 1219 144 1247 151 c 5,34,-1
 1247 530 l 5,35,-1
 1247 663 l 5,36,-1
 1348 796 l 5,37,-1
 1486 796 l 5,38,-1
 1512 770 l 5,39,-1
 1433 663 l 5,40,-1
 1406 663 l 5,41,-1
 1406 530 l 5,42,-1
 1406 -266 l 5,43,-1
 1406 -663 l 5,44,-1
 1433 -663 l 5,45,-1
 1459 -690 l 5,46,-1
 1381 -796 l 5,47,-1
 1274 -796 l 5,48,-1
 1247 -770 l 5,49,-1
 1247 -266 l 5,50,-1
 292 -266 l 6,51,52
 252 -267 252 -267 231 -279 c 6,53,-1
 212 -292 l 5,54,-1
 158 -292 l 5,55,-1
 266 -133 l 5,56,-1
 1247 -133 l 5,57,-1
 1247 64 l 5,58,59
 1205 37 1205 37 1151.5 18.5 c 132,-1,60
 1098 0 1098 0 1035 0 c 4,61,62
 878 0 878 0 765 98 c 5,63,64
 720 64 720 64 653.5 32 c 132,-1,65
 587 0 587 0 504 0 c 4,66,67
 398 0 398 0 307.5 49 c 132,-1,68
 217 98 217 98 161.5 182 c 132,-1,69
 106 266 106 266 106 372 c 4,70,71
 106 500 106 500 145.5 580.5 c 132,-1,72
 185 661 185 661 245.5 705 c 132,-1,73
 306 749 306 749 365.5 768.5 c 132,-1,74
 425 788 425 788 443 790 c 6,75,-1
 504 796 l 5,0,-1
EndSplineSet
Ligature2: "geminated" j j
LCarets2: 1 -968
EndChar

StartChar: k_k
Encoding: 65585 -1 126
Width: 923
VWidth: 5430
GlyphClass: 3
Flags: W
LayerCount: 2
Fore
SplineSet
53 796 m 1,0,-1
 399 796 l 1,1,-1
 711 796 l 1,2,-1
 716 796 l 1,3,-1
 849 796 l 1,4,-1
 876 770 l 1,5,-1
 796 663 l 1,6,-1
 770 663 l 1,7,-1
 770 530 l 1,8,-1
 770 -266 l 1,9,-1
 770 -663 l 1,10,-1
 796 -663 l 1,11,-1
 823 -690 l 1,12,-1
 743 -796 l 1,13,-1
 637 -796 l 1,14,-1
 610 -770 l 1,15,-1
 610 -266 l 1,16,-1
 185 -266 l 2,17,18
 145 -267 145 -267 124 -279 c 2,19,-1
 106 -292 l 1,20,-1
 53 -292 l 1,21,-1
 158 -133 l 1,22,-1
 610 -133 l 1,23,-1
 610 64 l 1,24,25
 568 37 568 37 515.5 18.5 c 128,-1,26
 463 0 463 0 399 0 c 0,27,28
 293 0 293 0 202.5 49 c 128,-1,29
 112 98 112 98 56 182 c 128,-1,30
 0 266 0 266 0 372 c 0,31,32
 0 476 0 476 28 546 c 128,-1,33
 56 616 56 616 98 663 c 1,34,-1
 80 663 l 2,35,36
 40 662 40 662 18 650 c 2,37,-1
 0 637 l 1,38,-1
 -53 637 l 1,39,-1
 53 796 l 1,0,-1
231 663 m 1,40,41
 202 621 202 621 180 557 c 128,-1,42
 158 493 158 493 158 399 c 0,43,44
 158 301 158 301 225 217 c 128,-1,45
 292 133 292 133 452 133 c 0,46,47
 502 133 502 133 541.5 138.5 c 128,-1,48
 581 144 581 144 610 151 c 1,49,-1
 610 530 l 1,50,-1
 610 663 l 1,51,-1
 231 663 l 1,40,41
EndSplineSet
Ligature2: "geminated" k k
EndChar

StartChar: l_l
Encoding: 65586 -1 127
Width: 943
VWidth: 4925
GlyphClass: 3
Flags: W
LayerCount: 2
Fore
SplineSet
891 747 m 1,0,-1
 939 747 l 1,1,-1
 842 602 l 1,2,-1
 457 602 l 1,3,-1
 330 602 l 1,4,5
 297 560 297 560 269 488 c 0,6,7
 241 418 241 418 241 313 c 0,8,9
 241 151 241 151 331 51 c 128,-1,10
 421 -49 421 -49 601 -49 c 0,11,12
 696 -49 696 -49 750 -31 c 0,13,14
 801 -14 801 -14 823 4 c 2,15,-1
 842 23 l 1,16,-1
 866 0 l 1,17,-1
 845 -27 l 0,18,19
 823 -50 823 -50 782.5 -83.5 c 128,-1,20
 742 -117 742 -117 684 -142.5 c 128,-1,21
 626 -168 626 -168 554 -168 c 0,22,23
 433 -168 433 -168 328 -119 c 128,-1,24
 223 -70 223 -70 160 31 c 0,25,26
 97 133 97 133 96 290 c 0,27,28
 96 403 96 403 131 478.5 c 128,-1,29
 166 554 166 554 216 602 c 1,30,-1
 167 602 l 2,31,32
 131 601 131 601 113 589 c 2,33,-1
 96 578 l 1,34,-1
 49 578 l 1,35,-1
 144 722 l 1,36,-1
 185 722 l 1,37,-1
 457 722 l 1,38,-1
 520 722 l 2,39,40
 580 722 580 722 664.5 722 c 128,-1,41
 749 722 749 722 818 722 c 0,42,43
 854 722 854 722 862 729 c 2,44,-1
 891 747 l 1,0,-1
842 385 m 1,45,-1
 891 385 l 1,46,-1
 794 240 l 1,47,-1
 409 240 l 2,48,49
 373 240 373 240 353 229 c 2,50,-1
 337 216 l 1,51,-1
 289 216 l 1,52,-1
 385 361 l 1,53,-1
 770 361 l 2,54,55
 806 360 806 360 816 365 c 2,56,-1
 842 385 l 1,45,-1
EndSplineSet
Ligature2: "geminated" l l
EndChar

StartChar: m_m
Encoding: 65587 -1 128
Width: 1507
VWidth: 5430
GlyphClass: 3
Flags: W
LayerCount: 2
Fore
SplineSet
106 796 m 1,0,-1
 238 796 l 1,1,-1
 266 770 l 1,2,-1
 266 733 l 1,3,4
 308 760 308 760 361 778 c 128,-1,5
 414 796 414 796 477 796 c 0,6,7
 634 796 634 796 749 698 c 1,8,9
 794 732 794 732 859.5 764 c 128,-1,10
 925 796 925 796 1009 796 c 0,11,12
 1115 796 1115 796 1205 747 c 128,-1,13
 1295 698 1295 698 1350 614 c 0,14,15
 1405 531 1405 531 1406 425 c 0,16,17
 1406 321 1406 321 1378.5 250.5 c 128,-1,18
 1351 180 1351 180 1308 133 c 1,19,-1
 1327 133 l 2,20,21
 1367 133 1367 133 1386 146 c 2,22,-1
 1406 158 l 1,23,-1
 1459 158 l 1,24,-1
 1354 0 l 1,25,-1
 266 0 l 1,26,-1
 80 0 l 2,27,28
 40 0 40 0 18 -13 c 2,29,-1
 0 -27 l 1,30,-1
 -53 -27 l 1,31,-1
 53 133 l 1,32,-1
 106 133 l 1,33,-1
 106 266 l 1,34,-1
 106 610 l 1,35,-1
 106 663 l 1,36,-1
 53 663 l 1,37,-1
 27 690 l 1,38,-1
 106 796 l 1,0,-1
425 663 m 0,39,40
 375 663 375 663 335 658 c 0,41,42
 296 652 296 652 266 644 c 1,43,-1
 266 610 l 1,44,-1
 266 266 l 1,45,-1
 266 133 l 1,46,-1
 644 133 l 1,47,48
 673 175 673 175 694.5 238.5 c 128,-1,49
 716 302 716 302 716 399 c 0,50,51
 716 500 716 500 649.5 581.5 c 128,-1,52
 583 663 583 663 425 663 c 0,39,40
956 663 m 0,53,54
 906 663 906 663 867 658 c 0,55,56
 828 652 828 652 799 644 c 1,57,58
 836 599 836 599 856 543.5 c 128,-1,59
 876 488 876 488 876 425 c 0,60,61
 876 321 876 321 848 250.5 c 128,-1,62
 820 180 820 180 778 133 c 1,63,-1
 1175 133 l 1,64,65
 1204 175 1204 175 1225.5 238.5 c 128,-1,66
 1247 302 1247 302 1247 399 c 0,67,68
 1247 500 1247 500 1180.5 581.5 c 128,-1,69
 1114 663 1114 663 956 663 c 0,53,54
1300 -106 m 1,70,-1
 1354 -106 l 1,71,-1
 1247 -266 l 1,72,-1
 185 -266 l 2,73,74
 145 -267 145 -267 124 -279 c 2,75,-1
 106 -292 l 1,76,-1
 53 -292 l 1,77,-1
 158 -133 l 1,78,-1
 1220 -133 l 2,79,80
 1260 -133 1260 -133 1271 -124 c 2,81,-1
 1300 -106 l 1,70,-1
EndSplineSet
Ligature2: "geminated" m m
EndChar

StartChar: n_n
Encoding: 65588 -1 129
Width: 1507
VWidth: 5430
GlyphClass: 3
Flags: W
LayerCount: 2
Fore
SplineSet
106 796 m 1,0,-1
 238 796 l 1,1,-1
 266 770 l 1,2,-1
 266 733 l 1,3,4
 308 760 308 760 361 778 c 128,-1,5
 414 796 414 796 477 796 c 0,6,7
 634 796 634 796 749 698 c 1,8,9
 794 732 794 732 859.5 764 c 128,-1,10
 925 796 925 796 1009 796 c 0,11,12
 1115 796 1115 796 1205 747 c 128,-1,13
 1295 698 1295 698 1350 614 c 0,14,15
 1405 531 1405 531 1406 425 c 0,16,17
 1406 297 1406 297 1366.5 216 c 128,-1,18
 1327 135 1327 135 1267.5 91.5 c 128,-1,19
 1208 48 1208 48 1147.5 27.5 c 0,20,21
 1086 7 1086 7 1048 2 c 2,22,-1
 1009 0 l 1,23,-1
 1009 27 l 1,24,-1
 1046 37 l 0,25,26
 1083 48 1083 48 1129 84 c 128,-1,27
 1175 120 1175 120 1211 194 c 128,-1,28
 1247 268 1247 268 1247 399 c 0,29,30
 1247 500 1247 500 1180.5 581.5 c 128,-1,31
 1114 663 1114 663 956 663 c 0,32,33
 906 663 906 663 867 658 c 0,34,35
 828 652 828 652 799 644 c 1,36,37
 836 599 836 599 856 543.5 c 128,-1,38
 876 488 876 488 876 425 c 0,39,40
 876 297 876 297 836 216 c 128,-1,41
 796 135 796 135 736.5 91.5 c 128,-1,42
 677 48 677 48 617 27.5 c 0,43,44
 558 7 558 7 518 2 c 2,45,-1
 477 0 l 1,46,-1
 477 27 l 1,47,-1
 512 37 l 2,48,49
 549 48 549 48 596.5 84 c 128,-1,50
 644 120 644 120 680 194 c 128,-1,51
 716 268 716 268 716 399 c 0,52,53
 716 500 716 500 650 581 c 0,54,55
 585 663 585 663 425 663 c 0,56,57
 375 663 375 663 335 658 c 0,58,59
 296 652 296 652 266 644 c 1,60,-1
 266 610 l 1,61,-1
 266 266 l 1,62,-1
 266 0 l 1,63,-1
 80 0 l 2,64,65
 40 0 40 0 18 -13 c 2,66,-1
 0 -27 l 1,67,-1
 -53 -27 l 1,68,-1
 53 133 l 1,69,-1
 106 133 l 1,70,-1
 106 266 l 1,71,-1
 106 610 l 1,72,-1
 106 663 l 1,73,-1
 53 663 l 1,74,-1
 27 690 l 1,75,-1
 106 796 l 1,0,-1
1300 -106 m 1,76,-1
 1354 -106 l 1,77,-1
 1247 -266 l 1,78,-1
 185 -266 l 2,79,80
 145 -267 145 -267 124 -279 c 2,81,-1
 106 -292 l 1,82,-1
 53 -292 l 1,83,-1
 158 -133 l 1,84,-1
 1220 -133 l 2,85,86
 1260 -133 1260 -133 1271 -124 c 2,87,-1
 1300 -106 l 1,76,-1
EndSplineSet
Ligature2: "geminated" n n
EndChar

StartChar: p_p
Encoding: 65589 -1 130
Width: 975
VWidth: 5430
GlyphClass: 3
Flags: W
LayerCount: 2
Fore
SplineSet
106 796 m 1,0,-1
 238 796 l 1,1,-1
 266 770 l 1,2,-1
 266 733 l 1,3,4
 308 760 308 760 361 778 c 128,-1,5
 414 796 414 796 477 796 c 0,6,7
 583 796 583 796 674 747 c 128,-1,8
 765 698 765 698 820 614 c 0,9,10
 875 531 875 531 876 425 c 0,11,12
 876 321 876 321 848 250.5 c 128,-1,13
 820 180 820 180 778 133 c 1,14,-1
 796 133 l 2,15,16
 836 133 836 133 854 146 c 2,17,-1
 876 158 l 1,18,-1
 929 158 l 1,19,-1
 823 0 l 1,20,-1
 477 0 l 1,21,-1
 266 0 l 1,22,-1
 266 -133 l 1,23,-1
 690 -133 l 2,24,25
 730 -133 730 -133 749 -120 c 2,26,-1
 770 -106 l 1,27,-1
 823 -106 l 1,28,-1
 716 -266 l 1,29,-1
 266 -266 l 1,30,-1
 266 -663 l 1,31,-1
 292 -663 l 1,32,-1
 319 -690 l 1,33,-1
 238 -796 l 1,34,-1
 133 -796 l 1,35,-1
 106 -770 l 1,36,-1
 106 -266 l 1,37,-1
 106 610 l 1,38,-1
 106 663 l 1,39,-1
 53 663 l 1,40,-1
 27 690 l 1,41,-1
 106 796 l 1,0,-1
425 663 m 0,42,43
 375 663 375 663 335 658 c 0,44,45
 296 652 296 652 266 644 c 1,46,-1
 266 610 l 1,47,-1
 266 133 l 1,48,-1
 644 133 l 1,49,50
 673 175 673 175 694.5 238.5 c 128,-1,51
 716 302 716 302 716 399 c 0,52,53
 716 500 716 500 649.5 581.5 c 128,-1,54
 583 663 583 663 425 663 c 0,42,43
EndSplineSet
Ligature2: "geminated" p p
EndChar

StartChar: q_q
Encoding: 65590 -1 131
Width: 1029
VWidth: 5430
GlyphClass: 3
LigCaretCntFixed: 1
Flags: W
LayerCount: 2
Fore
SplineSet
743 1592 m 1,0,-1
 849 1592 l 1,1,-1
 876 1566 l 1,2,-1
 876 1062 l 1,3,-1
 876 266 l 1,4,-1
 876 133 l 1,5,-1
 902 133 l 2,6,7
 942 133 942 133 960 146 c 2,8,-1
 982 158 l 1,9,-1
 1035 158 l 1,10,-1
 929 0 l 1,11,-1
 876 0 l 1,12,-1
 716 0 l 1,13,-1
 716 64 l 1,14,15
 674 37 674 37 621 18 c 0,16,17
 567 0 567 0 504 0 c 0,18,19
 398 0 398 0 307.5 49 c 128,-1,20
 217 98 217 98 161.5 182 c 128,-1,21
 106 266 106 266 106 372 c 0,22,23
 106 476 106 476 134 546 c 128,-1,24
 162 616 162 616 204 663 c 1,25,-1
 185 663 l 2,26,27
 145 662 145 662 124 650 c 2,28,-1
 106 637 l 1,29,-1
 53 637 l 1,30,-1
 158 796 l 1,31,-1
 504 796 l 1,32,-1
 716 796 l 1,33,-1
 716 1062 l 1,34,-1
 716 1459 l 1,35,36
 676 1458 676 1458 643 1433 c 2,37,-1
 610 1406 l 1,38,-1
 584 1433 l 1,39,-1
 743 1592 l 1,0,-1
337 663 m 1,40,41
 308 621 308 621 287 557 c 128,-1,42
 266 493 266 493 266 399 c 0,43,44
 266 301 266 301 332.5 217 c 128,-1,45
 399 133 399 133 557 133 c 0,46,47
 607 133 607 133 647 139 c 0,48,49
 687 144 687 144 716 151 c 1,50,-1
 716 266 l 1,51,-1
 716 663 l 1,52,-1
 337 663 l 1,40,41
212 -292 m 1,53,-1
 158 -292 l 1,54,-1
 266 -133 l 1,55,-1
 796 -133 l 2,56,57
 836 -133 836 -133 854 -120 c 2,58,-1
 876 -106 l 1,59,-1
 929 -106 l 1,60,-1
 823 -266 l 1,61,-1
 292 -266 l 2,62,63
 252 -267 252 -267 242 -274 c 2,64,-1
 212 -292 l 1,53,-1
EndSplineSet
Ligature2: "geminated" q q
LCarets2: 1 -617
EndChar

StartChar: r_r
Encoding: 65591 -1 132
Width: 975
VWidth: 5430
GlyphClass: 3
Flags: W
LayerCount: 2
Fore
SplineSet
106 796 m 1,0,-1
 238 796 l 1,1,-1
 266 770 l 1,2,-1
 266 733 l 1,3,4
 308 760 308 760 361 778 c 128,-1,5
 414 796 414 796 477 796 c 0,6,7
 583 796 583 796 674 747 c 128,-1,8
 765 698 765 698 820 614 c 0,9,10
 875 531 875 531 876 425 c 0,11,12
 876 297 876 297 836 216 c 128,-1,13
 796 135 796 135 736.5 91.5 c 128,-1,14
 677 48 677 48 617 27.5 c 0,15,16
 558 7 558 7 518 2 c 2,17,-1
 477 0 l 1,18,-1
 477 27 l 1,19,-1
 512 37 l 0,20,21
 549 48 549 48 596.5 84 c 128,-1,22
 644 120 644 120 680 194 c 128,-1,23
 716 268 716 268 716 399 c 0,24,25
 716 500 716 500 650 581 c 0,26,27
 585 663 585 663 425 663 c 0,28,29
 375 663 375 663 335 658 c 0,30,31
 296 652 296 652 266 644 c 1,32,-1
 266 610 l 1,33,-1
 266 266 l 1,34,-1
 266 0 l 1,35,-1
 80 0 l 2,36,37
 40 0 40 0 18 -13 c 2,38,-1
 0 -27 l 1,39,-1
 -53 -27 l 1,40,-1
 53 133 l 1,41,-1
 106 133 l 1,42,-1
 106 266 l 1,43,-1
 106 610 l 1,44,-1
 106 663 l 1,45,-1
 53 663 l 1,46,-1
 27 690 l 1,47,-1
 106 796 l 1,0,-1
770 -106 m 1,48,-1
 823 -106 l 1,49,-1
 716 -266 l 1,50,-1
 185 -266 l 2,51,52
 145 -267 145 -267 124 -279 c 2,53,-1
 106 -292 l 1,54,-1
 53 -292 l 1,55,-1
 158 -133 l 1,56,-1
 690 -133 l 2,57,58
 730 -133 730 -133 741 -124 c 2,59,-1
 770 -106 l 1,48,-1
EndSplineSet
Ligature2: "geminated" r r
EndChar

StartChar: s_s
Encoding: 65592 -1 133
Width: 975
VWidth: 5430
GlyphClass: 3
Flags: W
LayerCount: 2
Fore
SplineSet
716 -266 m 1,0,-1
 185 -266 l 2,1,2
 145 -267 145 -267 124 -279 c 2,3,-1
 106 -292 l 1,4,-1
 53 -292 l 1,5,-1
 158 -133 l 1,6,-1
 690 -133 l 2,7,8
 730 -133 730 -133 749 -120 c 2,9,-1
 770 -106 l 1,10,-1
 823 -106 l 1,11,-1
 716 -266 l 1,0,-1
743 1220 m 0,12,13
 743 1100 743 1100 695.5 1015.5 c 128,-1,14
 648 931 648 931 576 865 c 128,-1,15
 504 799 504 799 432.5 734 c 128,-1,16
 361 669 361 669 313.5 589 c 128,-1,17
 266 509 266 509 266 399 c 0,18,19
 266 279 266 279 332.5 206 c 128,-1,20
 399 133 399 133 557 133 c 0,21,22
 677 133 677 133 723.5 185.5 c 128,-1,23
 770 238 770 238 770 399 c 0,24,25
 770 465 770 465 730 512 c 0,26,27
 689 560 689 560 650 587 c 2,28,-1
 610 610 l 1,29,-1
 610 637 l 1,30,-1
 743 716 l 1,31,-1
 774 681 l 0,32,33
 808 647 808 647 842 582 c 0,34,35
 876 518 876 518 876 425 c 0,36,37
 876 345 876 345 841 269.5 c 128,-1,38
 806 194 806 194 749 132.5 c 128,-1,39
 692 71 692 71 628.5 35.5 c 128,-1,40
 565 0 565 0 504 0 c 0,41,42
 398 0 398 0 307.5 37.5 c 128,-1,43
 217 75 217 75 161.5 156.5 c 128,-1,44
 106 238 106 238 106 372 c 0,45,46
 106 476 106 476 156.5 549.5 c 128,-1,47
 207 623 207 623 282.5 687 c 128,-1,48
 358 751 358 751 433.5 820 c 128,-1,49
 509 889 509 889 559.5 978 c 128,-1,50
 610 1067 610 1067 610 1194 c 0,51,52
 610 1314 610 1314 590.5 1377.5 c 128,-1,53
 571 1441 571 1441 552 1464 c 2,54,-1
 530 1486 l 1,55,-1
 530 1512 l 1,56,-1
 663 1592 l 1,57,-1
 685 1544 l 2,58,59
 703 1494 703 1494 723 1410 c 128,-1,60
 743 1326 743 1326 743 1220 c 0,12,13
EndSplineSet
Ligature2: "geminated" s s
EndChar

StartChar: t_t
Encoding: 65593 -1 134
Width: 975
VWidth: 5430
GlyphClass: 3
Flags: W
LayerCount: 2
Fore
SplineSet
106 796 m 1,0,-1
 238 796 l 1,1,-1
 266 770 l 1,2,-1
 266 733 l 1,3,4
 308 760 308 760 361 778 c 132,-1,5
 414 796 414 796 477 796 c 4,6,7
 583 796 583 796 674 747 c 132,-1,8
 765 698 765 698 820 614 c 4,9,10
 875 531 875 531 876 425 c 4,11,12
 876 297 876 297 836 216 c 132,-1,13
 796 135 796 135 736.5 91.5 c 132,-1,14
 677 48 677 48 617 27.5 c 4,15,16
 558 7 558 7 518 2 c 6,17,-1
 477 0 l 5,18,-1
 477 27 l 5,19,-1
 512 37 l 4,20,21
 549 48 549 48 596.5 84 c 132,-1,22
 644 120 644 120 680 194 c 132,-1,23
 716 268 716 268 716 399 c 4,24,25
 716 500 716 500 650 581 c 4,26,27
 585 663 585 663 425 663 c 4,28,29
 375 663 375 663 335 658 c 4,30,31
 296 652 296 652 266 644 c 1,32,-1
 266 610 l 1,33,-1
 266 -133 l 1,34,-1
 690 -133 l 2,35,36
 730 -133 730 -133 749 -120 c 2,37,-1
 770 -106 l 1,38,-1
 823 -106 l 1,39,-1
 716 -266 l 1,40,-1
 266 -266 l 1,41,-1
 266 -663 l 1,42,-1
 292 -663 l 1,43,-1
 319 -690 l 1,44,-1
 238 -796 l 1,45,-1
 133 -796 l 1,46,-1
 106 -770 l 1,47,-1
 106 -266 l 1,48,-1
 106 610 l 1,49,-1
 106 663 l 1,50,-1
 53 663 l 1,51,-1
 27 690 l 1,52,-1
 106 796 l 1,0,-1
EndSplineSet
LCarets2: 1 0
Ligature2: "geminated" t t
EndChar

StartChar: v_v
Encoding: 65594 -1 135
Width: 1507
VWidth: 5430
GlyphClass: 3
Flags: W
LayerCount: 2
Fore
SplineSet
133 1592 m 1,0,-1
 238 1592 l 1,1,-1
 266 1566 l 1,2,-1
 266 1062 l 1,3,-1
 266 733 l 1,4,5
 308 760 308 760 361 778 c 128,-1,6
 414 796 414 796 477 796 c 0,7,8
 634 796 634 796 749 698 c 1,9,10
 794 732 794 732 859.5 764 c 128,-1,11
 925 796 925 796 1009 796 c 0,12,13
 1115 796 1115 796 1205 747 c 128,-1,14
 1295 698 1295 698 1350 614 c 0,15,16
 1405 531 1405 531 1406 425 c 0,17,18
 1406 321 1406 321 1378.5 250.5 c 128,-1,19
 1351 180 1351 180 1308 133 c 1,20,-1
 1327 133 l 2,21,22
 1367 133 1367 133 1386 146 c 2,23,-1
 1406 158 l 1,24,-1
 1459 158 l 1,25,-1
 1354 0 l 1,26,-1
 266 0 l 1,27,-1
 80 0 l 2,28,29
 40 0 40 0 18 -13 c 2,30,-1
 0 -27 l 1,31,-1
 -53 -27 l 1,32,-1
 53 133 l 1,33,-1
 106 133 l 1,34,-1
 106 266 l 1,35,-1
 106 1062 l 1,36,-1
 106 1459 l 1,37,38
 66 1458 66 1458 34 1433 c 2,39,-1
 0 1406 l 1,40,-1
 -27 1433 l 1,41,-1
 133 1592 l 1,0,-1
425 663 m 0,42,43
 375 663 375 663 335 658 c 0,44,45
 296 652 296 652 266 644 c 1,46,-1
 266 266 l 1,47,-1
 266 133 l 1,48,-1
 644 133 l 1,49,50
 673 175 673 175 694.5 238.5 c 128,-1,51
 716 302 716 302 716 399 c 0,52,53
 716 500 716 500 649.5 581.5 c 128,-1,54
 583 663 583 663 425 663 c 0,42,43
956 663 m 0,55,56
 906 663 906 663 867 658 c 0,57,58
 828 652 828 652 799 644 c 1,59,60
 836 599 836 599 856 543.5 c 128,-1,61
 876 488 876 488 876 425 c 0,62,63
 876 321 876 321 848 250.5 c 128,-1,64
 820 180 820 180 778 133 c 1,65,-1
 1175 133 l 1,66,67
 1204 175 1204 175 1225.5 238.5 c 128,-1,68
 1247 302 1247 302 1247 399 c 0,69,70
 1247 500 1247 500 1180.5 581.5 c 128,-1,71
 1114 663 1114 663 956 663 c 0,55,56
1300 -106 m 1,72,-1
 1354 -106 l 1,73,-1
 1247 -266 l 1,74,-1
 185 -266 l 2,75,76
 145 -267 145 -267 124 -279 c 2,77,-1
 106 -292 l 1,78,-1
 53 -292 l 1,79,-1
 158 -133 l 1,80,-1
 1220 -133 l 2,81,82
 1260 -133 1260 -133 1271 -124 c 2,83,-1
 1300 -106 l 1,72,-1
EndSplineSet
Ligature2: "geminated" v v
EndChar

StartChar: w_w
Encoding: 65595 -1 136
Width: 975
VWidth: 5430
GlyphClass: 3
Flags: W
LayerCount: 2
Fore
SplineSet
106 796 m 1,0,-1
 238 796 l 1,1,-1
 266 770 l 1,2,-1
 266 733 l 1,3,4
 308 760 308 760 361 778 c 128,-1,5
 414 796 414 796 477 796 c 0,6,7
 583 796 583 796 674 747 c 128,-1,8
 765 698 765 698 820 614 c 0,9,10
 875 531 875 531 876 425 c 0,11,12
 876 321 876 321 848 250.5 c 128,-1,13
 820 180 820 180 778 133 c 1,14,-1
 796 133 l 2,15,16
 836 133 836 133 854 146 c 2,17,-1
 876 158 l 1,18,-1
 929 158 l 1,19,-1
 823 0 l 1,20,-1
 477 0 l 1,21,-1
 266 0 l 1,22,-1
 80 0 l 2,23,24
 40 0 40 0 18 -13 c 2,25,-1
 0 -27 l 1,26,-1
 -53 -27 l 1,27,-1
 53 133 l 1,28,-1
 106 133 l 1,29,-1
 106 266 l 1,30,-1
 106 610 l 1,31,-1
 106 663 l 1,32,-1
 53 663 l 1,33,-1
 27 690 l 1,34,-1
 106 796 l 1,0,-1
425 663 m 0,35,36
 375 663 375 663 335 658 c 0,37,38
 296 652 296 652 266 644 c 1,39,-1
 266 610 l 1,40,-1
 266 266 l 1,41,-1
 266 133 l 1,42,-1
 644 133 l 1,43,44
 673 175 673 175 694.5 238.5 c 128,-1,45
 716 302 716 302 716 399 c 0,46,47
 716 500 716 500 649.5 581.5 c 128,-1,48
 583 663 583 663 425 663 c 0,35,36
770 -106 m 1,49,-1
 823 -106 l 1,50,-1
 716 -266 l 1,51,-1
 185 -266 l 2,52,53
 145 -267 145 -267 124 -279 c 2,54,-1
 106 -292 l 1,55,-1
 53 -292 l 1,56,-1
 158 -133 l 1,57,-1
 690 -133 l 2,58,59
 730 -133 730 -133 741 -124 c 2,60,-1
 770 -106 l 1,49,-1
EndSplineSet
Ligature2: "geminated" w w
EndChar

StartChar: x_x
Encoding: 65596 -1 137
Width: 1029
VWidth: 5430
GlyphClass: 3
LigCaretCntFixed: 1
Flags: W
LayerCount: 2
Fore
SplineSet
158 796 m 1,0,-1
 504 796 l 1,1,-1
 817 796 l 1,2,-1
 823 796 l 1,3,-1
 956 796 l 1,4,-1
 982 770 l 1,5,-1
 902 663 l 1,6,-1
 876 663 l 1,7,-1
 876 530 l 1,8,-1
 876 -266 l 1,9,-1
 876 -663 l 1,10,-1
 902 -663 l 1,11,-1
 929 -690 l 1,12,-1
 849 -796 l 1,13,-1
 743 -796 l 1,14,-1
 716 -770 l 1,15,-1
 716 -266 l 1,16,-1
 342 -266 l 1,17,18
 320 -298 320 -298 306 -335 c 0,19,20
 292 -374 292 -374 292 -425 c 0,21,22
 292 -505 292 -505 335 -558 c 0,23,24
 378 -611 378 -611 477 -610 c 0,25,26
 558 -610 558 -610 598 -584 c 2,27,-1
 637 -557 l 1,28,-1
 663 -584 l 1,29,-1
 632 -616 l 0,30,31
 603 -650 603 -650 553.5 -683 c 128,-1,32
 504 -716 504 -716 452 -716 c 0,33,34
 313 -716 313 -716 235.5 -640.5 c 128,-1,35
 158 -565 158 -565 158 -425 c 0,36,37
 158 -383 158 -383 169 -351 c 128,-1,38
 180 -319 180 -319 199 -292 c 1,39,-1
 158 -292 l 1,40,-1
 266 -133 l 1,41,-1
 324 -133 l 1,42,43
 340 -104 340 -104 352 -66.5 c 128,-1,44
 364 -29 364 -29 369 22 c 1,45,46
 257 62 257 62 181.5 155 c 128,-1,47
 106 248 106 248 106 372 c 0,48,49
 106 476 106 476 134 546 c 128,-1,50
 162 616 162 616 204 663 c 1,51,-1
 185 663 l 2,52,53
 145 662 145 662 124 650 c 2,54,-1
 106 637 l 1,55,-1
 53 637 l 1,56,-1
 158 796 l 1,0,-1
337 663 m 1,57,58
 308 621 308 621 287 557 c 128,-1,59
 266 493 266 493 266 399 c 0,60,61
 266 301 266 301 332.5 217 c 128,-1,62
 399 133 399 133 557 133 c 0,63,64
 607 133 607 133 647 139 c 0,65,66
 687 144 687 144 716 151 c 1,67,-1
 716 530 l 1,68,-1
 716 663 l 1,69,-1
 337 663 l 1,57,58
716 64 m 1,70,71
 674 37 674 37 621 18 c 0,72,73
 567 0 567 0 504 0 c 0,74,75
 502 0 502 0 496 0 c 0,76,77
 489 -40 489 -40 474 -73 c 128,-1,78
 459 -106 459 -106 443 -133 c 1,79,-1
 716 -133 l 1,80,-1
 716 64 l 1,70,71
EndSplineSet
Ligature2: "geminated" x x
LCarets2: 1 -584
EndChar

StartChar: y_y.vowel
Encoding: 65597 -1 138
Width: 975
VWidth: 5430
GlyphClass: 3
LigCaretCntFixed: 1
Flags: W
LayerCount: 2
Fore
SplineSet
504 796 m 1,0,-1
 504 770 l 1,1,2
 470 760 l 0,3,4
 433 749 433 749 385 713 c 128,-1,5
 337 677 337 677 301.5 602.5 c 128,-1,6
 266 528 266 528 266 399 c 0,7,8
 266 301 266 301 332.5 217 c 128,-1,9
 399 133 399 133 557 133 c 0,10,11
 607 133 607 133 647 139 c 0,12,13
 687 144 687 144 716 151 c 5,14,-1
 716 266 l 5,15,-1
 716 530 l 5,16,-1
 716 663 l 5,17,-1
 817 796 l 5,18,-1
 956 796 l 5,19,-1
 982 770 l 5,20,-1
 902 663 l 5,21,-1
 876 663 l 5,22,-1
 876 530 l 5,23,-1
 876 266 l 5,24,-1
 876 133 l 5,25,-1
 902 133 l 6,26,27
 942 133 942 133 960 146 c 6,28,-1
 982 158 l 5,29,-1
 1035 158 l 5,30,-1
 929 0 l 5,31,-1
 876 0 l 5,32,-1
 716 0 l 5,33,-1
 716 64 l 5,34,35
 674 37 674 37 621 18 c 0,36,37
 567 0 567 0 504 0 c 0,38,39
 398 0 398 0 307.5 49 c 128,-1,40
 217 98 217 98 161.5 182 c 128,-1,41
 106 266 106 266 106 372 c 0,42,43
 106 500 106 500 145.5 580.5 c 128,-1,44
 185 661 185 661 245.5 705 c 128,-1,45
 306 749 306 749 365.5 768.5 c 128,-1,46
 425 788 425 788 443 790 c 2,47,-1
 504 796 l 1,0,-1
212 -292 m 1,48,-1
 158 -292 l 1,49,-1
 266 -133 l 1,50,-1
 796 -133 l 2,51,52
 836 -133 836 -133 854 -120 c 2,53,-1
 876 -106 l 1,54,-1
 929 -106 l 1,55,-1
 823 -266 l 1,56,-1
 292 -266 l 2,57,58
 252 -267 252 -267 242 -274 c 2,59,-1
 212 -292 l 1,48,-1
EndSplineSet
Ligature2: "geminated" y y
LCarets2: 1 -653
EndChar

StartChar: z_z
Encoding: 65598 -1 139
Width: 975
VWidth: 5430
GlyphClass: 3
Flags: W
LayerCount: 2
Fore
SplineSet
663 1592 m 1,0,1
 685 1544 l 0,2,3
 703 1494 703 1494 723 1410.5 c 128,-1,4
 743 1327 743 1327 743 1220 c 0,5,6
 743 1100 743 1100 695.5 1015.5 c 128,-1,7
 648 931 648 931 576 865 c 128,-1,8
 504 799 504 799 432.5 734 c 128,-1,9
 361 669 361 669 313.5 589 c 128,-1,10
 266 509 266 509 266 399 c 0,11,12
 266 279 266 279 332.5 206 c 128,-1,13
 399 133 399 133 557 133 c 0,14,15
 677 133 677 133 723.5 185.5 c 128,-1,16
 770 238 770 238 770 399 c 0,17,18
 770 465 770 465 730 512 c 0,19,20
 689 560 689 560 650 587 c 2,21,-1
 610 610 l 1,22,-1
 610 637 l 1,23,-1
 743 716 l 1,24,-1
 774 681 l 2,25,26
 808 647 808 647 842 582 c 0,27,28
 876 518 876 518 876 425 c 0,29,30
 876 330 876 330 827 239.5 c 128,-1,31
 778 149 778 149 702 86 c 128,-1,32
 626 23 626 23 552 5 c 1,33,34
 545 -37 545 -37 530 -70 c 0,35,36
 515 -104 515 -104 496 -133 c 1,37,-1
 690 -133 l 2,38,39
 730 -133 730 -133 749 -120 c 2,40,-1
 770 -106 l 1,41,-1
 823 -106 l 1,42,-1
 716 -266 l 1,43,-1
 395 -266 l 1,44,45
 373 -298 373 -298 359 -335 c 0,46,47
 345 -374 345 -374 345 -425 c 0,48,49
 345 -505 345 -505 388.5 -557.5 c 128,-1,50
 432 -610 432 -610 530 -610 c 0,51,52
 610 -610 610 -610 650 -584 c 2,53,-1
 690 -557 l 1,54,-1
 716 -584 l 1,55,-1
 687 -616 l 2,56,57
 655 -650 655 -650 606 -683 c 0,58,59
 556 -716 556 -716 504 -716 c 0,60,61
 365 -716 365 -716 288.5 -640.5 c 128,-1,62
 212 -565 212 -565 212 -425 c 0,63,64
 212 -369 212 -369 230 -332 c 0,65,66
 248 -296 248 -296 271 -266 c 1,67,-1
 185 -266 l 2,68,69
 145 -267 145 -267 124 -279 c 2,70,-1
 106 -292 l 1,71,-1
 53 -292 l 1,72,-1
 158 -133 l 1,73,-1
 377 -133 l 1,74,75
 393 -106 393 -106 403.5 -71.5 c 128,-1,76
 414 -37 414 -37 419 5 c 1,77,78
 289 23 289 23 197.5 111 c 128,-1,79
 106 199 106 199 106 372 c 0,80,81
 106 476 106 476 156.5 549.5 c 128,-1,82
 207 623 207 623 282.5 687 c 128,-1,83
 358 751 358 751 433.5 820 c 128,-1,84
 509 889 509 889 559.5 978 c 128,-1,85
 610 1067 610 1067 610 1194 c 0,86,87
 610 1314 610 1314 590.5 1377.5 c 128,-1,88
 571 1441 571 1441 552 1464 c 2,89,-1
 530 1486 l 1,90,-1
 530 1512 l 1,91,-1
 663 1592 l 1,0,1
EndSplineSet
Ligature2: "geminated" z z
EndChar

StartChar: r_r.vowel
Encoding: 65599 -1 140
Width: 975
VWidth: 5430
GlyphClass: 3
Flags: W
LayerCount: 2
Fore
SplineSet
106 796 m 1,0,-1
 212 796 l 1,1,-1
 238 770 l 1,2,-1
 550 98 l 1,3,-1
 663 212 l 2,4,5
 724 273 724 273 733.5 362.5 c 128,-1,6
 743 452 743 452 743 530 c 0,7,8
 743 591 743 591 707 640.5 c 128,-1,9
 671 690 671 690 610 690 c 0,10,11
 490 690 490 690 443 663 c 2,12,-1
 399 637 l 1,13,-1
 372 663 l 1,14,15
 403 698 l 0,16,17
 437 730 437 730 497 763 c 128,-1,18
 557 796 557 796 637 796 c 0,19,20
 757 796 757 796 829.5 723 c 128,-1,21
 902 650 902 650 902 530 c 0,22,23
 902 391 902 391 840 306 c 0,24,25
 778 220 778 220 716 158 c 2,26,-1
 425 -133 l 1,27,-1
 690 -133 l 2,28,29
 730 -133 730 -133 749 -120 c 2,30,-1
 770 -106 l 1,31,-1
 823 -106 l 1,32,-1
 716 -266 l 1,33,-1
 306 -266 l 1,34,35
 277 -324 277 -324 271.5 -395 c 128,-1,36
 266 -466 266 -466 266 -530 c 0,37,38
 266 -588 266 -588 302.5 -639 c 128,-1,39
 339 -690 339 -690 399 -690 c 0,40,41
 518 -690 518 -690 562 -663 c 2,42,-1
 610 -637 l 1,43,-1
 637 -663 l 1,44,-1
 605 -698 l 2,45,46
 571 -730 571 -730 511.5 -763 c 128,-1,47
 452 -796 452 -796 372 -796 c 0,48,49
 252 -796 252 -796 179 -723 c 128,-1,50
 106 -650 106 -650 106 -530 c 0,51,52
 106 -444 106 -444 132 -379.5 c 0,53,54
 158 -316 158 -316 196 -266 c 1,55,-1
 185 -266 l 2,56,57
 145 -267 145 -267 124 -279 c 2,58,-1
 106 -292 l 1,59,-1
 53 -292 l 1,60,-1
 158 -133 l 1,61,-1
 319 -133 l 1,62,-1
 417 -34 l 1,63,-1
 106 663 l 1,64,-1
 53 663 l 1,65,-1
 27 690 l 1,66,-1
 106 796 l 1,0,-1
EndSplineSet
Ligature2: "geminated" r r.vowel
Ligature2: "geminated" r.vowel r
Ligature2: "geminated" r.vowel r.vowel
EndChar

StartChar: s_s.vowel
Encoding: 65600 -1 141
Width: 975
VWidth: 5430
GlyphClass: 3
Flags: W
LayerCount: 2
Fore
SplineSet
716 -266 m 1,0,-1
 185 -266 l 2,1,2
 145 -267 145 -267 124 -279 c 2,3,-1
 106 -292 l 1,4,-1
 53 -292 l 1,5,-1
 158 -133 l 1,6,-1
 690 -133 l 2,7,8
 730 -133 730 -133 749 -120 c 2,9,-1
 770 -106 l 1,10,-1
 823 -106 l 1,11,-1
 716 -266 l 1,0,-1
610 1566 m 1,12,13
 562 1555 l 256,14,15
 514 1544 514 1544 443 1494 c 128,-1,16
 372 1444 372 1444 292 1322 c 0,17,18
 234 1231 234 1231 232.5 1112 c 128,-1,19
 231 993 231 993 248.5 835 c 128,-1,20
 266 677 266 677 266 477 c 0,21,22
 266 319 266 319 332.5 226 c 128,-1,23
 399 133 399 133 557 133 c 0,24,25
 677 133 677 133 723.5 185.5 c 128,-1,26
 770 238 770 238 770 399 c 0,27,28
 770 465 770 465 730 512 c 0,29,30
 689 560 689 560 650 587 c 2,31,-1
 610 610 l 1,32,-1
 610 637 l 1,33,-1
 743 716 l 1,34,-1
 774 681 l 2,35,36
 808 647 808 647 842 582 c 0,37,38
 876 518 876 518 876 425 c 0,39,40
 876 345 876 345 841 269.5 c 128,-1,41
 806 194 806 194 749 132.5 c 128,-1,42
 692 71 692 71 628.5 35.5 c 128,-1,43
 565 0 565 0 504 0 c 0,44,45
 398 0 398 0 307.5 53 c 128,-1,46
 217 106 217 106 161.5 212.5 c 128,-1,47
 106 319 106 319 106 477 c 0,48,49
 106 684 106 684 102 844 c 128,-1,50
 98 1004 98 1004 115.5 1125.5 c 128,-1,51
 133 1247 133 1247 199 1343 c 0,52,53
 263 1436 263 1436 334.5 1487.5 c 0,54,55
 406 1540 406 1540 468 1562 c 0,56,57
 531 1584 531 1584 571 1589 c 2,58,-1
 610 1592 l 1,59,-1
 610 1566 l 1,12,13
EndSplineSet
Ligature2: "geminated" s s.vowel
Ligature2: "geminated" s.vowel s
Ligature2: "geminated" s.vowel s.vowel
EndChar

StartChar: z_z.vowel
Encoding: 65601 -1 142
Width: 975
VWidth: 5430
GlyphClass: 3
Flags: W
LayerCount: 2
Fore
SplineSet
477 796 m 0,0,1
 583 796 583 796 674 743 c 128,-1,2
 765 690 765 690 820.5 583.5 c 128,-1,3
 876 477 876 477 876 319 c 0,4,5
 876 266 876 266 856 206 c 0,6,7
 835 146 835 146 796 106 c 1,8,9
 823 79 823 79 840.5 21 c 128,-1,10
 858 -37 858 -37 867 -102 c 128,-1,11
 876 -167 876 -167 876 -212 c 0,12,13
 876 -347 876 -347 815 -446.5 c 128,-1,14
 754 -546 754 -546 662.5 -613 c 128,-1,15
 571 -680 571 -680 479 -720 c 0,16,17
 387 -761 387 -761 326 -778 c 2,18,-1
 266 -796 l 1,19,-1
 266 -770 l 1,20,-1
 308 -754 l 0,21,22
 350 -738 350 -738 412.5 -702 c 128,-1,23
 475 -666 475 -666 541.5 -608 c 128,-1,24
 608 -550 608 -550 655.5 -464.5 c 0,25,26
 703 -380 703 -380 714 -266 c 1,27,-1
 185 -266 l 2,28,29
 145 -267 145 -267 124 -279 c 2,30,-1
 106 -292 l 1,31,-1
 53 -292 l 1,32,-1
 158 -133 l 1,33,-1
 690 -133 l 2,34,35
 696 -133 696 -133 706 -133 c 1,36,37
 693 -68 693 -68 666 4 c 0,38,39
 639 77 639 77 610 106 c 1,40,41
 650 146 650 146 682 194 c 0,42,43
 715 243 715 243 716 290 c 0,44,45
 716 303 716 303 716 319 c 0,46,47
 716 477 716 477 650 570 c 0,48,49
 585 663 585 663 425 663 c 0,50,51
 305 663 305 663 258.5 610 c 128,-1,52
 212 557 212 557 212 399 c 0,53,54
 212 333 212 333 252 285 c 128,-1,55
 292 237 292 237 331 210 c 2,56,-1
 372 185 l 1,57,-1
 372 158 l 1,58,-1
 238 80 l 1,59,-1
 204 114 l 2,60,61
 172 148 172 148 139 213.5 c 128,-1,62
 106 279 106 279 106 372 c 0,63,64
 106 452 106 452 140.5 527.5 c 128,-1,65
 175 603 175 603 232.5 663.5 c 128,-1,66
 290 724 290 724 354.5 760 c 128,-1,67
 419 796 419 796 477 796 c 0,0,1
EndSplineSet
Ligature2: "geminated" z.vowel z
Ligature2: "geminated" z z.vowel
Ligature2: "geminated" z.vowel z.vowel
EndChar

StartChar: c.vowel
Encoding: 65602 -1 143
Width: 975
VWidth: 5430
GlyphClass: 2
Flags: W
LayerCount: 2
Fore
SplineSet
276 -851 m 1,0,1
 325 -843 l 256,2,3
 374 -837 374 -837 449 -792 c 128,-1,4
 524 -747 524 -747 612 -632 c 0,5,6
 677 -546 677 -546 687.5 -427 c 128,-1,7
 698 -308 698 -308 693 -149 c 0,8,9
 688 11 688 11 702 209 c 0,10,11
 714 367 714 367 655 464.5 c 128,-1,12
 596 562 596 562 437 573 c 0,13,14
 318 582 318 582 267.5 533 c 128,-1,15
 217 484 217 484 205 325 c 0,16,17
 200 259 200 259 237 208.5 c 128,-1,18
 274 158 274 158 311 129 c 2,19,-1
 349 102 l 1,20,-1
 346 76 l 1,21,-1
 209 5 l 1,22,-1
 179 42 l 2,23,24
 147 79 147 79 119 146.5 c 128,-1,25
 91 214 91 214 98 307 c 0,26,27
 104 387 104 387 144 459 c 128,-1,28
 184 531 184 531 245.5 587.5 c 128,-1,29
 307 644 307 644 373 675 c 128,-1,30
 439 706 439 706 500 702 c 0,31,32
 606 695 606 695 692 634.5 c 128,-1,33
 778 574 778 574 825 465 c 0,34,35
 873 355 873 355 860 196 c 0,36,37
 845 -10 845 -10 837.5 -169 c 128,-1,38
 830 -328 830 -328 804 -448.5 c 128,-1,39
 778 -569 778 -569 704 -660 c 0,40,41
 634 -747 634 -747 558 -794 c 128,-1,42
 482 -841 482 -841 419 -858 c 0,43,44
 355 -876 355 -876 315 -878 c 2,45,-1
 275 -877 l 1,46,-1
 276 -851 l 1,0,1
EndSplineSet
EndChar

StartChar: q_u
Encoding: 65603 -1 144
Width: 1029
VWidth: 5430
GlyphClass: 3
LigCaretCntFixed: 1
Flags: W
LayerCount: 2
Fore
SplineSet
158 796 m 1,0,-1
 504 796 l 1,1,-1
 817 796 l 1,2,-1
 823 796 l 1,3,-1
 956 796 l 1,4,-1
 982 770 l 1,5,-1
 902 663 l 1,6,-1
 876 663 l 1,7,-1
 876 530 l 1,8,-1
 876 -266 l 1,9,-1
 876 -663 l 1,10,-1
 902 -663 l 1,11,-1
 929 -690 l 1,12,-1
 849 -796 l 1,13,-1
 743 -796 l 1,14,-1
 716 -770 l 1,15,-1
 716 -266 l 1,16,-1
 716 64 l 1,17,18
 674 37 674 37 621 18 c 0,19,20
 567 0 567 0 504 0 c 0,21,22
 398 0 398 0 307.5 49 c 128,-1,23
 217 98 217 98 161.5 182 c 128,-1,24
 106 266 106 266 106 372 c 0,25,26
 106 476 106 476 134 546 c 128,-1,27
 162 616 162 616 204 663 c 1,28,-1
 185 663 l 2,29,30
 145 662 145 662 124 650 c 2,31,-1
 106 637 l 1,32,-1
 53 637 l 1,33,-1
 158 796 l 1,0,-1
337 663 m 1,34,35
 308 621 308 621 287 557 c 128,-1,36
 266 493 266 493 266 399 c 0,37,38
 266 301 266 301 332.5 217 c 128,-1,39
 399 133 399 133 557 133 c 0,40,41
 607 133 607 133 647 139 c 0,42,43
 687 144 687 144 716 151 c 1,44,-1
 716 530 l 1,45,-1
 716 663 l 1,46,-1
 337 663 l 1,34,35
212 902 m 1,47,-1
 158 902 l 1,48,-1
 266 1062 l 1,49,-1
 796 1062 l 2,50,51
 836 1062 836 1062 854 1075 c 2,52,-1
 876 1087 l 1,53,-1
 929 1087 l 1,54,-1
 823 929 l 1,55,-1
 292 929 l 2,56,57
 252 929 252 929 242 923 c 2,58,-1
 212 902 l 1,47,-1
EndSplineSet
Ligature2: "common ligs" q u.short
Ligature2: "common ligs" Q u.short
Ligature2: "common ligs" q u
Ligature2: "common ligs" Q u
LCarets2: 1 -1454
EndChar

StartChar: a_u
Encoding: 65604 -1 145
Width: 975
VWidth: 5430
GlyphClass: 3
Flags: W
LayerCount: 2
Fore
SplineSet
504 796 m 256,0,1
 610 796 610 796 694 740.5 c 128,-1,2
 778 685 778 685 827 594.5 c 128,-1,3
 876 504 876 504 876 399 c 256,4,5
 876 293 876 293 820.5 202.5 c 128,-1,6
 765 112 765 112 675 56 c 0,7,8
 584 0 584 0 477 0 c 256,9,10
 371 0 371 0 287.5 56 c 128,-1,11
 204 112 204 112 155 202 c 128,-1,12
 106 292 106 292 106 399 c 256,13,14
 106 505 106 505 161.5 595 c 128,-1,15
 217 685 217 685 307.5 740.5 c 128,-1,16
 398 796 398 796 504 796 c 256,0,1
452 663 m 0,17,18
 354 663 354 663 310 617 c 128,-1,19
 266 571 266 571 266 452 c 0,20,21
 266 372 266 372 298.5 299 c 128,-1,22
 331 226 331 226 391.5 179.5 c 128,-1,23
 452 133 452 133 530 133 c 0,24,25
 631 133 631 133 673.5 179.5 c 128,-1,26
 716 226 716 226 716 345 c 0,27,28
 716 425 716 425 683 498 c 128,-1,29
 650 571 650 571 591 617 c 128,-1,30
 532 663 532 663 452 663 c 0,17,18
557 1194 m 5,31,-1
 663 1354 l 5,32,-1
 796 1247 l 5,33,-1
 690 1087 l 5,34,-1
 557 1194 l 5,31,-1
238 1194 m 5,35,-1
 345 1354 l 5,36,-1
 477 1247 l 5,37,-1
 372 1087 l 5,38,-1
 238 1194 l 5,35,-1
399 1354 m 5,39,-1
 504 1512 l 5,40,-1
 637 1406 l 5,41,-1
 530 1247 l 5,42,-1
 399 1354 l 5,39,-1
EndSplineSet
LCarets2: 1 0
Ligature2: "_u diph" a u
Ligature2: "_u diph" a u.short
EndChar

StartChar: e_u
Encoding: 65605 -1 146
Width: 975
VWidth: 5430
GlyphClass: 3
Flags: W
LayerCount: 2
Fore
SplineSet
504 796 m 256,0,1
 610 796 610 796 694 740.5 c 128,-1,2
 778 685 778 685 827 594.5 c 128,-1,3
 876 504 876 504 876 399 c 256,4,5
 876 293 876 293 820.5 202.5 c 128,-1,6
 765 112 765 112 675 56 c 0,7,8
 584 0 584 0 477 0 c 256,9,10
 371 0 371 0 287.5 56 c 128,-1,11
 204 112 204 112 155 202 c 128,-1,12
 106 292 106 292 106 399 c 256,13,14
 106 505 106 505 161.5 595 c 128,-1,15
 217 685 217 685 307.5 740.5 c 128,-1,16
 398 796 398 796 504 796 c 256,0,1
452 663 m 0,17,18
 354 663 354 663 310 617 c 128,-1,19
 266 571 266 571 266 452 c 0,20,21
 266 372 266 372 298.5 299 c 128,-1,22
 331 226 331 226 391.5 179.5 c 128,-1,23
 452 133 452 133 530 133 c 0,24,25
 631 133 631 133 673.5 179.5 c 128,-1,26
 716 226 716 226 716 345 c 0,27,28
 716 425 716 425 683 498 c 128,-1,29
 650 571 650 571 591 617 c 128,-1,30
 532 663 532 663 452 663 c 0,17,18
452 1087 m 5,31,-1
 399 1114 l 5,32,-1
 637 1512 l 5,33,-1
 770 1459 l 5,34,-1
 743 1406 l 5,35,-1
 452 1087 l 5,31,-1
EndSplineSet
LCarets2: 1 0
Ligature2: "_u diph" e u
Ligature2: "_u diph" e u.short
EndChar

StartChar: i_u
Encoding: 65606 -1 147
Width: 975
VWidth: 5430
GlyphClass: 3
Flags: W
LayerCount: 2
Fore
SplineSet
504 796 m 256,0,1
 610 796 610 796 694 740.5 c 128,-1,2
 778 685 778 685 827 594.5 c 128,-1,3
 876 504 876 504 876 399 c 256,4,5
 876 293 876 293 820.5 202.5 c 128,-1,6
 765 112 765 112 675 56 c 0,7,8
 584 0 584 0 477 0 c 256,9,10
 371 0 371 0 287.5 56 c 128,-1,11
 204 112 204 112 155 202 c 128,-1,12
 106 292 106 292 106 399 c 256,13,14
 106 505 106 505 161.5 595 c 128,-1,15
 217 685 217 685 307.5 740.5 c 128,-1,16
 398 796 398 796 504 796 c 256,0,1
452 663 m 0,17,18
 354 663 354 663 310 617 c 128,-1,19
 266 571 266 571 266 452 c 0,20,21
 266 372 266 372 298.5 299 c 128,-1,22
 331 226 331 226 391.5 179.5 c 128,-1,23
 452 133 452 133 530 133 c 0,24,25
 631 133 631 133 673.5 179.5 c 128,-1,26
 716 226 716 226 716 345 c 0,27,28
 716 425 716 425 683 498 c 128,-1,29
 650 571 650 571 591 617 c 128,-1,30
 532 663 532 663 452 663 c 0,17,18
399 1194 m 1,31,-1
 504 1354 l 1,32,-1
 637 1247 l 1,33,-1
 530 1087 l 1,34,-1
 399 1194 l 1,31,-1
EndSplineSet
Ligature2: "_u diph" i u
Ligature2: "_u diph" i u.short
EndChar

StartChar: o_u
Encoding: 65607 -1 148
Width: 975
VWidth: 5430
GlyphClass: 3
Flags: W
LayerCount: 2
Fore
SplineSet
504 796 m 256,0,1
 610 796 610 796 694 740.5 c 128,-1,2
 778 685 778 685 827 594.5 c 128,-1,3
 876 504 876 504 876 399 c 256,4,5
 876 293 876 293 820.5 202.5 c 128,-1,6
 765 112 765 112 675 56 c 0,7,8
 584 0 584 0 477 0 c 256,9,10
 371 0 371 0 287.5 56 c 128,-1,11
 204 112 204 112 155 202 c 128,-1,12
 106 292 106 292 106 399 c 256,13,14
 106 505 106 505 161.5 595 c 128,-1,15
 217 685 217 685 307.5 740.5 c 128,-1,16
 398 796 398 796 504 796 c 256,0,1
452 663 m 0,17,18
 354 663 354 663 310 617 c 128,-1,19
 266 571 266 571 266 452 c 0,20,21
 266 372 266 372 298.5 299 c 128,-1,22
 331 226 331 226 391.5 179.5 c 128,-1,23
 452 133 452 133 530 133 c 0,24,25
 631 133 631 133 673.5 179.5 c 128,-1,26
 716 226 716 226 716 345 c 0,27,28
 716 425 716 425 683 498 c 128,-1,29
 650 571 650 571 591 617 c 128,-1,30
 532 663 532 663 452 663 c 0,17,18
399 1114 m 1,31,-1
 417 1160 l 0,32,33
 435 1205 435 1205 468 1261.5 c 128,-1,34
 501 1318 501 1318 544 1362 c 128,-1,35
 587 1406 587 1406 637 1406 c 0,36,37
 703 1406 703 1406 737.5 1366.5 c 128,-1,38
 772 1327 772 1327 783 1287 c 2,39,-1
 796 1247 l 1,40,-1
 743 1220 l 1,41,-1
 738 1235 l 2,42,43
 736 1248 736 1248 713 1261 c 128,-1,44
 690 1274 690 1274 637 1274 c 0,45,46
 597 1274 597 1274 562.5 1246.5 c 128,-1,47
 528 1219 528 1219 504.5 1181.5 c 128,-1,48
 481 1144 481 1144 466 1117 c 2,49,-1
 452 1087 l 1,50,-1
 399 1114 l 1,31,-1
EndSplineSet
Ligature2: "_u diph" o u
Ligature2: "_u diph" o u.short
EndChar

StartChar: u_glide
Encoding: 65608 -1 149
Width: 2653
VWidth: 5430
GlyphClass: 2
Flags: W
LayerCount: 2
Fore
SplineSet
504 796 m 260,0,1
 610 796 610 796 694 740.5 c 132,-1,2
 778 685 778 685 827 594.5 c 132,-1,3
 876 504 876 504 876 399 c 260,4,5
 876 293 876 293 820.5 202.5 c 132,-1,6
 765 112 765 112 675 56 c 4,7,8
 584 0 584 0 477 0 c 260,9,10
 371 0 371 0 287.5 56 c 132,-1,11
 204 112 204 112 155 202 c 132,-1,12
 106 292 106 292 106 399 c 260,13,14
 106 505 106 505 161.5 595 c 132,-1,15
 217 685 217 685 307.5 740.5 c 132,-1,16
 398 796 398 796 504 796 c 260,0,1
452 663 m 4,17,18
 354 663 354 663 310 617 c 132,-1,19
 266 571 266 571 266 452 c 4,20,21
 266 372 266 372 298.5 299 c 132,-1,22
 331 226 331 226 391.5 179.5 c 132,-1,23
 452 133 452 133 530 133 c 4,24,25
 631 133 631 133 673.5 179.5 c 132,-1,26
 716 226 716 226 716 345 c 4,27,28
 716 425 716 425 683 498 c 132,-1,29
 650 571 650 571 591 617 c 132,-1,30
 532 663 532 663 452 663 c 4,17,18
EndSplineSet
EndChar

StartChar: a_i
Encoding: 65609 -1 150
Width: 927
VWidth: 5430
Flags: W
LayerCount: 2
Fore
SplineSet
610 1194 m 1,0,-1
 716 1354 l 1,1,-1
 849 1247 l 1,2,-1
 743 1087 l 1,3,-1
 610 1194 l 1,0,-1
292 1194 m 1,4,-1
 399 1354 l 1,5,-1
 530 1247 l 1,6,-1
 425 1087 l 1,7,-1
 292 1194 l 1,4,-1
452 1354 m 1,8,-1
 557 1512 l 1,9,-1
 690 1406 l 1,10,-1
 584 1247 l 1,11,-1
 452 1354 l 1,8,-1
399 796 m 1,12,-1
 399 770 l 1,13,-1
 364 760 l 0,14,15
 327 749 327 749 279 713 c 128,-1,16
 231 677 231 677 194.5 602.5 c 128,-1,17
 158 528 158 528 158 399 c 0,18,19
 158 301 158 301 225 217 c 128,-1,20
 292 133 292 133 452 133 c 0,21,22
 502 133 502 133 541.5 138.5 c 132,-1,23
 581 144 581 144 610 151 c 5,24,-1
 610 266 l 5,25,-1
 610 530 l 1,26,-1
 610 663 l 1,27,-1
 711 796 l 1,28,-1
 849 796 l 1,29,-1
 876 770 l 1,30,-1
 796 663 l 1,31,-1
 770 663 l 1,32,-1
 770 530 l 1,33,-1
 770 266 l 5,34,-1
 770 133 l 5,35,-1
 796 133 l 6,36,37
 836 133 836 133 854 146 c 6,38,-1
 876 158 l 5,39,-1
 929 158 l 5,40,-1
 823 0 l 5,41,-1
 770 0 l 5,42,-1
 610 0 l 5,43,-1
 610 64 l 5,44,45
 568 37 568 37 515.5 18.5 c 128,-1,46
 463 0 463 0 399 0 c 0,47,48
 293 0 293 0 202.5 49 c 128,-1,49
 112 98 112 98 56 182 c 128,-1,50
 0 266 0 266 0 372 c 0,51,52
 0 500 0 500 40 580.5 c 128,-1,53
 80 661 80 661 139.5 705 c 128,-1,54
 199 749 199 749 259 768.5 c 128,-1,55
 319 788 319 788 337 790 c 2,56,-1
 399 796 l 1,12,-1
EndSplineSet
Ligature2: "i diph" a y
LCarets2: 1 0
Ligature2: "i diph" a i
EndChar

StartChar: e_i
Encoding: 65610 -1 151
Width: 927
VWidth: 5430
Flags: W
LayerCount: 2
Fore
SplineSet
504 1087 m 1,0,-1
 452 1114 l 1,1,-1
 690 1512 l 1,2,-1
 823 1459 l 1,3,-1
 796 1406 l 1,4,-1
 504 1087 l 1,0,-1
399 796 m 1,5,-1
 399 770 l 1,6,-1
 364 760 l 0,7,8
 327 749 327 749 279 713 c 128,-1,9
 231 677 231 677 194.5 602.5 c 128,-1,10
 158 528 158 528 158 399 c 0,11,12
 158 301 158 301 225 217 c 128,-1,13
 292 133 292 133 452 133 c 0,14,15
 502 133 502 133 541.5 138.5 c 128,-1,16
 581 144 581 144 610 151 c 1,17,-1
 610 266 l 1,18,-1
 610 530 l 1,19,-1
 610 663 l 1,20,-1
 711 796 l 1,21,-1
 849 796 l 1,22,-1
 876 770 l 1,23,-1
 796 663 l 1,24,-1
 770 663 l 1,25,-1
 770 530 l 1,26,-1
 770 266 l 1,27,-1
 770 133 l 1,28,-1
 796 133 l 2,29,30
 836 133 836 133 854 146 c 2,31,-1
 876 158 l 1,32,-1
 929 158 l 1,33,-1
 823 0 l 1,34,-1
 770 0 l 1,35,-1
 610 0 l 1,36,-1
 610 64 l 1,37,38
 568 37 568 37 515.5 18.5 c 128,-1,39
 463 0 463 0 399 0 c 0,40,41
 293 0 293 0 202.5 49 c 128,-1,42
 112 98 112 98 56 182 c 128,-1,43
 0 266 0 266 0 372 c 0,44,45
 0 500 0 500 40 580.5 c 128,-1,46
 80 661 80 661 139.5 705 c 128,-1,47
 199 749 199 749 259 768.5 c 128,-1,48
 319 788 319 788 337 790 c 2,49,-1
 399 796 l 1,5,-1
EndSplineSet
Ligature2: "i diph" e y
Ligature2: "i diph" e i
EndChar

StartChar: o_i
Encoding: 65611 -1 152
Width: 927
VWidth: 5430
Flags: W
LayerCount: 2
Fore
SplineSet
452 1114 m 5,0,1
 470 1160 l 4,2,3
 488 1205 488 1205 521.5 1261.5 c 132,-1,4
 555 1318 555 1318 597 1362 c 132,-1,5
 639 1406 639 1406 690 1406 c 4,6,7
 756 1406 756 1406 790.5 1366.5 c 132,-1,8
 825 1327 825 1327 836 1287 c 6,9,-1
 849 1247 l 5,10,-1
 796 1220 l 5,11,-1
 790 1235 l 6,12,13
 788 1248 788 1248 765.5 1261 c 132,-1,14
 743 1274 743 1274 690 1274 c 4,15,16
 650 1274 650 1274 615.5 1246.5 c 132,-1,17
 581 1219 581 1219 558 1181 c 4,18,19
 533 1144 533 1144 520 1117 c 6,20,-1
 504 1087 l 5,21,-1
 452 1114 l 5,0,1
399 796 m 1,22,-1
 399 770 l 1,23,-1
 364 760 l 0,24,25
 327 749 327 749 279 713 c 128,-1,26
 231 677 231 677 194.5 602.5 c 128,-1,27
 158 528 158 528 158 399 c 0,28,29
 158 301 158 301 225 217 c 128,-1,30
 292 133 292 133 452 133 c 0,31,32
 502 133 502 133 541.5 138.5 c 128,-1,33
 581 144 581 144 610 151 c 1,34,-1
 610 266 l 1,35,-1
 610 530 l 1,36,-1
 610 663 l 1,37,-1
 711 796 l 1,38,-1
 849 796 l 1,39,-1
 876 770 l 1,40,-1
 796 663 l 1,41,-1
 770 663 l 1,42,-1
 770 530 l 1,43,-1
 770 266 l 1,44,-1
 770 133 l 1,45,-1
 796 133 l 2,46,47
 836 133 836 133 854 146 c 2,48,-1
 876 158 l 1,49,-1
 929 158 l 1,50,-1
 823 0 l 1,51,-1
 770 0 l 1,52,-1
 610 0 l 1,53,-1
 610 64 l 1,54,55
 568 37 568 37 515.5 18.5 c 128,-1,56
 463 0 463 0 399 0 c 0,57,58
 293 0 293 0 202.5 49 c 128,-1,59
 112 98 112 98 56 182 c 128,-1,60
 0 266 0 266 0 372 c 0,61,62
 0 500 0 500 40 580.5 c 128,-1,63
 80 661 80 661 139.5 705 c 128,-1,64
 199 749 199 749 259 768.5 c 128,-1,65
 319 788 319 788 337 790 c 2,66,-1
 399 796 l 1,22,-1
EndSplineSet
Ligature2: "i diph" o y
Ligature2: "i diph" o i
EndChar

StartChar: u_i
Encoding: 65612 -1 153
Width: 927
VWidth: 5430
Flags: W
LayerCount: 2
Fore
SplineSet
504 1087 m 1,0,-1
 452 1114 l 1,1,2
 488 1146 l 0,3,4
 524 1175 524 1175 562 1224 c 0,5,6
 600 1273 600 1273 599 1327 c 256,7,8
 599 1380 599 1380 575.5 1409 c 128,-1,9
 552 1438 552 1438 528 1449 c 2,10,-1
 504 1459 l 1,11,-1
 528 1508 l 1,12,-1
 557 1505 l 2,13,14
 586 1503 586 1503 623.5 1491 c 128,-1,15
 661 1479 661 1479 688.5 1447 c 128,-1,16
 716 1415 716 1415 716 1354 c 0,17,18
 716 1304 716 1304 684 1257 c 128,-1,19
 652 1210 652 1210 610 1171.5 c 128,-1,20
 568 1133 568 1133 552 1122 c 2,21,-1
 504 1087 l 1,0,-1
399 796 m 5,22,-1
 399 770 l 5,23,-1
 364 760 l 4,24,25
 327 749 327 749 279 713 c 132,-1,26
 231 677 231 677 194.5 602.5 c 132,-1,27
 158 528 158 528 158 399 c 4,28,29
 158 301 158 301 225 217 c 132,-1,30
 292 133 292 133 452 133 c 4,31,32
 502 133 502 133 541.5 138.5 c 132,-1,33
 581 144 581 144 610 151 c 5,34,-1
 610 266 l 5,35,-1
 610 530 l 5,36,-1
 610 663 l 5,37,-1
 711 796 l 5,38,-1
 849 796 l 5,39,-1
 876 770 l 5,40,-1
 796 663 l 5,41,-1
 770 663 l 5,42,-1
 770 530 l 5,43,-1
 770 266 l 5,44,-1
 770 133 l 5,45,-1
 796 133 l 6,46,47
 836 133 836 133 854 146 c 6,48,-1
 876 158 l 5,49,-1
 929 158 l 5,50,-1
 823 0 l 5,51,-1
 770 0 l 5,52,-1
 610 0 l 5,53,-1
 610 64 l 5,54,55
 568 37 568 37 515.5 18.5 c 132,-1,56
 463 0 463 0 399 0 c 4,57,58
 293 0 293 0 202.5 49 c 132,-1,59
 112 98 112 98 56 182 c 132,-1,60
 0 266 0 266 0 372 c 4,61,62
 0 500 0 500 40 580.5 c 132,-1,63
 80 661 80 661 139.5 705 c 132,-1,64
 199 749 199 749 259 768.5 c 132,-1,65
 319 788 319 788 337 790 c 6,66,-1
 399 796 l 5,22,-1
EndSplineSet
Ligature2: "i diph" u y
LCarets2: 1 0
Ligature2: "i diph" u i
EndChar

StartChar: w_h
Encoding: 65613 -1 154
Width: 1096
VWidth: 2585
Flags: W
LayerCount: 2
Fore
SplineSet
4 158 m 1029,0,-1
734 175 m 1,1,-1
 734 566 l 1,2,3
 728 624 728 624 695 670 c 0,4,5
 664 713 664 713 603 739 c 0,6,7
 547 763 547 763 493 763 c 0,8,9
 392 764 392 764 312 698 c 0,10,11
 190 599 190 599 190 449 c 0,12,13
 191 370 191 370 220 297 c 0,14,15
 247 229 247 229 301 183 c 0,16,17
 391 102 391 102 534 102 c 0,18,19
 637 101 637 101 734 175 c 1,1,-1
978 -17 m 2,20,-1
 1051 -31 l 1,21,-1
 1184 -12 l 1,22,-1
 1292 -29 l 1,23,-1
 1366 -56 l 1,24,-1
 1368 -129 l 1,25,-1
 1370 -179 l 1,26,-1
 1224 -164 l 1,27,-1
 1079 -182 l 1,28,-1
 930 -173 l 1,29,-1
 810 -149 l 1,30,-1
 739 -120 l 1,31,-1
 734 -75 l 1,32,-1
 734 119 l 1,33,34
 662 63 662 63 584 34 c 0,35,36
 509 9 509 9 428 9 c 0,37,38
 224 9 224 9 114 101 c 1,39,40
 2 189 2 189 0 380 c 0,41,42
 -1 435 -1 435 12 491 c 0,43,44
 24 543 24 543 50 594 c 0,45,46
 77 644 77 644 125 689 c 0,47,48
 173 733 173 733 231 761 c 0,49,50
 289 788 289 788 362 803 c 0,51,52
 432 816 432 816 508 815 c 0,53,54
 644 815 644 815 734 750 c 1,55,-1
 735 1389 l 1,56,57
 730 1412 730 1412 703 1430 c 0,58,59
 686 1440 686 1440 662 1441 c 0,60,61
 634 1442 634 1442 590 1429 c 1,62,-1
 574 1458 l 1,63,-1
 859 1552 l 1,64,-1
 907 1552 l 1,65,-1
 907 230 l 2,66,67
 907 67 907 67 914 38 c 1,68,69
 919 10 919 10 938 -4 c 0,70,71
 946 -12 946 -12 978 -17 c 2,20,-1
EndSplineSet
Ligature2: "whesta" W h
Ligature2: "whesta" w h
EndChar

StartChar: chard
Encoding: 65614 -1 155
Width: 1029
VWidth: 5430
Flags: W
LayerCount: 2
Fore
SplineSet
743 1592 m 1,0,-1
 849 1592 l 1,1,-1
 876 1566 l 1,2,-1
 876 1062 l 1,3,-1
 876 266 l 1,4,-1
 876 133 l 1,5,-1
 902 133 l 2,6,7
 942 133 942 133 960 146 c 2,8,-1
 982 158 l 1,9,-1
 1035 158 l 1,10,-1
 929 0 l 1,11,-1
 876 0 l 1,12,-1
 716 0 l 1,13,-1
 716 64 l 1,14,15
 674 37 674 37 621 18 c 0,16,17
 567 0 567 0 504 0 c 0,18,19
 398 0 398 0 307.5 49 c 128,-1,20
 217 98 217 98 161.5 182 c 128,-1,21
 106 266 106 266 106 372 c 0,22,23
 106 476 106 476 134 546 c 128,-1,24
 162 616 162 616 204 663 c 1,25,-1
 185 663 l 2,26,27
 145 662 145 662 124 650 c 2,28,-1
 106 637 l 1,29,-1
 53 637 l 1,30,-1
 158 796 l 1,31,-1
 504 796 l 1,32,-1
 716 796 l 1,33,-1
 716 1062 l 1,34,-1
 716 1459 l 1,35,36
 676 1458 676 1458 643 1433 c 2,37,-1
 610 1406 l 1,38,-1
 584 1433 l 1,39,-1
 743 1592 l 1,0,-1
337 663 m 1,40,41
 308 621 308 621 287 557 c 128,-1,42
 266 493 266 493 266 399 c 0,43,44
 266 301 266 301 332.5 217 c 128,-1,45
 399 133 399 133 557 133 c 0,46,47
 607 133 607 133 647 139 c 0,48,49
 687 144 687 144 716 151 c 1,50,-1
 716 266 l 1,51,-1
 716 663 l 1,52,-1
 337 663 l 1,40,41
EndSplineSet
EndChar

StartChar: l_s
Encoding: 65615 -1 156
Width: 1652
VWidth: 6516
Flags: W
LayerCount: 2
Fore
SplineSet
637 -50 m 0,0,1
 446 -50 446 -50 351 55 c 0,2,3
 255 162 255 162 255 331 c 0,4,5
 256 441 256 441 284 517 c 0,6,7
 313 593 313 593 350 637 c 1,8,-1
 485 637 l 1,9,-1
 892 637 l 1,10,-1
 994 789 l 1,11,-1
 943 789 l 1,12,-1
 913 772 l 2,13,14
 900 765 900 765 866 765 c 0,15,16
 792 765 792 765 703 765 c 0,17,18
 627 765 627 765 551 765 c 2,19,-1
 485 765 l 1,20,-1
 196 765 l 1,21,-1
 153 765 l 1,22,-1
 52 611 l 1,23,-1
 103 611 l 1,24,-1
 120 625 l 2,25,26
 138 638 138 638 178 637 c 2,27,-1
 230 637 l 1,28,29
 176 587 176 587 140 506 c 0,30,31
 103 427 103 427 103 306 c 0,32,33
 103 140 103 140 169 33 c 0,34,35
 236 -74 236 -74 347 -126 c 0,36,37
 459 -178 459 -178 587 -178 c 0,38,39
 651 -178 651 -178 724 -151 c 8,40,41
 787 -128 787 -128 822 -94 c 16,42,-1
 1147 270 l 18,43,44
 1184 310 1184 310 1258 302 c 0,45,46
 1317 297 1317 297 1384 221 c 0,47,48
 1456 138 1456 138 1462 48 c 0,49,50
 1468 -44 1468 -44 1372 -124 c 0,51,52
 1307 -180 1307 -180 1263 -198 c 0,53,54
 1218 -215 1218 -215 1193 -216 c 0,55,-1
 1170 -214 l 1,56,-1
 1167 -244 l 1,57,-1
 1195 -248 l 2,58,59
 1235 -254 1235 -254 1273 -252 c 0,60,61
 1318 -252 1318 -252 1372 -236 c 0,62,63
 1422 -221 1422 -221 1473 -177 c 0,64,65
 1537 -125 1537 -125 1570 -48 c 0,66,67
 1602 26 1602 26 1586 112 c 0,68,69
 1571 198 1571 198 1495 287 c 0,70,71
 1439 353 1439 353 1324.5 363.5 c 128,-1,72
 1210 374 1210 374 1053 335 c 0,73,-1
 680 -63 l 0,74,-1
 637 -50 l 0,0,1
EndSplineSet
Ligature2: "common ligs" l s space
EndChar

StartChar: n_y
Encoding: 65616 -1 157
Width: 1566
VWidth: 5430
Flags: W
LayerCount: 2
Fore
SplineSet
1178 139 m 20,0,1
 1138 134 1138 134 1087 133 c 4,2,3
 929 133 929 133 863 216 c 4,4,5
 797 299 797 299 796 399 c 4,6,7
 796 529 796 529 832 603 c 4,8,9
 870 678 870 678 914 713 c 4,10,11
 961 749 961 749 998 760 c 6,12,-1
 1035 770 l 5,13,-1
 1035 796 l 5,14,-1
 994 790 l 6,15,16
 946 784 946 784 896 768 c 4,17,18
 841 751 841 751 777 704 c 4,19,20
 717 661 717 661 677 580 c 4,21,22
 637 499 637 499 637 372 c 4,23,24
 637 310 637 310 657 252 c 4,25,26
 678 196 678 196 714 151 c 5,27,28
 686 142 686 142 646 139 c 4,29,30
 607 134 607 134 557 133 c 4,31,32
 398 133 398 133 331 216 c 4,33,34
 266 299 266 299 266 399 c 4,35,36
 266 529 266 529 302 603 c 4,37,38
 339 678 339 678 384 713 c 4,39,40
 432 749 432 749 470 760 c 4,41,-1
 504 770 l 5,42,-1
 504 796 l 5,43,-1
 443 790 l 6,44,45
 427 789 427 789 365 768 c 4,46,47
 306 747 306 747 245 704 c 4,48,49
 186 661 186 661 146 580 c 4,50,51
 106 499 106 499 106 372 c 4,52,53
 106 267 106 267 162 182 c 4,54,55
 217 99 217 99 308 49 c 4,56,57
 398 0 398 0 504 0 c 4,58,59
 586 0 586 0 652 32 c 4,60,61
 718 64 718 64 765 98 c 5,62,63
 880 0 880 0 1035 0 c 4,64,65
 1096 0 1096 0 1151 20 c 12,66,-1
 1246 64 l 5,67,-1
 1246 0 l 5,68,-1
 1405 0 l 5,69,-1
 1458 0 l 5,70,-1
 1564 158 l 5,71,-1
 1511 158 l 5,72,-1
 1490 146 l 6,73,74
 1468 133 1468 133 1432 133 c 6,75,-1
 1405 133 l 5,76,-1
 1405 266 l 5,77,-1
 1405 530 l 5,78,-1
 1405 663 l 5,79,-1
 1432 663 l 5,80,-1
 1511 770 l 5,81,-1
 1485 796 l 5,82,-1
 1346 796 l 5,83,-1
 1246 663 l 5,84,-1
 1246 530 l 5,85,-1
 1246 266 l 5,86,-1
 1246 151 l 5,87,-1
 1178 139 l 20,0,1
EndSplineSet
LCarets2: 1 0
Ligature2: "Palatalized" n y.vowel
EndChar

StartChar: e_a
Encoding: 65617 -1 158
Width: 975
VWidth: 5430
Flags: W
LayerCount: 2
Fore
SplineSet
452 1087 m 1,0,-1
 399 1114 l 1,1,-1
 637 1512 l 1,2,-1
 770 1459 l 1,3,-1
 743 1406 l 1,4,-1
 452 1087 l 1,0,-1
876 322 m 1048,5,-1
773 274 m 0,6,7
 774 273 774 273 684 220 c 0,8,9
 605 172 605 172 492 172 c 0,10,11
 374 172 374 172 301 238 c 0,12,13
 227 306 227 306 228 464 c 0,14,15
 228 584 228 584 281 630.5 c 128,-1,16
 334 677 334 677 492 676 c 0,17,18
 558 676 558 676 607 636 c 0,19,20
 661 589 661 589 681 556 c 2,21,-1
 706 517 l 1,22,-1
 733 517 l 1,23,-1
 811 649 l 1,24,-1
 777 681 l 0,25,26
 744 714 744 714 677 749 c 0,27,28
 612 782 612 782 519 782 c 0,29,30
 439 781 439 781 363.5 747 c 128,-1,31
 288 713 288 713 227.5 655.5 c 0,32,33
 166 598 166 598 130 536 c 0,34,35
 95 472 95 472 95 410 c 0,36,37
 95 304 95 304 132 214 c 128,-1,38
 169 124 169 124 252 68 c 0,39,40
 333 12 333 12 466 13 c 0,41,42
 570 13 570 13 644 63 c 0,43,44
 719 113 719 113 754 157 c 0,45,46
 860 274 860 274 860 275 c 0,47,48
 842 324 842 324 773 274 c 0,6,7
EndSplineSet
Ligature2: "ea" e a
EndChar

StartChar: asciitilde
Encoding: 126 126 159
Width: 445
VWidth: 5430
Flags: W
LayerCount: 2
Fore
SplineSet
106 -266 m 1,0,-1
 212 -106 l 1,1,-1
 345 -212 l 1,2,-1
 238 -372 l 1,3,-1
 106 -266 l 1,0,-1
EndSplineSet
EndChar

StartChar: t_e_space
Encoding: 65618 -1 160
Width: 2538
VWidth: 5430
Flags: W
GlyphVariantsVertical: t_e_sp
LayerCount: 2
Fore
SplineSet
1370 662 m 4,0,1
 1303 642 l 5,2,-1
 1271 -675 l 5,3,-1
 1350 -690 l 5,4,-1
 1270 -796 l 5,5,-1
 1165 -796 l 5,6,-1
 1138 -770 l 5,7,-1
 1138 -266 l 5,8,-1
 1138 1062 l 5,9,-1
 1138 1459 l 5,10,11
 1100 1458 1100 1458 1066 1433 c 6,12,-1
 1031 1406 l 5,13,-1
 1004 1433 l 5,14,-1
 1165 1592 l 5,15,-1
 1270 1592 l 5,16,-1
 1296 1566 l 5,17,-1
 1296 1062 l 13,18,-1
 1296 733 l 4,19,-1
 1371 763 l 4,20,21
 1446 795 1446 795 1508 795 c 4,22,23
 1665 795 1665 795 1780 697 c 5,24,25
 1825 731 1825 731 1891 763 c 4,26,27
 1959 795 1959 795 2039 795 c 4,28,29
 2145 795 2145 795 2236 746 c 4,30,31
 2327 698 2327 698 2381 614 c 4,32,33
 2437 529 2437 529 2437 423 c 4,34,35
 2437 295 2437 295 2398 215 c 4,36,37
 2358 134 2358 134 2299 91 c 4,38,39
 2238 47 2238 47 2178 27 c 4,40,41
 2106 4 2106 4 2079 2 c 6,42,-1
 2039 -1 l 5,43,-1
 2039 26 l 5,44,-1
 2077 36 l 4,45,46
 2115 47 2115 47 2160 82 c 4,47,48
 2207 119 2207 119 2242 193 c 4,49,50
 2278 267 2278 267 2279 398 c 4,51,52
 2279 499 2279 499 2212 580 c 4,53,54
 2146 663 2146 663 1986 662 c 4,55,56
 1935 662 1935 662 1897 657 c 4,57,58
 1858 652 1858 652 1830 644 c 5,59,60
 1867 600 1867 600 1886 544 c 4,61,62
 1906 488 1906 488 1907 423 c 4,63,64
 1908 295 1908 295 1868 215 c 4,65,66
 1828 134 1828 134 1768 91 c 4,67,68
 1708 47 1708 47 1648 27 c 4,69,70
 1576 4 1576 4 1549 2 c 6,71,-1
 1508 -1 l 5,72,-1
 1508 26 l 5,73,-1
 1544 36 l 6,74,75
 1583 48 1583 48 1629 82 c 4,76,77
 1677 119 1677 119 1712 193 c 4,78,79
 1748 267 1748 267 1748 398 c 4,80,81
 1748 499 1748 499 1681 580 c 4,82,83
 1616 663 1616 663 1456 662 c 4,84,85
 1413 662 1413 662 1370 662 c 4,0,1
EndSplineSet
Ligature2: "common ligs" space t h e.silent
LCarets2: 3 0 0 0
EndChar

StartChar: r_e.silent
Encoding: 65620 -1 161
Width: 975
VWidth: 5430
Flags: W
LayerCount: 2
Fore
SplineSet
313 -452 m 5,0,-1
 419 -292 l 5,1,-1
 552 -399 l 5,2,-1
 446 -557 l 5,3,-1
 313 -452 l 5,0,-1
106 796 m 1,4,-1
 238 796 l 1,5,-1
 266 770 l 1,6,-1
 266 733 l 1,7,8
 308 760 308 760 361 778 c 128,-1,9
 414 796 414 796 477 796 c 0,10,11
 583 796 583 796 674 747 c 128,-1,12
 765 698 765 698 820 614 c 0,13,14
 875 531 875 531 876 425 c 0,15,16
 876 297 876 297 836 216 c 128,-1,17
 796 135 796 135 736.5 91.5 c 128,-1,18
 677 48 677 48 617 27.5 c 0,19,20
 558 7 558 7 518 2 c 2,21,-1
 477 0 l 1,22,-1
 477 27 l 1,23,-1
 512 37 l 0,24,25
 549 48 549 48 596.5 84 c 128,-1,26
 644 120 644 120 680 194 c 128,-1,27
 716 268 716 268 716 399 c 0,28,29
 716 500 716 500 650 581 c 0,30,31
 585 663 585 663 425 663 c 0,32,33
 375 663 375 663 335 658 c 0,34,35
 296 652 296 652 266 644 c 1,36,-1
 266 610 l 1,37,-1
 266 266 l 1,38,-1
 266 0 l 1,39,-1
 80 0 l 2,40,41
 40 0 40 0 18 -13 c 2,42,-1
 0 -27 l 1,43,-1
 -53 -27 l 1,44,-1
 53 133 l 1,45,-1
 106 133 l 1,46,-1
 106 266 l 1,47,-1
 106 610 l 1,48,-1
 106 663 l 1,49,-1
 53 663 l 1,50,-1
 27 690 l 1,51,-1
 106 796 l 1,4,-1
EndSplineSet
Ligature2: "common ligs" r.vowel e.silent
EndChar

StartChar: t_e_space_.cap
Encoding: 65619 -1 162
Width: 1560
VWidth: 5430
Flags: W
LayerCount: 2
Fore
SplineSet
392 662 m 4,0,1
 326 642 l 5,2,-1
 292 -675 l 5,3,-1
 372 -690 l 5,4,-1
 292 -796 l 5,5,-1
 185 -796 l 5,6,-1
 158 -770 l 5,7,-1
 158 -266 l 5,8,-1
 158 1062 l 5,9,-1
 158 1459 l 5,10,11
 121 1458 121 1458 87 1433 c 6,12,-1
 53 1406 l 5,13,-1
 27 1433 l 5,14,-1
 185 1592 l 5,15,-1
 292 1592 l 5,16,-1
 319 1566 l 5,17,-1
 319 1062 l 13,18,-1
 319 733 l 4,19,-1
 393 763 l 4,20,21
 468 795 468 795 530 795 c 4,22,23
 686 795 686 795 801 697 c 5,24,25
 846 731 846 731 913 763 c 4,26,27
 980 795 980 795 1062 795 c 4,28,29
 1168 795 1168 795 1258 746 c 4,30,31
 1349 698 1349 698 1404 614 c 4,32,33
 1460 529 1460 529 1459 423 c 4,34,35
 1459 295 1459 295 1419 215 c 4,36,37
 1379 134 1379 134 1319 91 c 4,38,39
 1258 47 1258 47 1201 27 c 4,40,41
 1129 4 1129 4 1102 2 c 6,42,-1
 1062 -1 l 5,43,-1
 1062 26 l 5,44,-1
 1098 36 l 4,45,46
 1136 47 1136 47 1183 82 c 4,47,48
 1230 119 1230 119 1264 193 c 4,49,50
 1300 267 1300 267 1300 398 c 4,51,52
 1301 499 1301 499 1235 580 c 4,53,54
 1169 663 1169 663 1009 662 c 4,55,56
 959 662 959 662 919 657 c 4,57,58
 880 652 880 652 852 644 c 5,59,60
 889 600 889 600 909 544 c 4,61,62
 929 488 929 488 929 423 c 4,63,64
 929 295 929 295 889 215 c 4,65,66
 849 134 849 134 789 91 c 4,67,68
 729 47 729 47 670 27 c 4,69,70
 598 4 598 4 571 2 c 6,71,-1
 530 -1 l 5,72,-1
 530 26 l 5,73,-1
 565 36 l 6,74,75
 603 48 603 48 650 82 c 4,76,77
 698 119 698 119 734 193 c 4,78,79
 771 267 771 267 770 398 c 4,80,81
 770 499 770 499 703 580 c 4,82,83
 637 663 637 663 477 662 c 4,84,85
 435 662 435 662 392 662 c 4,0,1
EndSplineSet
LCarets2: 2 0 0
Ligature2: "common ligs" T h e.silent
EndChar

StartChar: NameMe.65621
Encoding: 65621 -1 163
Width: 1980
VWidth: 5430
Flags: W
LayerCount: 2
Fore
SplineSet
1429 662 m 0,0,1
 1591 658 1591 658 1654 580 c 0,2,3
 1720 499 1720 499 1722 398 c 0,4,5
 1722 268 1722 268 1685 193 c 0,6,7
 1651 119 1651 119 1602 82 c 0,8,9
 1554 47 1554 47 1516 36 c 0,10,-1
 1481 26 l 1,11,-1
 1481 -1 l 1,12,-1
 1522 2 l 2,13,14
 1555 4 1555 4 1621 27 c 0,15,16
 1687 50 1687 50 1741 91 c 0,17,18
 1800 135 1800 135 1840 215 c 0,19,20
 1880 291 1880 291 1880 423 c 0,21,22
 1880 531 1880 531 1824 614 c 0,23,24
 1768 699 1768 699 1678 746 c 0,25,26
 1582 796 1582 796 1481 795 c 0,27,28
 1406 795 1406 795 1365 777 c 0,29,-1
 1270 733 l 0,30,-1
 1270 1062 l 17,31,-1
 1270 1566 l 1,32,-1
 1243 1592 l 1,33,-1
 1138 1592 l 1,34,-1
 978 1433 l 1,35,-1
 1004 1406 l 1,36,-1
 1039 1433 l 2,37,38
 1073 1460 1073 1460 1111 1459 c 1,39,-1
 1111 1062 l 1,40,-1
 1111 -266 l 1,41,-1
 1111 -770 l 1,42,-1
 1138 -796 l 1,43,-1
 1243 -796 l 1,44,-1
 1323 -690 l 1,45,-1
 1244 -675 l 1,46,-1
 1278 642 l 1,47,-1
 1344 662 l 4,48,-1
 1429 662 l 0,0,1
1429 662 m 1048,49,-1
EndSplineSet
EndChar

StartChar: of
Encoding: 65622 -1 164
Width: 3461
VWidth: 5430
Flags: W
LayerCount: 2
Fore
SplineSet
1292 733 m 21,0,1
 1334 760 1334 760 1387 778 c 128,-1,2
 1440 796 1440 796 1503 796 c 0,3,4
 1660 796 1660 796 1775 698 c 1,5,6
 1820 732 1820 732 1886.5 764 c 128,-1,7
 1953 796 1953 796 2035 796 c 0,8,9
 2141 796 2141 796 2231 747 c 128,-1,10
 2321 698 2321 698 2376 614 c 0,11,12
 2431 531 2431 531 2432 425 c 0,13,14
 2432 321 2432 321 2404.5 250.5 c 128,-1,15
 2377 180 2377 180 2334 133 c 1,16,-1
 2354 133 l 2,17,18
 2394 133 2394 133 2412 146 c 2,19,-1
 2432 158 l 1,20,-1
 2485 158 l 1,21,-1
 2380 0 l 1,22,-1
 1292 0 l 1,23,-1
 1271 -675 l 1,24,-1
 1350 -690 l 1,25,-1
 1270 -796 l 1,26,-1
 1165 -796 l 1,27,-1
 1138 -770 l 1,28,-1
 1138 -266 l 1,29,-1
 1138 1062 l 1,30,-1
 1138 1459 l 1,31,32
 1100 1458 1100 1458 1066 1433 c 2,33,-1
 1031 1406 l 1,34,-1
 1004 1433 l 1,35,-1
 1165 1592 l 1,36,-1
 1270 1592 l 1,37,-1
 1296 1566 l 9,38,-1
 1292 733 l 21,0,1
1451 663 m 0,39,40
 1401 663 1401 663 1361 658 c 0,41,42
 1322 652 1322 652 1292 644 c 1,43,-1
 1292 610 l 1,44,-1
 1292 133 l 1,45,-1
 1670 133 l 1,46,47
 1699 175 1699 175 1720.5 238.5 c 128,-1,48
 1742 302 1742 302 1742 399 c 0,49,50
 1742 500 1742 500 1675.5 581.5 c 128,-1,51
 1609 663 1609 663 1451 663 c 0,39,40
1982 663 m 0,52,53
 1932 663 1932 663 1893 658 c 0,54,55
 1854 652 1854 652 1825 644 c 1,56,57
 1862 599 1862 599 1882 543.5 c 128,-1,58
 1902 488 1902 488 1902 425 c 0,59,60
 1902 321 1902 321 1874 250.5 c 128,-1,61
 1846 180 1846 180 1804 133 c 1,62,-1
 2201 133 l 1,63,64
 2230 175 2230 175 2251.5 238.5 c 128,-1,65
 2273 302 2273 302 2273 399 c 0,66,67
 2273 500 2273 500 2206.5 581.5 c 128,-1,68
 2140 663 2140 663 1982 663 c 0,52,53
EndSplineSet
Ligature2: "common ligs" space o.short f space
EndChar

StartChar: k_n
Encoding: 65623 -1 165
Width: 975
VWidth: 5430
Flags: W
LayerCount: 2
Fore
SplineSet
785 -788 m 1,0,-1
 679 -788 l 1,1,-1
 652 -762 l 1,2,-1
 652 -258 l 1,3,-1
 652 71 l 1,4,5
 609 44 609 44 556 26 c 0,6,7
 502 7 502 7 439 7 c 0,8,9
 333 7 333 7 243 56 c 0,10,11
 152 106 152 106 97 189 c 0,12,13
 41 272 41 272 42 379 c 0,14,15
 42 483 42 483 69.5 553 c 0,16,17
 97 622 97 622 140 670 c 1,18,-1
 121 670 l 2,19,20
 85 670 85 670 63 658 c 2,21,-1
 42 644 l 1,22,-1
 -12 644 l 1,23,-1
 95 804 l 1,24,-1
 439 804 l 1,25,-1
 652 804 l 1,26,-1
 652 1069 l 1,27,-1
 652 1467 l 1,28,-1
 553 1456 l 1,29,-1
 535 1479 l 1,30,-1
 679 1599 l 1,31,-1
 785 1599 l 1,32,-1
 811 1573 l 1,33,-1
 811 1069 l 1,34,-1
 811 -258 l 1,35,-1
 811 -655 l 1,36,37
 882 -655 882 -655 882 -630 c 2,38,-1
 882 -630 l 1,39,-1
 876 -724 l 1,40,-1
 785 -788 l 1,0,-1
492 140 m 0,41,42
 542 140 542 140 582.5 145.5 c 0,43,44
 622 151 622 151 652 158 c 1,45,-1
 652 670 l 1,46,-1
 272 670 l 1,47,48
 243 628 243 628 222 564.5 c 128,-1,49
 201 501 201 501 201 406 c 0,50,51
 201 305 201 305 267.5 222.5 c 128,-1,52
 334 140 334 140 492 140 c 0,41,42
EndSplineSet
Ligature2: "common ligs" k n
EndChar

StartChar: smileas
Encoding: 65624 -1 166
Width: 1611
VWidth: 5430
Flags: W
LayerCount: 2
Fore
SplineSet
-171 302 m 0,0,1
 -171 162 -171 162 -95.5 86 c 128,-1,2
 -20 10 -20 10 121 10 c 2,3,-1
 334 10 l 2,4,5
 474 10 474 10 550 85.5 c 0,6,7
 626 162 626 162 626 302 c 0,8,9
 626 355 626 355 593 404 c 0,10,11
 560 454 560 454 527 482 c 2,12,-1
 492 513 l 1,13,-1
 360 434 l 1,14,-1
 360 407 l 1,15,-1
 400 396 l 256,16,17
 440 385 440 385 479.5 356.5 c 128,-1,18
 519 328 519 328 519 274 c 0,19,20
 519 194 519 194 465.5 181 c 128,-1,21
 412 168 412 168 334 168 c 2,22,-1
 121 168 l 2,23,24
 41 168 41 168 -12 197.5 c 128,-1,25
 -65 227 -65 227 -65 328 c 0,26,27
 -65 408 -65 408 -38 447 c 2,28,-1
 -12 487 l 1,29,-1
 -38 513 l 1,30,-1
 -72 482 l 2,31,32
 -104 453 -104 453 -137.5 404 c 128,-1,33
 -171 355 -171 355 -171 302 c 0,0,1
524 1035 m 1,34,-1
 365 929 l 1,35,-1
 471 796 l 1,36,-1
 631 902 l 1,37,-1
 524 1035 l 1,34,-1
-6 1035 m 1,38,-1
 -166 929 l 1,39,-1
 -59 796 l 1,40,-1
 99 902 l 1,41,-1
 -6 1035 l 1,38,-1
EndSplineSet
Ligature2: "asc" colon parenright space
EndChar

StartChar: winkas
Encoding: 65625 -1 167
Width: 445
VWidth: 5430
Flags: W
LayerCount: 2
Fore
SplineSet
-172 302 m 0,0,1
 -172 162 -172 162 -96 86 c 0,2,3
 -21 10 -21 10 121 10 c 2,4,-1
 333 10 l 2,5,6
 473 10 473 10 549 85.5 c 0,7,8
 625 162 625 162 625 302 c 0,9,10
 625 355 625 355 591.5 404 c 0,11,12
 558 454 558 454 527 482 c 2,13,-1
 492 513 l 1,14,-1
 360 434 l 1,15,-1
 360 407 l 1,16,-1
 400 396 l 256,17,18
 440 385 440 385 479 356.5 c 128,-1,19
 518 328 518 328 518 274 c 0,20,21
 518 194 518 194 465 181 c 128,-1,22
 412 168 412 168 333 168 c 2,23,-1
 121 168 l 2,24,25
 41 168 41 168 -12 197.5 c 128,-1,26
 -65 227 -65 227 -65 328 c 0,27,28
 -65 408 -65 408 -39 447 c 2,29,-1
 -12 487 l 1,30,-1
 -39 513 l 1,31,-1
 -74 482 l 2,32,33
 -106 453 -106 453 -139 404 c 128,-1,34
 -172 355 -172 355 -172 302 c 0,0,1
524 1035 m 1,35,-1
 364 929 l 1,36,-1
 471 796 l 1,37,-1
 630 902 l 1,38,-1
 524 1035 l 1,35,-1
-118 1157 m 1,39,-1
 -166 929 l 1,40,-1
 -60 796 l 1,41,-1
 99 902 l 1,42,-1
 -118 1157 l 1,39,-1
EndSplineSet
Ligature2: "asc" semicolon parenright space
EndChar

